{
.appVersion = "1352";
copyright = "Copyright 2020 Google Inc. All Rights Reserved.";
date = "2020-04-04 10:30:38 +0000";
designer = "Danh Hong";
designerURL = "http://www.nextspell.com/";
disablesAutomaticAlignment = 1;
disablesNiceNames = 1;
familyName = "Koh Santepheap";
featurePrefixes = (
{
code = "lookup lookup_0 {\012sub uni17B7 by uni17B7.r;\012sub uni17B8 by uni17B8.r;\012sub uni17B9 by uni17B9.r;\012sub uni17BA by uni17BA.r;\012sub uni17C6 by uni17C6.r;\012sub uni17C9 by uni17C9.r;\012sub uni17CD by uni17CD.r;\012sub uni17B717CD by uni17B717CD.r;\012} lookup_0;\012";
name = lookup_0;
},
{
code = "lookup lookup_1 {\012sub uni17BB by uni17BB.b;\012sub uni17BC by uni17BC.b;\012sub uni17BD by uni17BD.b;\012} lookup_1;\012";
name = lookup_1;
},
{
code = "lookup lookup_10 {\012sub uni17D21798 by uni17D21798.b;\012sub uni17D217A0 by uni17D217A0.b;\012} lookup_10;\012";
name = lookup_10;
},
{

glyphs = (
{
glyphname = glyph36;
lastChange = "2021-04-16 11:22:00 +0000";
layers = (
{
layerId = "0DE963AB-769B-4021-B20D-45864FAF5663";
paths = (
{
closed = 1;
nodes = (
"451 41 LINE",
"342 41 LINE SMOOTH",
"266 41 OFFCURVE",
"230 70 OFFCURVE",
"230 98 QCURVE SMOOTH",
"230 123 OFFCURVE",
"254 205 OFFCURVE",
"281 283 OFFCURVE",
"287 301 QCURVE SMOOTH",
"361 514 LINE",
"953 514 LINE",
"1026 301 LINE SMOOTH",
"1032 283 OFFCURVE",
"1059 205 OFFCURVE",
"1084 123 OFFCURVE",
"1084 98 QCURVE SMOOTH",
"1084 70 OFFCURVE",
"1049 41 OFFCURVE",
"971 41 QCURVE SMOOTH",
"901 41 LINE",
"901 0 LINE",
"1321 0 LINE",
"1321 41 LINE",
"1276 41 LINE SMOOTH",
"1229 41 OFFCURVE",
"1184 53 OFFCURVE",
"1159 94 OFFCURVE",
"1143 139 QCURVE SMOOTH",
"686 1462 LINE",
"627 1462 LINE",
"170 139 LINE SMOOTH",
"156 94 OFFCURVE",
"129 53 OFFCURVE",
"84 41 OFFCURVE",
"37 41 QCURVE SMOOTH",
"-8 41 LINE",
"-8 0 LINE",
"451 0 LINE"
);
},
{
closed = 1;
nodes = (
"561 1102 OFFCURVE",
"606 1235 OFFCURVE",
"649 1360 OFFCURVE",
"658 1393 QCURVE",
"672 1350 OFFCURVE",
"713 1223 OFFCURVE",
"758 1090 OFFCURVE",
"776 1034 QCURVE SMOOTH",
"934 565 LINE",
"377 565 LINE",
"545 1055 LINE SMOOTH"
);
}
);
width = 1320;
},
{
layerId = "8C5547AF-2EE0-40C3-888E-C5581C9C595C";
paths = (
{
closed = 1;
nodes = (
"477 66 LINE",
"402 66 LINE SMOOTH",
"332 66 OFFCURVE",
"277 104 OFFCURVE",
"277 145 QCURVE SMOOTH",
"277 172 OFFCURVE",
"303 260 OFFCURVE",
"313 287 QCURVE SMOOTH",
"389 500 LINE",
"952 500 LINE",
"1030 279 LINE SMOOTH",
"1040 254 OFFCURVE",
"1065 170 OFFCURVE",
"1065 145 QCURVE SMOOTH",
"1065 104 OFFCURVE",
"1016 66 OFFCURVE",
"948 66 QCURVE SMOOTH",
"891 66 LINE",
"891 0 LINE",
"1389 0 LINE",
"1389 66 LINE",
"1354 66 LINE SMOOTH",
"1288 66 OFFCURVE",
"1235 104 OFFCURVE",
"1213 170 QCURVE SMOOTH",
"754 1462 LINE",
"639 1462 LINE",
"184 197 LINE SMOOTH",
"164 139 OFFCURVE",
"131 84 OFFCURVE",
"82 66 OFFCURVE",
"39 66 QCURVE SMOOTH",
"-4 66 LINE",
"-4 0 LINE",
"477 0 LINE"
);
},
{
closed = 1;
nodes = (
"600 1090 OFFCURVE",
"660 1266 OFFCURVE",
"674 1327 QCURVE",
"692 1257 OFFCURVE",
"752 1075 OFFCURVE",
"782 989 QCURVE SMOOTH",
"924 580 LINE",
"418 580 LINE",
"571 1008 LINE SMOOTH"
);
}
);
width = 1388;
},
{
layerId = "7FEA46FF-516C-4946-9F17-9EEA76F5F564";
paths = (
{
closed = 1;
nodes = (
"1034 260 LINE SMOOTH",
"1042 237 OFFCURVE",
"1051 201 OFFCURVE",
"1051 184 QCURVE SMOOTH",
"1051 86 OFFCURVE",
"928 86 QCURVE SMOOTH",
"881 86 LINE",
"881 0 LINE",
"1444 0 LINE",
"1444 86 LINE",
"1417 86 LINE SMOOTH",
"1387 86 OFFCURVE",
"1343 96 OFFCURVE",
"1309 121 OFFCURVE",
"1284 163 OFFCURVE",
"1272 195 QCURVE SMOOTH",
"809 1462 LINE",
"649 1462 LINE",
"195 246 LINE SMOOTH",
"176 197 OFFCURVE",
"145 135 OFFCURVE",
"111 99 OFFCURVE",
"69 86 OFFCURVE",
"39 86 QCURVE SMOOTH",
"0 86 LINE",
"0 0 LINE",
"500 0 LINE",
"500 86 LINE",
"453 86 LINE SMOOTH",
"384 86 OFFCURVE",
"317 134 OFFCURVE",
"317 186 QCURVE SMOOTH",
"317 203 OFFCURVE",
"327 250 OFFCURVE",
"336 274 QCURVE SMOOTH",
"414 489 LINE",
"952 489 LINE"
);
},
{
closed = 1;
nodes = (
"453 592 LINE",
"592 969 LINE SMOOTH",
"610 1017 OFFCURVE",
"638 1096 OFFCURVE",
"660 1168 OFFCURVE",
"679 1237 OFFCURVE",
"686 1274 QCURVE",
"703 1200 OFFCURVE",
"756 1041 OFFCURVE",
"788 950 QCURVE SMOOTH",
"915 592 LINE"
);
}
);
width = 1444;
},
{
layerId = "3CCD85FA-69E6-46C4-A32D-64775BF55ABF";
paths = (
{
closed = 1;
nodes = (
"1016 276 LINE SMOOTH",
"1022 259 OFFCURVE",
"1034 213 OFFCURVE",
"1034 188 QCURVE SMOOTH",
"1034 167 OFFCURVE",
"1018 137 OFFCURVE",
"993 118 OFFCURVE",
"961 109 OFFCURVE",
"946 109 QCURVE SMOOTH",
"866 109 LINE",
"866 0 LINE",
"1542 0 LINE",
"1542 109 LINE",
"1505 109 LINE SMOOTH",
"1481 109 OFFCURVE",
"1437 123 OFFCURVE",
"1398 156 OFFCURVE",
"1365 213 OFFCURVE",
"1350 256 QCURVE SMOOTH",
"922 1462 LINE",
"641 1462 LINE",
"197 258 LINE SMOOTH",
"179 212 OFFCURVE",
"144 154 OFFCURVE",
"105 121 OFFCURVE",
"60 109 OFFCURVE",
"33 109 QCURVE SMOOTH",
"8 109 LINE",
"8 0 LINE",
"541 0 LINE",
"541 109 LINE",
"455 109 LINE SMOOTH",
"437 109 OFFCURVE",
"404 119 OFFCURVE",
"378 138 OFFCURVE",
"362 168 OFFCURVE",
"362 188 QCURVE SMOOTH",
"362 213 OFFCURVE",
"379 280 OFFCURVE",
"387 305 QCURVE SMOOTH",
"446 481 LINE",
"944 481 LINE"
);
},
{
closed = 1;
nodes = (
"489 606 LINE",
"610 952 LINE SMOOTH",
"622 988 OFFCURVE",
"649 1066 OFFCURVE",
"676 1144 OFFCURVE",
"700 1218 OFFCURVE",
"709 1249 QCURVE",
"717 1213 OFFCURVE",
"738 1134 OFFCURVE",
"761 1054 OFFCURVE",
"784 977 OFFCURVE",
"795 942 QCURVE SMOOTH",
"903 606 LINE"
);
}
);
width = 1542;
},
{
layerId = "6A9350D6-C757-41BD-9D0D-806F72644A83";
paths = (
{
closed = 1;
nodes = (
"571 125 LINE",
"471 125 LINE SMOOTH",
"428 125 OFFCURVE",
"395 160 OFFCURVE",
"395 190 QCURVE SMOOTH",
"395 219 OFFCURVE",
"417 303 OFFCURVE",
"424 328 QCURVE SMOOTH",
"471 475 LINE",
"938 475 LINE",
"1001 289 LINE SMOOTH",
"1005 276 OFFCURVE",
"1024 217 OFFCURVE",
"1024 188 QCURVE SMOOTH",
"1024 150 OFFCURVE",
"970 125 OFFCURVE",
"938 125 QCURVE SMOOTH",
"856 125 LINE",
"856 0 LINE",
"1613 0 LINE",
"1613 125 LINE",
"1591 125 LINE SMOOTH",
"1534 125 OFFCURVE",
"1450 190 OFFCURVE",
"1423 262 QCURVE SMOOTH",
"1005 1462 LINE",
"635 1462 LINE",
"198 266 LINE SMOOTH",
"166 178 OFFCURVE",
"82 125 OFFCURVE",
"28 125 QCURVE SMOOTH",
"14 125 LINE",
"14 0 LINE",
"571 0 LINE"
);
},
{
closed = 1;
nodes = (
"661 1061 OFFCURVE",
"698 1184 OFFCURVE",
"714 1249 QCURVE",
"727 1182 OFFCURVE",
"762 1061 OFFCURVE",
"776 1008 QCURVE SMOOTH",
"893 616 LINE",
"516 616 LINE",
"645 1010 LINE SMOOTH"
);
}
);
width = 1613;
}
);
note = glyph36;
unicode = 0041;
},
{
glyphname = glyph37;
lastChange = "2021-04-16 11:22:00 +0000";
layers = (
{
layerId = "0DE963AB-769B-4021-B20D-45864FAF5663";
paths = (
{
closed = 1;
nodes = (
"878 0 OFFCURVE",
"1103 195 OFFCURVE",
"1103 410 QCURVE SMOOTH",
"1103 580 OFFCURVE",
"942 766 OFFCURVE",
"792 772 QCURVE",
"792 776 LINE",
"860 791 OFFCURVE",
"972 862 OFFCURVE",
"1042 995 OFFCURVE",
"1042 1108 QCURVE SMOOTH",
"1042 1298 OFFCURVE",
"825 1462 OFFCURVE",
"593 1462 QCURVE SMOOTH",
"106 1462 LINE",
"106 1421 LINE",
"190 1421 LINE SMOOTH",
"241 1421 OFFCURVE",
"290 1397 OFFCURVE",
"305 1319 OFFCURVE",
"305 1241 QCURVE SMOOTH",
"305 221 LINE SMOOTH",
"305 143 OFFCURVE",
"290 66 OFFCURVE",
"241 41 OFFCURVE",
"190 41 QCURVE SMOOTH",
"106 41 LINE",
"106 0 LINE",
"655 0 LINE SMOOTH"
);
},
{
closed = 1;
nodes = (
"583 1411 LINE SMOOTH",
"802 1411 OFFCURVE",
"985 1270 OFFCURVE",
"985 1112 QCURVE SMOOTH",
"985 1012 OFFCURVE",
"913 870 OFFCURVE",
"739 795 OFFCURVE",
"587 795 QCURVE SMOOTH",
"362 795 LINE",
"362 1411 LINE"
);
},
{
closed = 1;
nodes = (
"649 743 LINE SMOOTH",
"800 743 OFFCURVE",
"974 668 OFFCURVE",
"1046 516 OFFCURVE",
"1046 403 QCURVE SMOOTH",
"1046 233 OFFCURVE",
"864 51 OFFCURVE",
"645 51 QCURVE SMOOTH",
"362 51 LINE",
"362 743 LINE"
);
}
);
width = 1273;
},
{
layerId = "8C5547AF-2EE0-40C3-888E-C5581C9C595C";
paths = (
{
closed = 1;
nodes = (
"919 0 OFFCURVE",
"1163 197 OFFCURVE",
"1163 401 QCURVE SMOOTH",
"1163 567 OFFCURVE",
"995 754 OFFCURVE",
"850 768 QCURVE",
"850 774 LINE",
"956 805 OFFCURVE",
"1102 950 OFFCURVE",
"1102 1102 QCURVE SMOOTH",
"1102 1290 OFFCURVE",
"862 1462 OFFCURVE",
"612 1462 QCURVE SMOOTH",
"90 1462 LINE",
"90 1397 LINE",
"143 1397 LINE SMOOTH",
"215 1397 OFFCURVE",
"287 1341 OFFCURVE",
"287 1239 QCURVE SMOOTH",
"287 227 LINE SMOOTH",
"287 121 OFFCURVE",
"215 66 OFFCURVE",
"143 66 QCURVE SMOOTH",
"90 66 LINE",
"90 0 LINE",
"674 0 LINE SMOOTH"
);
},
{
closed = 1;
nodes = (
"602 1382 LINE SMOOTH",
"795 1382 OFFCURVE",
"956 1255 OFFCURVE",
"956 1104 QCURVE SMOOTH",
"956 954 OFFCURVE",
"807 807 OFFCURVE",
"606 807 QCURVE SMOOTH",
"426 807 LINE",
"426 1382 LINE"
);
},
{
closed = 1;
nodes = (
"668 727 LINE SMOOTH",
"868 727 OFFCURVE",
"1018 567 OFFCURVE",
"1018 401 QCURVE SMOOTH",
"1018 236 OFFCURVE",
"856 80 OFFCURVE",
"663 80 QCURVE SMOOTH",
"426 80 LINE",
"426 727 LINE"
);
}
);
width = 1308;
},
{
layerId = "7FEA46FF-516C-4946-9F17-9EEA76F5F564";
paths = (
{
closed = 1;
nodes = (
"893 1462 OFFCURVE",
"627 1462 QCURVE SMOOTH",
"78 1462 LINE",
"78 1376 LINE",
"104 1376 LINE SMOOTH",
"138 1376 OFFCURVE",
"199 1367 OFFCURVE",
"245 1337 OFFCURVE",
"272 1282 OFFCURVE",
"272 1237 QCURVE SMOOTH",
"272 233 LINE SMOOTH",
"272 185 OFFCURVE",
"246 127 OFFCURVE",
"200 96 OFFCURVE",
"139 86 OFFCURVE",
"104 86 QCURVE SMOOTH",
"78 86 LINE",
"78 0 LINE",
"688 0 LINE SMOOTH",
"954 0 OFFCURVE",
"1214 197 OFFCURVE",
"1214 395 QCURVE SMOOTH",
"1214 476 OFFCURVE",
"1168 603 OFFCURVE",
"1085 696 OFFCURVE",
"969 754 OFFCURVE",
"899 766 QCURVE",
"899 774 LINE",
"953 792 OFFCURVE",
"1046 845 OFFCURVE",
"1114 923 OFFCURVE",
"1153 1027 OFFCURVE",
"1153 1096 QCURVE SMOOTH",
"1153 1285 OFFCURVE"
);
},
{
closed = 1;
nodes = (
"682 715 LINE SMOOTH",
"772 715 OFFCURVE",
"892 677 OFFCURVE",
"965 599 OFFCURVE",
"995 481 OFFCURVE",
"995 401 QCURVE SMOOTH",
"995 319 OFFCURVE",
"961 205 OFFCURVE",
"885 134 OFFCURVE",
"765 102 OFFCURVE",
"678 102 QCURVE SMOOTH",
"479 102 LINE",
"479 715 LINE"
);
},
{
closed = 1;
nodes = (
"616 1360 LINE SMOOTH",
"703 1360 OFFCURVE",
"824 1334 OFFCURVE",
"900 1272 OFFCURVE",
"934 1171 OFFCURVE",
"934 1096 QCURVE SMOOTH",
"934 1022 OFFCURVE",
"903 916 OFFCURVE",
"831 849 OFFCURVE",
"711 817 OFFCURVE",
"621 817 QCURVE SMOOTH",
"479 817 LINE",
"479 1360 LINE"
);
}
);
width = 1339;
},
{
layerId = "3CCD85FA-69E6-46C4-A32D-64775BF55ABF";
paths = (
{
closed = 1;
nodes = (
"947 1462 OFFCURVE",
"655 1462 QCURVE SMOOTH",
"57 1462 LINE",
"57 1354 LINE",
"141 1354 LINE SMOOTH",
"163 1354 OFFCURVE",
"202 1343 OFFCURVE",
"231 1315 OFFCURVE",
"248 1264 OFFCURVE",
"248 1223 QCURVE SMOOTH",
"248 242 LINE SMOOTH",
"248 198 OFFCURVE",
"231 146 OFFCURVE",
"203 118 OFFCURVE",
"164 109 OFFCURVE",
"141 109 QCURVE SMOOTH",
"57 109 LINE",
"57 0 LINE",
"717 0 LINE SMOOTH",
"1009 0 OFFCURVE",
"1303 199 OFFCURVE",
"1303 401 QCURVE SMOOTH",
"1303 476 OFFCURVE",
"1256 596 OFFCURVE",
"1171 687 OFFCURVE",
"1054 750 OFFCURVE",
"983 768 QCURVE",
"983 778 LINE",
"1041 796 OFFCURVE",
"1136 848 OFFCURVE",
"1204 921 OFFCURVE",
"1241 1022 OFFCURVE",
"1241 1090 QCURVE SMOOTH",
"1241 1282 OFFCURVE"
);
},
{
closed = 1;
nodes = (
"711 702 LINE SMOOTH",
"782 702 OFFCURVE",
"876 666 OFFCURVE",
"934 594 OFFCURVE",
"958 483 OFFCURVE",
"958 408 QCURVE SMOOTH",
"958 330 OFFCURVE",
"931 222 OFFCURVE",
"871 155 OFFCURVE",
"775 125 OFFCURVE",
"707 125 QCURVE SMOOTH",
"571 125 LINE",
"571 702 LINE"
);
},
{
closed = 1;
nodes = (
"645 1337 LINE SMOOTH",
"714 1337 OFFCURVE",
"810 1312 OFFCURVE",
"870 1254 OFFCURVE",
"897 1160 OFFCURVE",
"897 1090 QCURVE SMOOTH",
"897 1020 OFFCURVE",
"873 920 OFFCURVE",
"816 857 OFFCURVE",
"721 827 OFFCURVE",
"649 827 QCURVE SMOOTH",
"571 827 LINE",
"571 1337 LINE"
);
}
);
width = 1376;
},
{
layerId = "6A9350D6-C757-41BD-9D0D-806F72644A83";
paths = (
{
closed = 1;
nodes = (
"1098 0 OFFCURVE",
"1413 203 OFFCURVE",
"1413 406 QCURVE SMOOTH",
"1413 567 OFFCURVE",
"1208 741 OFFCURVE",
"1047 770 QCURVE",
"1047 780 LINE",
"1128 801 OFFCURVE",
"1268 881 OFFCURVE",
"1354 1012 OFFCURVE",
"1354 1106 QCURVE SMOOTH",
"1354 1298 OFFCURVE",
"1024 1462 OFFCURVE",
"715 1462 QCURVE SMOOTH",
"43 1462 LINE",
"43 1337 LINE",
"143 1337 LINE SMOOTH",
"172 1337 OFFCURVE",
"231 1290 OFFCURVE",
"231 1225 QCURVE SMOOTH",
"231 238 LINE SMOOTH",
"231 186 OFFCURVE",
"193 125 OFFCURVE",
"149 125 QCURVE SMOOTH",
"43 125 LINE",
"43 0 LINE",
"776 0 LINE SMOOTH"
);
},
{
closed = 1;
nodes = (
"692 1321 LINE SMOOTH",
"805 1321 OFFCURVE",
"928 1217 OFFCURVE",
"928 1085 QCURVE SMOOTH",
"928 950 OFFCURVE",
"811 836 OFFCURVE",
"696 836 QCURVE SMOOTH",
"639 836 LINE",
"639 1321 LINE"
);
},
{
closed = 1;
nodes = (
"750 694 LINE SMOOTH",
"977 694 OFFCURVE",
"977 412 QCURVE SMOOTH",
"977 262 OFFCURVE",
"854 141 OFFCURVE",
"745 141 QCURVE SMOOTH",
"639 141 LINE",
"639 694 LINE"
);
}
);
width = 1474;
}
);
note = glyph37;
unicode = 0042;
},
{
glyphname = glyph38;
lastChange = "2021-04-16 11:22:00 +0000";
layers = (
{
layerId = "0DE963AB-769B-4021-B20D-45864FAF5663";
paths = (
{
closed = 1;
nodes = (
"904 27 OFFCURVE",
"999 96 OFFCURVE",
"1044 160 OFFCURVE",
"1044 176 QCURVE SMOOTH",
"1044 213 OFFCURVE",
"1017 227 QCURVE",
"980 147 OFFCURVE",
"812 31 OFFCURVE",
"661 31 QCURVE SMOOTH",
"413 31 OFFCURVE",
"173 410 OFFCURVE",
"173 733 QCURVE SMOOTH",
"173 946 OFFCURVE",
"282 1260 OFFCURVE",
"495 1432 OFFCURVE",
"651 1432 QCURVE SMOOTH",
"794 1432 OFFCURVE",
"950 1368 OFFCURVE",
"1013 1247 OFFCURVE",
"1013 1163 QCURVE",
"1056 1163 OFFCURVE",
"1056 1249 QCURVE SMOOTH",
"1056 1307 OFFCURVE",
"978 1413 OFFCURVE",
"806 1483 OFFCURVE",
"663 1483 QCURVE SMOOTH",
"395 1483 OFFCURVE",
"116 1085 OFFCURVE",
"116 733 QCURVE SMOOTH",
"116 500 OFFCURVE",
"237 162 OFFCURVE",
"478 -20 OFFCURVE",
"663 -20 QCURVE SMOOTH",
"761 -20 OFFCURVE"
);
}
);
width = 1126;
},
{
layerId = "8C5547AF-2EE0-40C3-888E-C5581C9C595C";
paths = (
{
closed = 1;
nodes = (
"1029 55 OFFCURVE",
"1117 156 OFFCURVE",
"1117 195 QCURVE SMOOTH",
"1117 240 OFFCURVE",
"1085 260 QCURVE",
"1040 186 OFFCURVE",
"872 76 OFFCURVE",
"720 76 QCURVE SMOOTH",
"565 76 OFFCURVE",
"362 240 OFFCURVE",
"266 535 OFFCURVE",
"266 733 QCURVE SMOOTH",
"266 1047 OFFCURVE",
"483 1401 OFFCURVE",
"716 1401 QCURVE SMOOTH",
"829 1401 OFFCURVE",
"958 1329 OFFCURVE",
"1011 1208 OFFCURVE",
"1011 1135 QCURVE",
"1062 1135 OFFCURVE",
"1128 1196 OFFCURVE",
"1128 1251 QCURVE SMOOTH",
"1128 1343 OFFCURVE",
"933 1483 OFFCURVE",
"722 1483 QCURVE SMOOTH",
"524 1483 OFFCURVE",
"253 1298 OFFCURVE",
"116 961 OFFCURVE",
"116 733 QCURVE SMOOTH",
"116 504 OFFCURVE",
"247 166 OFFCURVE",
"509 -20 OFFCURVE",
"704 -20 QCURVE SMOOTH",
"847 -20 OFFCURVE"
);
}
);
width = 1198;
},
{
layerId = "7FEA46FF-516C-4946-9F17-9EEA76F5F564";
paths = (
{
closed = 1;
nodes = (
"366 1373 OFFCURVE",
"201 1175 OFFCURVE",
"117 899 OFFCURVE",
"117 733 QCURVE SMOOTH",
"117 564 OFFCURVE",
"197 286 OFFCURVE",
"354 88 OFFCURVE",
"586 -20 OFFCURVE",
"739 -20 QCURVE SMOOTH",
"853 -20 OFFCURVE",
"1019 23 OFFCURVE",
"1127 89 OFFCURVE",
"1180 170 OFFCURVE",
"1180 209 QCURVE SMOOTH",
"1180 240 OFFCURVE",
"1158 278 OFFCURVE",
"1141 289 QCURVE",
"1115 255 OFFCURVE",
"1048 192 OFFCURVE",
"960 144 OFFCURVE",
"845 115 OFFCURVE",
"770 115 QCURVE SMOOTH",
"657 115 OFFCURVE",
"496 205 OFFCURVE",
"392 368 OFFCURVE",
"344 596 OFFCURVE",
"344 733 QCURVE SMOOTH",
"344 887 OFFCURVE",
"390 1126 OFFCURVE",
"492 1289 OFFCURVE",
"654 1374 OFFCURVE",
"770 1374 QCURVE SMOOTH",
"837 1374 OFFCURVE",
"928 1327 OFFCURVE",
"985 1252 OFFCURVE",
"1010 1158 OFFCURVE",
"1010 1110 QCURVE",
"1048 1110 OFFCURVE",
"1113 1130 OFFCURVE",
"1161 1167 OFFCURVE",
"1188 1220 OFFCURVE",
"1188 1253 QCURVE SMOOTH",
"1188 1302 OFFCURVE",
"1137 1386 OFFCURVE",
"1034 1448 OFFCURVE",
"879 1483 OFFCURVE",
"774 1483 QCURVE SMOOTH",
"612 1483 OFFCURVE"
);
}
);
width = 1257;
},
{
layerId = "3CCD85FA-69E6-46C4-A32D-64775BF55ABF";
paths = (
{
closed = 1;
nodes = (
"599 216 OFFCURVE",
"501 363 OFFCURVE",
"457 585 OFFCURVE",
"457 733 QCURVE SMOOTH",
"457 881 OFFCURVE",
"493 1112 OFFCURVE",
"574 1270 OFFCURVE",
"708 1352 OFFCURVE",
"805 1352 QCURVE SMOOTH",
"869 1352 OFFCURVE",
"955 1301 OFFCURVE",
"1008 1219 OFFCURVE",
"1030 1118 OFFCURVE",
"1030 1067 QCURVE",
"1092 1067 OFFCURVE",
"1188 1094 OFFCURVE",
"1253 1142 OFFCURVE",
"1286 1207 OFFCURVE",
"1286 1245 QCURVE SMOOTH",
"1286 1295 OFFCURVE",
"1228 1382 OFFCURVE",
"1112 1446 OFFCURVE",
"937 1483 OFFCURVE",
"819 1483 QCURVE SMOOTH",
"645 1483 OFFCURVE",
"380 1373 OFFCURVE",
"203 1175 OFFCURVE",
"113 899 OFFCURVE",
"113 733 QCURVE SMOOTH",
"113 564 OFFCURVE",
"201 286 OFFCURVE",
"377 88 OFFCURVE",
"643 -20 OFFCURVE",
"821 -20 QCURVE SMOOTH",
"952 -20 OFFCURVE",
"1130 32 OFFCURVE",
"1238 112 OFFCURVE",
"1284 207 OFFCURVE",
"1284 250 QCURVE SMOOTH",
"1284 276 OFFCURVE",
"1265 326 OFFCURVE",
"1249 338 QCURVE",
"1223 304 OFFCURVE",
"1154 234 OFFCURVE",
"1062 178 OFFCURVE",
"945 143 OFFCURVE",
"870 143 QCURVE SMOOTH",
"756 143 OFFCURVE"
);
}
);
width = 1368;
},
{
layerId = "6A9350D6-C757-41BD-9D0D-806F72644A83";
paths = (
{
closed = 1;
nodes = (
"1208 37 OFFCURVE",
"1318 129 OFFCURVE",
"1361 233 OFFCURVE",
"1361 281 QCURVE SMOOTH",
"1361 303 OFFCURVE",
"1345 360 OFFCURVE",
"1331 375 QCURVE",
"1296 328 OFFCURVE",
"1189 231 OFFCURVE",
"1036 164 OFFCURVE",
"925 164 QCURVE SMOOTH",
"782 164 OFFCURVE",
"614 274 OFFCURVE",
"540 524 OFFCURVE",
"540 733 QCURVE SMOOTH",
"540 1022 OFFCURVE",
"663 1335 OFFCURVE",
"831 1335 QCURVE SMOOTH",
"913 1335 OFFCURVE",
"1007 1243 OFFCURVE",
"1046 1106 OFFCURVE",
"1046 1036 QCURVE",
"1206 1036 OFFCURVE",
"1359 1155 OFFCURVE",
"1359 1239 QCURVE SMOOTH",
"1359 1339 OFFCURVE",
"1107 1483 OFFCURVE",
"853 1483 QCURVE SMOOTH",
"610 1483 OFFCURVE",
"278 1292 OFFCURVE",
"110 954 OFFCURVE",
"110 733 QCURVE SMOOTH",
"110 506 OFFCURVE",
"276 168 OFFCURVE",
"606 -20 OFFCURVE",
"855 -20 QCURVE SMOOTH",
"1009 -20 OFFCURVE"
);
}
);
width = 1449;
}
);
note = glyph38;
unicode = 0043;
},
{
glyphname = glyph39;
lastChange = "2021-04-16 11:22:00 +0000";
layers = (
{
layerId = "0DE963AB-769B-4021-B20D-45864FAF5663";
paths = (
{
closed = 1;
nodes = (
"966 0 OFFCURVE",
"1261 365 OFFCURVE",
"1261 700 QCURVE SMOOTH",
"1261 934 OFFCURVE",
"1122 1276 OFFCURVE",
"847 1462 OFFCURVE",
"645 1462 QCURVE SMOOTH",
"102 1462 LINE",
"102 1421 LINE",
"190 1421 LINE SMOOTH",
"241 1421 OFFCURVE",
"290 1397 OFFCURVE",
"305 1319 OFFCURVE",
"305 1241 QCURVE SMOOTH",
"305 221 LINE SMOOTH",
"305 143 OFFCURVE",
"290 66 OFFCURVE",
"241 41 OFFCURVE",
"190 41 QCURVE SMOOTH",
"102 41 LINE",
"102 0 LINE",
"653 0 LINE SMOOTH"
);
},
{
closed = 1;
nodes = (
"626 1411 LINE SMOOTH",
"827 1411 OFFCURVE",
"1083 1235 OFFCURVE",
"1204 915 OFFCURVE",
"1204 700 QCURVE SMOOTH",
"1204 377 OFFCURVE",
"931 51 OFFCURVE",
"624 51 QCURVE SMOOTH",
"362 51 LINE",
"362 1411 LINE"
);
}
);
width = 1386;
},
{
layerId = "8C5547AF-2EE0-40C3-888E-C5581C9C595C";
paths = (
{
closed = 1;
nodes = (
"1006 0 OFFCURVE",
"1321 383 OFFCURVE",
"1321 719 QCURVE SMOOTH",
"1321 1067 OFFCURVE",
"989 1462 OFFCURVE",
"678 1462 QCURVE SMOOTH",
"88 1462 LINE",
"88 1397 LINE",
"143 1397 LINE SMOOTH",
"215 1397 OFFCURVE",
"287 1341 OFFCURVE",
"287 1239 QCURVE SMOOTH",
"287 227 LINE SMOOTH",
"287 121 OFFCURVE",
"215 66 OFFCURVE",
"143 66 QCURVE SMOOTH",
"88 66 LINE",
"88 0 LINE",
"682 0 LINE SMOOTH"
);
},
{
closed = 1;
nodes = (
"645 1382 LINE SMOOTH",
"913 1382 OFFCURVE",
"1171 1030 OFFCURVE",
"1171 719 QCURVE SMOOTH",
"1171 406 OFFCURVE",
"915 80 OFFCURVE",
"643 80 QCURVE SMOOTH",
"426 80 LINE",
"426 1382 LINE"
);
}
);
width = 1441;
},
{
layerId = "7FEA46FF-516C-4946-9F17-9EEA76F5F564";
paths = (
{
closed = 1;
nodes = (
"1282 1179 OFFCURVE",
"1111 1365 OFFCURVE",
"863 1462 OFFCURVE",
"705 1462 QCURVE SMOOTH",
"78 1462 LINE",
"78 1376 LINE",
"104 1376 LINE SMOOTH",
"138 1376 OFFCURVE",
"199 1367 OFFCURVE",
"245 1337 OFFCURVE",
"272 1282 OFFCURVE",
"272 1237 QCURVE SMOOTH",
"272 233 LINE SMOOTH",
"272 185 OFFCURVE",
"246 127 OFFCURVE",
"200 96 OFFCURVE",
"139 86 OFFCURVE",
"104 86 QCURVE SMOOTH",
"78 86 LINE",
"78 0 LINE",
"705 0 LINE SMOOTH",
"872 0 OFFCURVE",
"1122 103 OFFCURVE",
"1288 294 OFFCURVE",
"1372 565 OFFCURVE",
"1372 733 QCURVE SMOOTH",
"1372 907 OFFCURVE"
);
},
{
closed = 1;
nodes = (
"479 1360 LINE",
"659 1360 LINE SMOOTH",
"902 1360 OFFCURVE",
"1145 1038 OFFCURVE",
"1145 733 QCURVE SMOOTH",
"1145 581 OFFCURVE",
"1084 347 OFFCURVE",
"962 187 OFFCURVE",
"779 104 OFFCURVE",
"657 104 QCURVE SMOOTH",
"479 104 LINE"
);
}
);
width = 1489;
},
{
layerId = "3CCD85FA-69E6-46C4-A32D-64775BF55ABF";
paths = (
{
closed = 1;
nodes = (
"1359 1196 OFFCURVE",
"1172 1373 OFFCURVE",
"903 1462 OFFCURVE",
"733 1462 QCURVE SMOOTH",
"57 1462 LINE",
"57 1354 LINE",
"143 1354 LINE SMOOTH",
"165 1354 OFFCURVE",
"203 1345 OFFCURVE",
"232 1319 OFFCURVE",
"248 1270 OFFCURVE",
"248 1229 QCURVE SMOOTH",
"248 242 LINE SMOOTH",
"248 198 OFFCURVE",
"232 146 OFFCURVE",
"204 118 OFFCURVE",
"166 109 OFFCURVE",
"143 109 QCURVE SMOOTH",
"57 109 LINE",
"57 0 LINE",
"733 0 LINE SMOOTH",
"912 0 OFFCURVE",
"1183 111 OFFCURVE",
"1366 311 OFFCURVE",
"1458 590 OFFCURVE",
"1458 758 QCURVE SMOOTH",
"1458 932 OFFCURVE"
);
},
{
closed = 1;
nodes = (
"1058 378 OFFCURVE",
"951 214 OFFCURVE",
"791 127 OFFCURVE",
"686 127 QCURVE SMOOTH",
"571 127 LINE",
"571 1337 LINE",
"688 1337 LINE SMOOTH",
"897 1337 OFFCURVE",
"1112 1051 OFFCURVE",
"1112 758 QCURVE SMOOTH",
"1112 611 OFFCURVE"
);
}
);
width = 1571;
},
{
layerId = "6A9350D6-C757-41BD-9D0D-806F72644A83";
paths = (
{
closed = 1;
nodes = (
"1006 0 OFFCURVE",
"1348 201 OFFCURVE",
"1522 553 OFFCURVE",
"1522 776 QCURVE SMOOTH",
"1522 1124 OFFCURVE",
"1112 1462 OFFCURVE",
"756 1462 QCURVE SMOOTH",
"43 1462 LINE",
"43 1337 LINE",
"135 1337 LINE SMOOTH",
"178 1337 OFFCURVE",
"231 1284 OFFCURVE",
"231 1227 QCURVE SMOOTH",
"231 236 LINE SMOOTH",
"231 188 OFFCURVE",
"188 125 OFFCURVE",
"152 125 QCURVE SMOOTH",
"43 125 LINE",
"43 0 LINE",
"756 0 LINE SMOOTH"
);
},
{
closed = 1;
nodes = (
"709 1321 LINE SMOOTH",
"893 1321 OFFCURVE",
"1087 1061 OFFCURVE",
"1087 776 QCURVE SMOOTH",
"1087 586 OFFCURVE",
"999 301 OFFCURVE",
"831 143 OFFCURVE",
"707 143 QCURVE SMOOTH",
"639 143 LINE",
"639 1321 LINE"
);
}
);
width = 1630;
}
);
note = glyph39;
unicode = 0044;
},
{
glyphname = glyph40;
lastChange = "2021-04-16 11:22:00 +0000";
layers = (
{
layerId = "0DE963AB-769B-4021-B20D-45864FAF5663";
paths = (
{
closed = 1;
nodes = (
"1087 334 LINE",
"1046 334 LINE",
"1038 193 LINE SMOOTH",
"1034 109 OFFCURVE",
"993 51 OFFCURVE",
"913 51 QCURVE SMOOTH",
"362 51 LINE",
"362 741 LINE",
"862 741 LINE",
"862 793 LINE",
"362 793 LINE",
"362 1411 LINE",
"843 1411 LINE SMOOTH",
"923 1411 OFFCURVE",
"964 1354 OFFCURVE",
"968 1270 QCURVE SMOOTH",
"976 1128 LINE",
"1017 1128 LINE",
"1003 1462 LINE",
"102 1462 LINE",
"102 1421 LINE",
"190 1421 LINE SMOOTH",
"241 1421 OFFCURVE",
"290 1397 OFFCURVE",
"305 1319 OFFCURVE",
"305 1241 QCURVE SMOOTH",
"305 221 LINE SMOOTH",
"305 143 OFFCURVE",
"290 66 OFFCURVE",
"241 41 OFFCURVE",
"190 41 QCURVE SMOOTH",
"102 41 LINE",
"102 0 LINE",
"1073 0 LINE"
);
}
);
width = 1198;
},
{
layerId = "8C5547AF-2EE0-40C3-888E-C5581C9C595C";
paths = (
{
closed = 1;
nodes = (
"1143 348 LINE",
"1067 348 LINE",
"1055 236 LINE SMOOTH",
"1046 160 OFFCURVE",
"983 80 OFFCURVE",
"893 80 QCURVE SMOOTH",
"426 80 LINE",
"426 727 LINE",
"922 727 LINE",
"922 805 LINE",
"426 805 LINE",
"426 1382 LINE",
"833 1382 LINE SMOOTH",
"919 1382 OFFCURVE",
"981 1303 OFFCURVE",
"987 1227 QCURVE SMOOTH",
"997 1114 LINE",
"1073 1114 LINE",
"1061 1462 LINE",
"88 1462 LINE",
"88 1397 LINE",
"143 1397 LINE SMOOTH",
"215 1397 OFFCURVE",
"287 1341 OFFCURVE",
"287 1235 QCURVE SMOOTH",
"287 223 LINE SMOOTH",
"287 119 OFFCURVE",
"215 66 OFFCURVE",
"143 66 QCURVE SMOOTH",
"88 66 LINE",
"88 0 LINE",
"1128 0 LINE"
);
}
);
width = 1241;
},
{
layerId = "7FEA46FF-516C-4946-9F17-9EEA76F5F564";
paths = (
{
closed = 1;
nodes = (
"973 715 LINE",
"973 815 LINE",
"479 815 LINE",
"479 1360 LINE",
"823 1360 LINE SMOOTH",
"869 1360 OFFCURVE",
"934 1333 OFFCURVE",
"977 1287 OFFCURVE",
"1000 1226 OFFCURVE",
"1004 1192 QCURVE SMOOTH",
"1014 1104 LINE",
"1120 1104 LINE",
"1110 1462 LINE",
"78 1462 LINE",
"78 1376 LINE",
"104 1376 LINE SMOOTH",
"139 1376 OFFCURVE",
"200 1366 OFFCURVE",
"246 1335 OFFCURVE",
"272 1277 OFFCURVE",
"272 1229 QCURVE SMOOTH",
"272 223 LINE SMOOTH",
"272 178 OFFCURVE",
"245 123 OFFCURVE",
"199 95 OFFCURVE",
"138 86 OFFCURVE",
"104 86 QCURVE SMOOTH",
"78 86 LINE",
"78 0 LINE",
"1176 0 LINE",
"1190 358 LINE",
"1083 358 LINE",
"1069 270 LINE SMOOTH",
"1064 236 OFFCURVE",
"1038 175 OFFCURVE",
"992 129 OFFCURVE",
"923 102 OFFCURVE",
"874 102 QCURVE SMOOTH",
"479 102 LINE",
"479 715 LINE"
);
}
);
width = 1276;
},
{
layerId = "3CCD85FA-69E6-46C4-A32D-64775BF55ABF";
paths = (
{
closed = 1;
nodes = (
"1059 702 LINE",
"1059 825 LINE",
"573 825 LINE",
"573 1337 LINE",
"918 1337 LINE SMOOTH",
"981 1337 OFFCURVE",
"1041 1257 OFFCURVE",
"1049 1182 QCURVE SMOOTH",
"1059 1085 LINE",
"1202 1085 LINE",
"1194 1462 LINE",
"57 1462 LINE",
"57 1354 LINE",
"143 1354 LINE SMOOTH",
"166 1354 OFFCURVE",
"204 1345 OFFCURVE",
"232 1317 OFFCURVE",
"248 1265 OFFCURVE",
"248 1221 QCURVE SMOOTH",
"248 231 LINE SMOOTH",
"248 191 OFFCURVE",
"232 142 OFFCURVE",
"203 117 OFFCURVE",
"165 109 OFFCURVE",
"143 109 QCURVE SMOOTH",
"57 109 LINE",
"57 0 LINE",
"1257 0 LINE",
"1272 377 LINE",
"1130 377 LINE",
"1114 281 LINE SMOOTH",
"1109 247 OFFCURVE",
"1090 190 OFFCURVE",
"1058 148 OFFCURVE",
"1014 125 OFFCURVE",
"983 125 QCURVE SMOOTH",
"573 125 LINE",
"573 702 LINE"
);
}
);
width = 1337;
},
{
layerId = "6A9350D6-C757-41BD-9D0D-806F72644A83";
paths = (
{
closed = 1;
nodes = (
"1333 391 LINE",
"1165 391 LINE",
"1149 289 LINE SMOOTH",
"1139 221 OFFCURVE",
"1071 141 OFFCURVE",
"1006 141 QCURVE SMOOTH",
"639 141 LINE",
"639 694 LINE",
"1122 694 LINE",
"1122 834 LINE",
"639 834 LINE",
"639 1321 LINE",
"946 1321 LINE SMOOTH",
"1018 1321 OFFCURVE",
"1075 1255 OFFCURVE",
"1083 1174 QCURVE SMOOTH",
"1094 1071 LINE",
"1264 1071 LINE",
"1257 1462 LINE",
"43 1462 LINE",
"43 1337 LINE",
"143 1337 LINE SMOOTH",
"176 1337 OFFCURVE",
"231 1298 OFFCURVE",
"231 1227 QCURVE SMOOTH",
"231 225 LINE SMOOTH",
"231 182 OFFCURVE",
"188 125 OFFCURVE",
"147 125 QCURVE SMOOTH",
"43 125 LINE",
"43 0 LINE",
"1319 0 LINE"
);
}
);
width = 1382;
}
);
note = glyph40;
unicode = 0045;
},
{
glyphname = glyph41;
lastChange = "2021-04-16 11:22:00 +0000";
layers = (
{
layerId = "0DE963AB-769B-4021-B20D-45864FAF5663";
paths = (
{
closed = 1;
nodes = (
"620 41 LINE",
"477 41 LINE SMOOTH",
"426 41 OFFCURVE",
"376 66 OFFCURVE",
"362 143 OFFCURVE",
"362 221 QCURVE SMOOTH",
"362 692 LINE",
"866 692 LINE",
"866 743 LINE",
"362 743 LINE",
"362 1411 LINE",
"847 1411 LINE SMOOTH",
"927 1411 OFFCURVE",
"966 1354 OFFCURVE",
"970 1270 QCURVE SMOOTH",
"976 1128 LINE",
"1017 1128 LINE",
"1007 1462 LINE",
"102 1462 LINE",
"102 1421 LINE",
"190 1421 LINE SMOOTH",
"241 1421 OFFCURVE",
"290 1397 OFFCURVE",
"305 1319 OFFCURVE",
"305 1241 QCURVE SMOOTH",
"305 221 LINE SMOOTH",
"305 143 OFFCURVE",
"290 66 OFFCURVE",
"241 41 OFFCURVE",
"190 41 QCURVE SMOOTH",
"102 41 LINE",
"102 0 LINE",
"620 0 LINE"
);
}
);
width = 1126;
},
{
layerId = "8C5547AF-2EE0-40C3-888E-C5581C9C595C";
paths = (
{
closed = 1;
nodes = (
"672 66 LINE",
"569 66 LINE SMOOTH",
"498 66 OFFCURVE",
"426 121 OFFCURVE",
"426 227 QCURVE SMOOTH",
"426 678 LINE",
"924 678 LINE",
"924 758 LINE",
"426 758 LINE",
"426 1382 LINE",
"829 1382 LINE SMOOTH",
"917 1382 OFFCURVE",
"983 1303 OFFCURVE",
"989 1227 QCURVE SMOOTH",
"997 1114 LINE",
"1073 1114 LINE",
"1063 1462 LINE",
"88 1462 LINE",
"88 1397 LINE",
"143 1397 LINE SMOOTH",
"215 1397 OFFCURVE",
"287 1341 OFFCURVE",
"287 1239 QCURVE SMOOTH",
"287 223 LINE SMOOTH",
"287 119 OFFCURVE",
"215 66 OFFCURVE",
"143 66 QCURVE SMOOTH",
"88 66 LINE",
"88 0 LINE",
"672 0 LINE"
);
}
);
width = 1171;
},
{
layerId = "7FEA46FF-516C-4946-9F17-9EEA76F5F564";
paths = (
{
closed = 1;
nodes = (
"863 1360 OFFCURVE",
"931 1333 OFFCURVE",
"976 1288 OFFCURVE",
"1000 1227 OFFCURVE",
"1004 1192 QCURVE SMOOTH",
"1014 1104 LINE",
"1120 1104 LINE",
"1110 1462 LINE",
"78 1462 LINE",
"78 1376 LINE",
"104 1376 LINE SMOOTH",
"138 1376 OFFCURVE",
"199 1367 OFFCURVE",
"245 1337 OFFCURVE",
"272 1282 OFFCURVE",
"272 1237 QCURVE SMOOTH",
"272 223 LINE SMOOTH",
"272 178 OFFCURVE",
"245 123 OFFCURVE",
"199 95 OFFCURVE",
"138 86 OFFCURVE",
"104 86 QCURVE SMOOTH",
"78 86 LINE",
"78 0 LINE",
"715 0 LINE",
"715 86 LINE",
"647 86 LINE SMOOTH",
"613 86 OFFCURVE",
"551 96 OFFCURVE",
"506 127 OFFCURVE",
"479 185 OFFCURVE",
"479 233 QCURVE SMOOTH",
"479 668 LINE",
"973 668 LINE",
"973 768 LINE",
"479 768 LINE",
"479 1360 LINE",
"815 1360 LINE SMOOTH"
);
}
);
width = 1208;
},
{
layerId = "3CCD85FA-69E6-46C4-A32D-64775BF55ABF";
paths = (
{
closed = 1;
nodes = (
"1192 1462 LINE",
"57 1462 LINE",
"57 1354 LINE",
"143 1354 LINE SMOOTH",
"165 1354 OFFCURVE",
"203 1345 OFFCURVE",
"232 1319 OFFCURVE",
"248 1270 OFFCURVE",
"248 1229 QCURVE SMOOTH",
"248 231 LINE SMOOTH",
"248 191 OFFCURVE",
"232 142 OFFCURVE",
"203 117 OFFCURVE",
"165 109 OFFCURVE",
"143 109 QCURVE SMOOTH",
"57 109 LINE",
"57 0 LINE",
"805 0 LINE",
"805 109 LINE",
"678 109 LINE SMOOTH",
"656 109 OFFCURVE",
"616 118 OFFCURVE",
"588 146 OFFCURVE",
"571 198 OFFCURVE",
"571 242 QCURVE SMOOTH",
"571 657 LINE",
"1057 657 LINE",
"1057 778 LINE",
"571 778 LINE",
"571 1337 LINE",
"897 1337 LINE SMOOTH",
"960 1337 OFFCURVE",
"1039 1265 OFFCURVE",
"1049 1184 QCURVE SMOOTH",
"1059 1085 LINE",
"1202 1085 LINE"
);
}
);
width = 1272;
},
{
layerId = "6A9350D6-C757-41BD-9D0D-806F72644A83";
paths = (
{
closed = 1;
nodes = (
"872 125 LINE",
"750 125 LINE SMOOTH",
"688 125 OFFCURVE",
"639 180 OFFCURVE",
"639 225 QCURVE SMOOTH",
"639 649 LINE",
"1120 649 LINE",
"1120 786 LINE",
"639 786 LINE",
"639 1321 LINE",
"958 1321 LINE SMOOTH",
"997 1321 OFFCURVE",
"1073 1268 OFFCURVE",
"1083 1178 QCURVE SMOOTH",
"1094 1071 LINE",
"1264 1071 LINE",
"1253 1462 LINE",
"43 1462 LINE",
"43 1337 LINE",
"145 1337 LINE SMOOTH",
"180 1337 OFFCURVE",
"231 1288 OFFCURVE",
"231 1235 QCURVE SMOOTH",
"231 223 LINE SMOOTH",
"231 172 OFFCURVE",
"180 125 OFFCURVE",
"115 125 QCURVE SMOOTH",
"43 125 LINE",
"43 0 LINE",
"872 0 LINE"
);
}
);
width = 1318;
}
);
note = glyph41;
unicode = 0046;
},
{
glyphname = glyph42;
lastChange = "2021-04-16 11:22:00 +0000";
layers = (
{
layerId = "0DE963AB-769B-4021-B20D-45864FAF5663";
paths = (
{
closed = 1;
nodes = (
"1068 14 OFFCURVE",
"1150 53 QCURVE",
"1150 438 LINE SMOOTH",
"1150 516 OFFCURVE",
"1164 594 OFFCURVE",
"1214 618 OFFCURVE",
"1265 618 QCURVE SMOOTH",
"1304 618 LINE",
"1304 659 LINE",
"911 659 LINE",
"911 618 LINE",
"978 618 LINE SMOOTH",
"1029 618 OFFCURVE",
"1078 594 OFFCURVE",
"1093 516 OFFCURVE",
"1093 438 QCURVE SMOOTH",
"1093 84 LINE",
"1040 57 OFFCURVE",
"870 31 OFFCURVE",
"784 31 QCURVE SMOOTH",
"571 31 OFFCURVE",
"302 205 OFFCURVE",
"177 520 OFFCURVE",
"177 733 QCURVE SMOOTH",
"177 954 OFFCURVE",
"323 1266 OFFCURVE",
"587 1432 OFFCURVE",
"767 1432 QCURVE SMOOTH",
"902 1432 OFFCURVE",
"1052 1370 OFFCURVE",
"1111 1249 OFFCURVE",
"1111 1159 QCURVE",
"1154 1159 OFFCURVE",
"1154 1245 QCURVE SMOOTH",
"1154 1307 OFFCURVE",
"1083 1415 OFFCURVE",
"917 1483 OFFCURVE",
"775 1483 QCURVE SMOOTH",
"575 1483 OFFCURVE",
"280 1305 OFFCURVE",
"120 969 OFFCURVE",
"120 733 QCURVE SMOOTH",
"120 506 OFFCURVE",
"261 168 OFFCURVE",
"546 -20 OFFCURVE",
"763 -20 QCURVE SMOOTH",
"886 -20 OFFCURVE"
);
}
);
width = 1318;
},
{
layerId = "8C5547AF-2EE0-40C3-888E-C5581C9C595C";
paths = (
{
closed = 1;
nodes = (
"1124 20 OFFCURVE",
"1218 63 QCURVE",
"1218 440 LINE SMOOTH",
"1218 547 OFFCURVE",
"1279 602 OFFCURVE",
"1347 602 QCURVE SMOOTH",
"1369 602 LINE",
"1369 668 LINE",
"900 668 LINE",
"900 602 LINE",
"935 602 LINE SMOOTH",
"1007 602 OFFCURVE",
"1079 547 OFFCURVE",
"1079 444 QCURVE SMOOTH",
"1079 104 LINE",
"1031 86 OFFCURVE",
"892 66 OFFCURVE",
"823 66 QCURVE SMOOTH",
"624 66 OFFCURVE",
"380 225 OFFCURVE",
"268 524 OFFCURVE",
"268 733 QCURVE SMOOTH",
"268 1051 OFFCURVE",
"534 1401 OFFCURVE",
"798 1401 QCURVE SMOOTH",
"915 1401 OFFCURVE",
"1048 1329 OFFCURVE",
"1103 1208 OFFCURVE",
"1103 1133 QCURVE",
"1154 1133 OFFCURVE",
"1226 1194 OFFCURVE",
"1226 1249 QCURVE SMOOTH",
"1226 1343 OFFCURVE",
"1027 1483 OFFCURVE",
"806 1483 QCURVE SMOOTH",
"587 1483 OFFCURVE",
"280 1298 OFFCURVE",
"118 961 OFFCURVE",
"118 733 QCURVE SMOOTH",
"118 506 OFFCURVE",
"265 168 OFFCURVE",
"564 -20 OFFCURVE",
"794 -20 QCURVE SMOOTH",
"923 -20 OFFCURVE"
);
}
);
width = 1396;
},
{
layerId = "7FEA46FF-516C-4946-9F17-9EEA76F5F564";
paths = (
{
closed = 1;
nodes = (
"1171 26 OFFCURVE",
"1274 74 QCURVE",
"1274 442 LINE SMOOTH",
"1274 490 OFFCURVE",
"1296 549 OFFCURVE",
"1334 580 OFFCURVE",
"1386 590 OFFCURVE",
"1415 590 QCURVE SMOOTH",
"1423 590 LINE",
"1423 676 LINE",
"891 676 LINE",
"891 590 LINE",
"899 590 LINE SMOOTH",
"933 590 OFFCURVE",
"994 580 OFFCURVE",
"1040 551 OFFCURVE",
"1067 496 OFFCURVE",
"1067 451 QCURVE SMOOTH",
"1067 121 LINE",
"1024 108 OFFCURVE",
"913 96 OFFCURVE",
"854 96 QCURVE SMOOTH",
"714 96 OFFCURVE",
"520 180 OFFCURVE",
"398 342 OFFCURVE",
"344 580 OFFCURVE",
"344 733 QCURVE SMOOTH",
"344 887 OFFCURVE",
"396 1126 OFFCURVE",
"512 1289 OFFCURVE",
"695 1374 OFFCURVE",
"825 1374 QCURVE SMOOTH",
"900 1374 OFFCURVE",
"1004 1327 OFFCURVE",
"1068 1252 OFFCURVE",
"1096 1158 OFFCURVE",
"1096 1110 QCURVE",
"1136 1110 OFFCURVE",
"1205 1130 OFFCURVE",
"1256 1167 OFFCURVE",
"1286 1220 OFFCURVE",
"1286 1253 QCURVE SMOOTH",
"1286 1302 OFFCURVE",
"1230 1386 OFFCURVE",
"1117 1448 OFFCURVE",
"948 1483 OFFCURVE",
"834 1483 QCURVE SMOOTH",
"657 1483 OFFCURVE",
"389 1373 OFFCURVE",
"208 1175 OFFCURVE",
"117 899 OFFCURVE",
"117 733 QCURVE SMOOTH",
"117 564 OFFCURVE",
"203 286 OFFCURVE",
"378 88 OFFCURVE",
"643 -20 OFFCURVE",
"821 -20 QCURVE SMOOTH",
"953 -20 OFFCURVE"
);
}
);
width = 1462;
},
{
layerId = "3CCD85FA-69E6-46C4-A32D-64775BF55ABF";
paths = (
{
closed = 1;
nodes = (
"1250 35 OFFCURVE",
"1370 90 QCURVE",
"1370 426 LINE SMOOTH",
"1370 470 OFFCURVE",
"1384 529 OFFCURVE",
"1414 565 OFFCURVE",
"1460 580 OFFCURVE",
"1491 580 QCURVE SMOOTH",
"1518 580 LINE",
"1518 688 LINE",
"874 688 LINE",
"874 580 LINE",
"901 580 LINE SMOOTH",
"973 580 OFFCURVE",
"1047 516 OFFCURVE",
"1047 434 QCURVE SMOOTH",
"1047 133 LINE",
"1011 125 OFFCURVE",
"935 119 OFFCURVE",
"897 119 QCURVE SMOOTH",
"776 119 OFFCURVE",
"609 200 OFFCURVE",
"504 356 OFFCURVE",
"457 585 OFFCURVE",
"457 733 QCURVE SMOOTH",
"457 881 OFFCURVE",
"502 1112 OFFCURVE",
"601 1270 OFFCURVE",
"758 1352 OFFCURVE",
"870 1352 QCURVE SMOOTH",
"935 1352 OFFCURVE",
"1031 1311 OFFCURVE",
"1094 1237 OFFCURVE",
"1124 1133 OFFCURVE",
"1124 1071 QCURVE",
"1189 1071 OFFCURVE",
"1287 1098 OFFCURVE",
"1355 1146 OFFCURVE",
"1389 1209 OFFCURVE",
"1389 1245 QCURVE SMOOTH",
"1389 1295 OFFCURVE",
"1325 1382 OFFCURVE",
"1196 1446 OFFCURVE",
"1005 1483 OFFCURVE",
"877 1483 QCURVE SMOOTH",
"689 1483 OFFCURVE",
"403 1373 OFFCURVE",
"211 1175 OFFCURVE",
"113 899 OFFCURVE",
"113 733 QCURVE SMOOTH",
"113 564 OFFCURVE",
"205 286 OFFCURVE",
"393 88 OFFCURVE",
"676 -20 OFFCURVE",
"866 -20 QCURVE SMOOTH",
"1006 -20 OFFCURVE"
);
}
);
width = 1575;
},
{
layerId = "6A9350D6-C757-41BD-9D0D-806F72644A83";
paths = (
{
closed = 1;
nodes = (
"1310 41 OFFCURVE",
"1441 102 QCURVE",
"1441 414 LINE SMOOTH",
"1441 496 OFFCURVE",
"1482 571 OFFCURVE",
"1548 571 QCURVE SMOOTH",
"1566 571 LINE",
"1566 696 LINE",
"864 696 LINE",
"864 571 LINE",
"903 571 LINE SMOOTH",
"978 571 OFFCURVE",
"1032 498 OFFCURVE",
"1032 422 QCURVE SMOOTH",
"1032 141 LINE",
"974 135 OFFCURVE",
"929 135 QCURVE SMOOTH",
"716 135 OFFCURVE",
"540 444 OFFCURVE",
"540 733 QCURVE SMOOTH",
"540 1022 OFFCURVE",
"706 1335 OFFCURVE",
"905 1335 QCURVE SMOOTH",
"1019 1335 OFFCURVE",
"1146 1188 OFFCURVE",
"1146 1042 QCURVE",
"1310 1042 OFFCURVE",
"1464 1163 OFFCURVE",
"1464 1239 QCURVE SMOOTH",
"1464 1339 OFFCURVE",
"1183 1483 OFFCURVE",
"909 1483 QCURVE SMOOTH",
"647 1483 OFFCURVE",
"290 1292 OFFCURVE",
"110 954 OFFCURVE",
"110 733 QCURVE SMOOTH",
"110 506 OFFCURVE",
"284 168 OFFCURVE",
"634 -20 OFFCURVE",
"901 -20 QCURVE SMOOTH",
"1044 -20 OFFCURVE"
);
}
);
width = 1658;
}
);
note = glyph42;
unicode = 0047;
},
{
glyphname = glyph43;
lastChange = "2021-04-16 11:22:00 +0000";
layers = (
{
layerId = "0DE963AB-769B-4021-B20D-45864FAF5663";
paths = (
{
closed = 1;
nodes = (
"569 41 LINE",
"477 41 LINE SMOOTH",
"426 41 OFFCURVE",
"376 66 OFFCURVE",
"362 143 OFFCURVE",
"362 221 QCURVE SMOOTH",
"362 739 LINE",
"1196 739 LINE",
"1196 221 LINE SMOOTH",
"1196 143 OFFCURVE",
"1181 66 OFFCURVE",
"1132 41 OFFCURVE",
"1081 41 QCURVE SMOOTH",
"989 41 LINE",
"989 0 LINE",
"1456 0 LINE",
"1456 41 LINE",
"1368 41 LINE SMOOTH",
"1316 41 OFFCURVE",
"1267 66 OFFCURVE",
"1253 143 OFFCURVE",
"1253 221 QCURVE SMOOTH",
"1253 1241 LINE SMOOTH",
"1253 1319 OFFCURVE",
"1267 1397 OFFCURVE",
"1316 1421 OFFCURVE",
"1368 1421 QCURVE SMOOTH",
"1456 1421 LINE",
"1456 1462 LINE",
"989 1462 LINE",
"989 1421 LINE",
"1081 1421 LINE SMOOTH",
"1132 1421 OFFCURVE",
"1181 1397 OFFCURVE",
"1196 1319 OFFCURVE",
"1196 1241 QCURVE SMOOTH",
"1196 791 LINE",
"362 791 LINE",
"362 1241 LINE SMOOTH",
"362 1319 OFFCURVE",
"376 1397 OFFCURVE",
"426 1421 OFFCURVE",
"477 1421 QCURVE SMOOTH",
"569 1421 LINE",
"569 1462 LINE",
"102 1462 LINE",
"102 1421 LINE",
"190 1421 LINE SMOOTH",
"241 1421 OFFCURVE",
"290 1397 OFFCURVE",
"305 1319 OFFCURVE",
"305 1241 QCURVE SMOOTH",
"305 221 LINE SMOOTH",
"305 143 OFFCURVE",
"290 66 OFFCURVE",
"241 41 OFFCURVE",
"190 41 QCURVE SMOOTH",
"102 41 LINE",
"102 0 LINE",
"569 0 LINE"
);
}
);
width = 1558;
},
{
layerId = "8C5547AF-2EE0-40C3-888E-C5581C9C595C";
paths = (
{
closed = 1;
nodes = (
"627 66 LINE",
"569 66 LINE SMOOTH",
"498 66 OFFCURVE",
"426 121 OFFCURVE",
"426 227 QCURVE SMOOTH",
"426 725 LINE",
"1167 725 LINE",
"1167 227 LINE SMOOTH",
"1167 121 OFFCURVE",
"1096 66 OFFCURVE",
"1024 66 QCURVE SMOOTH",
"969 66 LINE",
"969 0 LINE",
"1505 0 LINE",
"1505 66 LINE",
"1450 66 LINE SMOOTH",
"1380 66 OFFCURVE",
"1307 119 OFFCURVE",
"1307 223 QCURVE SMOOTH",
"1307 1235 LINE SMOOTH",
"1307 1341 OFFCURVE",
"1378 1397 OFFCURVE",
"1450 1397 QCURVE SMOOTH",
"1505 1397 LINE",
"1505 1462 LINE",
"969 1462 LINE",
"969 1397 LINE",
"1024 1397 LINE SMOOTH",
"1096 1397 OFFCURVE",
"1167 1341 OFFCURVE",
"1167 1235 QCURVE SMOOTH",
"1167 805 LINE",
"426 805 LINE",
"426 1235 LINE SMOOTH",
"426 1341 OFFCURVE",
"498 1397 OFFCURVE",
"569 1397 QCURVE SMOOTH",
"627 1397 LINE",
"627 1462 LINE",
"88 1462 LINE",
"88 1397 LINE",
"143 1397 LINE SMOOTH",
"215 1397 OFFCURVE",
"287 1341 OFFCURVE",
"287 1239 QCURVE SMOOTH",
"287 227 LINE SMOOTH",
"287 121 OFFCURVE",
"215 66 OFFCURVE",
"143 66 QCURVE SMOOTH",
"88 66 LINE",
"88 0 LINE",
"627 0 LINE"
);
}
);
width = 1593;
},
{
layerId = "7FEA46FF-516C-4946-9F17-9EEA76F5F564";
paths = (
{
closed = 1;
nodes = (
"1546 86 LINE",
"1520 86 LINE SMOOTH",
"1486 86 OFFCURVE",
"1425 95 OFFCURVE",
"1379 123 OFFCURVE",
"1352 178 OFFCURVE",
"1352 223 QCURVE SMOOTH",
"1352 1229 LINE SMOOTH",
"1352 1277 OFFCURVE",
"1378 1335 OFFCURVE",
"1424 1366 OFFCURVE",
"1485 1376 OFFCURVE",
"1520 1376 QCURVE SMOOTH",
"1546 1376 LINE",
"1546 1462 LINE",
"950 1462 LINE",
"950 1376 LINE",
"977 1376 LINE SMOOTH",
"1012 1376 OFFCURVE",
"1073 1366 OFFCURVE",
"1118 1335 OFFCURVE",
"1145 1277 OFFCURVE",
"1145 1229 QCURVE SMOOTH",
"1145 815 LINE",
"479 815 LINE",
"479 1229 LINE SMOOTH",
"479 1277 OFFCURVE",
"506 1335 OFFCURVE",
"551 1366 OFFCURVE",
"613 1376 OFFCURVE",
"647 1376 QCURVE SMOOTH",
"674 1376 LINE",
"674 1462 LINE",
"78 1462 LINE",
"78 1376 LINE",
"104 1376 LINE SMOOTH",
"138 1376 OFFCURVE",
"199 1367 OFFCURVE",
"245 1337 OFFCURVE",
"272 1282 OFFCURVE",
"272 1237 QCURVE SMOOTH",
"272 233 LINE SMOOTH",
"272 185 OFFCURVE",
"246 127 OFFCURVE",
"200 96 OFFCURVE",
"139 86 OFFCURVE",
"104 86 QCURVE SMOOTH",
"78 86 LINE",
"78 0 LINE",
"674 0 LINE",
"674 86 LINE",
"647 86 LINE SMOOTH",
"613 86 OFFCURVE",
"551 96 OFFCURVE",
"506 127 OFFCURVE",
"479 185 OFFCURVE",
"479 233 QCURVE SMOOTH",
"479 713 LINE",
"1145 713 LINE",
"1145 233 LINE SMOOTH",
"1145 185 OFFCURVE",
"1118 127 OFFCURVE",
"1073 96 OFFCURVE",
"1012 86 OFFCURVE",
"977 86 QCURVE SMOOTH",
"950 86 LINE",
"950 0 LINE",
"1546 0 LINE"
);
}
);
width = 1624;
},
{
layerId = "3CCD85FA-69E6-46C4-A32D-64775BF55ABF";
paths = (
{
closed = 1;
nodes = (
"1620 109 LINE",
"1534 109 LINE SMOOTH",
"1513 109 OFFCURVE",
"1476 117 OFFCURVE",
"1447 142 OFFCURVE",
"1430 191 OFFCURVE",
"1430 231 QCURVE SMOOTH",
"1430 1220 LINE SMOOTH",
"1430 1264 OFFCURVE",
"1446 1316 OFFCURVE",
"1475 1344 OFFCURVE",
"1513 1353 OFFCURVE",
"1534 1353 QCURVE SMOOTH",
"1620 1353 LINE",
"1620 1462 LINE",
"913 1462 LINE",
"913 1353 LINE",
"1001 1353 LINE SMOOTH",
"1023 1353 OFFCURVE",
"1061 1344 OFFCURVE",
"1090 1316 OFFCURVE",
"1106 1264 OFFCURVE",
"1106 1220 QCURVE SMOOTH",
"1106 825 LINE",
"571 825 LINE",
"571 1220 LINE SMOOTH",
"571 1264 OFFCURVE",
"588 1316 OFFCURVE",
"616 1344 OFFCURVE",
"654 1353 OFFCURVE",
"676 1353 QCURVE SMOOTH",
"764 1353 LINE",
"764 1462 LINE",
"57 1462 LINE",
"57 1353 LINE",
"143 1353 LINE SMOOTH",
"164 1353 OFFCURVE",
"202 1344 OFFCURVE",
"231 1318 OFFCURVE",
"248 1269 OFFCURVE",
"248 1228 QCURVE SMOOTH",
"248 242 LINE SMOOTH",
"248 198 OFFCURVE",
"232 146 OFFCURVE",
"203 118 OFFCURVE",
"165 109 OFFCURVE",
"143 109 QCURVE SMOOTH",
"57 109 LINE",
"57 0 LINE",
"764 0 LINE",
"764 109 LINE",
"676 109 LINE SMOOTH",
"654 109 OFFCURVE",
"616 118 OFFCURVE",
"588 146 OFFCURVE",
"571 198 OFFCURVE",
"571 242 QCURVE SMOOTH",
"571 700 LINE",
"1106 700 LINE",
"1106 242 LINE SMOOTH",
"1106 198 OFFCURVE",
"1090 146 OFFCURVE",
"1061 118 OFFCURVE",
"1023 109 OFFCURVE",
"1001 109 QCURVE SMOOTH",
"913 109 LINE",
"913 0 LINE",
"1620 0 LINE"
);
}
);
width = 1677;
},
{
layerId = "6A9350D6-C757-41BD-9D0D-806F72644A83";
paths = (
{
closed = 1;
nodes = (
"791 125 LINE",
"715 125 LINE SMOOTH",
"678 125 OFFCURVE",
"641 186 OFFCURVE",
"641 227 QCURVE SMOOTH",
"641 692 LINE",
"1077 692 LINE",
"1077 240 LINE SMOOTH",
"1077 188 OFFCURVE",
"1036 125 OFFCURVE",
"993 125 QCURVE SMOOTH",
"928 125 LINE",
"928 0 LINE",
"1675 0 LINE",
"1675 125 LINE",
"1567 125 LINE SMOOTH",
"1532 125 OFFCURVE",
"1487 184 OFFCURVE",
"1487 231 QCURVE SMOOTH",
"1487 1233 LINE SMOOTH",
"1487 1337 OFFCURVE",
"1567 1337 QCURVE SMOOTH",
"1675 1337 LINE",
"1675 1462 LINE",
"928 1462 LINE",
"928 1337 LINE",
"991 1337 LINE SMOOTH",
"1077 1337 OFFCURVE",
"1077 1233 QCURVE SMOOTH",
"1077 834 LINE",
"641 834 LINE",
"641 1239 LINE SMOOTH",
"641 1337 OFFCURVE",
"715 1337 QCURVE SMOOTH",
"791 1337 LINE",
"791 1462 LINE",
"43 1462 LINE",
"43 1337 LINE",
"133 1337 LINE SMOOTH",
"174 1337 OFFCURVE",
"231 1284 OFFCURVE",
"231 1229 QCURVE SMOOTH",
"231 227 LINE SMOOTH",
"231 186 OFFCURVE",
"186 125 OFFCURVE",
"152 125 QCURVE SMOOTH",
"43 125 LINE",
"43 0 LINE",
"791 0 LINE"
);
}
);
width = 1716;
}
);
note = glyph43;
unicode = 0048;
},
{
glyphname = glyph44;
lastChange = "2021-04-16 11:22:00 +0000";
layers = (
{
layerId = "0DE963AB-769B-4021-B20D-45864FAF5663";
paths = (
{
closed = 1;
nodes = (
"559 41 LINE",
"477 41 LINE SMOOTH",
"426 41 OFFCURVE",
"376 66 OFFCURVE",
"362 143 OFFCURVE",
"362 221 QCURVE SMOOTH",
"362 1241 LINE SMOOTH",
"362 1319 OFFCURVE",
"376 1397 OFFCURVE",
"426 1421 OFFCURVE",
"477 1421 QCURVE SMOOTH",
"559 1421 LINE",
"559 1462 LINE",
"102 1462 LINE",
"102 1421 LINE",
"190 1421 LINE SMOOTH",
"241 1421 OFFCURVE",
"290 1397 OFFCURVE",
"305 1319 OFFCURVE",
"305 1241 QCURVE SMOOTH",
"305 221 LINE SMOOTH",
"305 143 OFFCURVE",
"290 66 OFFCURVE",
"241 41 OFFCURVE",
"190 41 QCURVE SMOOTH",
"102 41 LINE",
"102 0 LINE",
"559 0 LINE"
);
}
);
width = 665;
},
{
layerId = "8C5547AF-2EE0-40C3-888E-C5581C9C595C";
paths = (
{
closed = 1;
nodes = (
"623 66 LINE",
"569 66 LINE SMOOTH",
"498 66 OFFCURVE",
"426 121 OFFCURVE",
"426 227 QCURVE SMOOTH",
"426 1235 LINE SMOOTH",
"426 1341 OFFCURVE",
"498 1397 OFFCURVE",
"569 1397 QCURVE SMOOTH",
"623 1397 LINE",
"623 1462 LINE",
"88 1462 LINE",
"88 1397 LINE",
"143 1397 LINE SMOOTH",
"215 1397 OFFCURVE",
"287 1341 OFFCURVE",
"287 1235 QCURVE SMOOTH",
"287 227 LINE SMOOTH",
"287 121 OFFCURVE",
"215 66 OFFCURVE",
"143 66 QCURVE SMOOTH",
"88 66 LINE",
"88 0 LINE",
"623 0 LINE"
);
}
);
width = 712;
},
{
layerId = "7FEA46FF-516C-4946-9F17-9EEA76F5F564";
paths = (
{
closed = 1;
nodes = (
"674 86 LINE",
"647 86 LINE SMOOTH",
"613 86 OFFCURVE",
"551 96 OFFCURVE",
"506 127 OFFCURVE",
"479 185 OFFCURVE",
"479 233 QCURVE SMOOTH",
"479 1229 LINE SMOOTH",
"479 1277 OFFCURVE",
"506 1335 OFFCURVE",
"551 1366 OFFCURVE",
"613 1376 OFFCURVE",
"647 1376 QCURVE SMOOTH",
"674 1376 LINE",
"674 1462 LINE",
"78 1462 LINE",
"78 1376 LINE",
"104 1376 LINE SMOOTH",
"139 1376 OFFCURVE",
"200 1366 OFFCURVE",
"246 1335 OFFCURVE",
"272 1277 OFFCURVE",
"272 1229 QCURVE SMOOTH",
"272 233 LINE SMOOTH",
"272 185 OFFCURVE",
"246 127 OFFCURVE",
"200 96 OFFCURVE",
"139 86 OFFCURVE",
"104 86 QCURVE SMOOTH",
"78 86 LINE",
"78 0 LINE",
"674 0 LINE"
);
}
);
width = 752;
},
{
layerId = "3CCD85FA-69E6-46C4-A32D-64775BF55ABF";
paths = (
{
closed = 1;
nodes = (
"764 109 LINE",
"678 109 LINE SMOOTH",
"656 109 OFFCURVE",
"617 118 OFFCURVE",
"589 146 OFFCURVE",
"573 198 OFFCURVE",
"573 242 QCURVE SMOOTH",
"573 1220 LINE SMOOTH",
"573 1264 OFFCURVE",
"589 1316 OFFCURVE",
"617 1344 OFFCURVE",
"656 1353 OFFCURVE",
"678 1353 QCURVE SMOOTH",
"764 1353 LINE",
"764 1462 LINE",
"57 1462 LINE",
"57 1353 LINE",
"143 1353 LINE SMOOTH",
"166 1353 OFFCURVE",
"204 1344 OFFCURVE",
"232 1316 OFFCURVE",
"248 1264 OFFCURVE",
"248 1220 QCURVE SMOOTH",
"248 242 LINE SMOOTH",
"248 198 OFFCURVE",
"232 146 OFFCURVE",
"204 118 OFFCURVE",
"166 109 OFFCURVE",
"143 109 QCURVE SMOOTH",
"57 109 LINE",
"57 0 LINE",
"764 0 LINE"
);
}
);
width = 821;
},
{
layerId = "6A9350D6-C757-41BD-9D0D-806F72644A83";
paths = (
{
closed = 1;
nodes = (
"831 125 LINE",
"719 125 LINE SMOOTH",
"688 125 OFFCURVE",
"641 180 OFFCURVE",
"641 225 QCURVE SMOOTH",
"641 1227 LINE SMOOTH",
"641 1337 OFFCURVE",
"719 1337 QCURVE SMOOTH",
"831 1337 LINE",
"831 1462 LINE",
"43 1462 LINE",
"43 1337 LINE",
"152 1337 LINE SMOOTH",
"180 1337 OFFCURVE",
"231 1284 OFFCURVE",
"231 1229 QCURVE SMOOTH",
"231 221 LINE SMOOTH",
"231 176 OFFCURVE",
"180 125 OFFCURVE",
"152 125 QCURVE SMOOTH",
"43 125 LINE",
"43 0 LINE",
"831 0 LINE"
);
}
);
width = 872;
}
);
note = glyph44;
unicode = 0049;
},
{
glyphname = glyph45;
lastChange = "2021-04-16 11:22:00 +0000";
layers = (
{
layerId = "0DE963AB-769B-4021-B20D-45864FAF5663";
paths = (
{
closed = 1;
nodes = (
"186 -492 OFFCURVE",
"340 -397 OFFCURVE",
"403 -195 OFFCURVE",
"403 -33 QCURVE SMOOTH",
"403 1241 LINE SMOOTH",
"403 1319 OFFCURVE",
"418 1397 OFFCURVE",
"467 1421 OFFCURVE",
"518 1421 QCURVE SMOOTH",
"604 1421 LINE",
"604 1462 LINE",
"147 1462 LINE",
"147 1421 LINE",
"231 1421 LINE SMOOTH",
"283 1421 OFFCURVE",
"332 1397 OFFCURVE",
"346 1319 OFFCURVE",
"346 1241 QCURVE SMOOTH",
"346 -35 LINE SMOOTH",
"346 -244 OFFCURVE",
"229 -440 OFFCURVE",
"61 -440 QCURVE SMOOTH",
"45 -440 LINE",
"45 -492 LINE",
"51 -492 LINE SMOOTH"
);
}
);
width = 702;
},
{
layerId = "8C5547AF-2EE0-40C3-888E-C5581C9C595C";
paths = (
{
closed = 1;
nodes = (
"229 -492 OFFCURVE",
"444 -285 OFFCURVE",
"444 -25 QCURVE SMOOTH",
"444 1235 LINE SMOOTH",
"444 1341 OFFCURVE",
"516 1397 OFFCURVE",
"588 1397 QCURVE SMOOTH",
"643 1397 LINE",
"643 1462 LINE",
"108 1462 LINE",
"108 1397 LINE",
"162 1397 LINE SMOOTH",
"233 1397 OFFCURVE",
"305 1341 OFFCURVE",
"305 1239 QCURVE SMOOTH",
"305 -27 LINE SMOOTH",
"305 -238 OFFCURVE",
"174 -416 OFFCURVE",
"26 -416 QCURVE SMOOTH",
"8 -416 LINE",
"8 -492 LINE",
"31 -492 LINE SMOOTH"
);
}
);
width = 718;
},
{
layerId = "7FEA46FF-516C-4946-9F17-9EEA76F5F564";
paths = (
{
closed = 1;
nodes = (
"12 -492 LINE SMOOTH",
"110 -492 OFFCURVE",
"281 -446 OFFCURVE",
"407 -337 OFFCURVE",
"479 -154 OFFCURVE",
"479 -16 QCURVE SMOOTH",
"479 1229 LINE SMOOTH",
"479 1277 OFFCURVE",
"506 1335 OFFCURVE",
"551 1366 OFFCURVE",
"613 1376 OFFCURVE",
"647 1376 QCURVE SMOOTH",
"674 1376 LINE",
"674 1462 LINE",
"78 1462 LINE",
"78 1376 LINE",
"104 1376 LINE SMOOTH",
"138 1376 OFFCURVE",
"199 1367 OFFCURVE",
"245 1337 OFFCURVE",
"272 1282 OFFCURVE",
"272 1237 QCURVE SMOOTH",
"272 -18 LINE SMOOTH",
"272 -126 OFFCURVE",
"235 -271 OFFCURVE",
"165 -358 OFFCURVE",
"62 -395 OFFCURVE",
"-4 -395 QCURVE SMOOTH",
"-23 -395 LINE",
"-23 -492 LINE"
);
}
);
width = 731;
},
{
layerId = "3CCD85FA-69E6-46C4-A32D-64775BF55ABF";
paths = (
{
closed = 1;
nodes = (
"25 1462 LINE",
"25 1354 LINE",
"111 1354 LINE SMOOTH",
"132 1354 OFFCURVE",
"170 1345 OFFCURVE",
"199 1319 OFFCURVE",
"215 1270 OFFCURVE",
"215 1229 QCURVE SMOOTH",
"215 -6 LINE SMOOTH",
"215 -109 OFFCURVE",
"171 -250 OFFCURVE",
"99 -336 OFFCURVE",
"6 -373 OFFCURVE",
"-43 -373 QCURVE SMOOTH",
"-80 -373 LINE",
"-80 -492 LINE",
"-6 -492 LINE SMOOTH",
"64 -492 OFFCURVE",
"199 -471 OFFCURVE",
"320 -425 OFFCURVE",
"423 -350 OFFCURVE",
"497 -241 OFFCURVE",
"539 -97 OFFCURVE",
"539 -4 QCURVE SMOOTH",
"539 1221 LINE SMOOTH",
"539 1265 OFFCURVE",
"556 1317 OFFCURVE",
"584 1345 OFFCURVE",
"623 1354 OFFCURVE",
"645 1354 QCURVE SMOOTH",
"731 1354 LINE",
"731 1462 LINE"
);
}
);
width = 754;
},
{
layerId = "6A9350D6-C757-41BD-9D0D-806F72644A83";
paths = (
{
closed = 1;
nodes = (
"158 -492 OFFCURVE",
"371 -440 OFFCURVE",
"545 -326 OFFCURVE",
"650 -135 OFFCURVE",
"650 4 QCURVE SMOOTH",
"650 1231 LINE SMOOTH",
"650 1284 OFFCURVE",
"705 1337 OFFCURVE",
"731 1337 QCURVE SMOOTH",
"840 1337 LINE",
"840 1462 LINE",
"51 1462 LINE",
"51 1337 LINE",
"162 1337 LINE SMOOTH",
"187 1337 OFFCURVE",
"240 1286 OFFCURVE",
"240 1233 QCURVE SMOOTH",
"240 2 LINE SMOOTH",
"240 -129 OFFCURVE",
"158 -287 OFFCURVE",
"43 -356 OFFCURVE",
"-6 -356 QCURVE SMOOTH",
"-55 -356 LINE",
"-55 -492 LINE",
"47 -492 LINE SMOOTH"
);
}
);
width = 870;
}
);
note = glyph45;
unicode = 004A;
},
{
glyphname = glyph46;
lastChange = "2021-04-16 11:22:00 +0000";
layers = (
{
layerId = "0DE963AB-769B-4021-B20D-45864FAF5663";
paths = (
{
closed = 1;
nodes = (
"569 41 LINE",
"477 41 LINE SMOOTH",
"426 41 OFFCURVE",
"376 66 OFFCURVE",
"362 143 OFFCURVE",
"362 221 QCURVE SMOOTH",
"362 451 LINE",
"639 782 LINE",
"1116 213 LINE SMOOTH",
"1192 123 OFFCURVE",
"1280 31 OFFCURVE",
"1347 0 OFFCURVE",
"1392 0 QCURVE SMOOTH",
"1405 0 LINE",
"1405 51 LINE",
"1400 51 LINE SMOOTH",
"1374 51 OFFCURVE",
"1319 78 OFFCURVE",
"1245 147 OFFCURVE",
"1187 217 QCURVE SMOOTH",
"677 825 LINE",
"1024 1235 LINE SMOOTH",
"1077 1298 OFFCURVE",
"1146 1380 OFFCURVE",
"1216 1421 OFFCURVE",
"1269 1421 QCURVE",
"1269 1462 LINE",
"948 1462 LINE",
"948 1421 LINE",
"1005 1421 OFFCURVE",
"1060 1413 OFFCURVE",
"1060 1393 QCURVE SMOOTH",
"1060 1376 OFFCURVE",
"1040 1341 OFFCURVE",
"987 1276 OFFCURVE",
"936 1214 QCURVE SMOOTH",
"362 530 LINE",
"362 1241 LINE SMOOTH",
"362 1319 OFFCURVE",
"376 1397 OFFCURVE",
"426 1421 OFFCURVE",
"477 1421 QCURVE SMOOTH",
"565 1421 LINE",
"565 1462 LINE",
"102 1462 LINE",
"102 1421 LINE",
"190 1421 LINE SMOOTH",
"241 1421 OFFCURVE",
"290 1397 OFFCURVE",
"305 1319 OFFCURVE",
"305 1241 QCURVE SMOOTH",
"305 221 LINE SMOOTH",
"305 143 OFFCURVE",
"290 66 OFFCURVE",
"241 41 OFFCURVE",
"190 41 QCURVE SMOOTH",
"102 41 LINE",
"102 0 LINE",
"569 0 LINE"
);
}
);
width = 1347;
},
{
layerId = "8C5547AF-2EE0-40C3-888E-C5581C9C595C";
paths = (
{
closed = 1;
nodes = (
"627 66 LINE",
"569 66 LINE SMOOTH",
"498 66 OFFCURVE",
"426 121 OFFCURVE",
"426 227 QCURVE SMOOTH",
"426 504 LINE",
"647 731 LINE",
"1057 197 LINE SMOOTH",
"1118 117 OFFCURVE",
"1208 31 OFFCURVE",
"1321 0 OFFCURVE",
"1415 0 QCURVE SMOOTH",
"1434 0 LINE",
"1434 70 LINE",
"1429 70 LINE SMOOTH",
"1380 70 OFFCURVE",
"1282 145 OFFCURVE",
"1210 236 QCURVE SMOOTH",
"743 840 LINE",
"1063 1208 LINE SMOOTH",
"1143 1300 OFFCURVE",
"1247 1397 OFFCURVE",
"1323 1399 QCURVE",
"1323 1462 LINE",
"930 1462 LINE",
"930 1399 LINE",
"983 1399 OFFCURVE",
"1036 1384 OFFCURVE",
"1036 1360 QCURVE SMOOTH",
"1036 1333 OFFCURVE",
"987 1253 OFFCURVE",
"917 1171 QCURVE SMOOTH",
"426 596 LINE",
"426 1235 LINE SMOOTH",
"426 1341 OFFCURVE",
"498 1397 OFFCURVE",
"569 1397 QCURVE SMOOTH",
"625 1397 LINE",
"625 1462 LINE",
"88 1462 LINE",
"88 1397 LINE",
"143 1397 LINE SMOOTH",
"215 1397 OFFCURVE",
"287 1341 OFFCURVE",
"287 1239 QCURVE SMOOTH",
"287 223 LINE SMOOTH",
"287 119 OFFCURVE",
"215 66 OFFCURVE",
"143 66 QCURVE SMOOTH",
"88 66 LINE",
"88 0 LINE",
"627 0 LINE"
);
}
);
width = 1394;
},
{
layerId = "7FEA46FF-516C-4946-9F17-9EEA76F5F564";
paths = (
{
closed = 1;
nodes = (
"479 1229 LINE SMOOTH",
"479 1277 OFFCURVE",
"506 1335 OFFCURVE",
"551 1366 OFFCURVE",
"613 1376 OFFCURVE",
"647 1376 QCURVE SMOOTH",
"674 1376 LINE",
"674 1462 LINE",
"78 1462 LINE",
"78 1376 LINE",
"104 1376 LINE SMOOTH",
"138 1376 OFFCURVE",
"199 1367 OFFCURVE",
"245 1337 OFFCURVE",
"272 1282 OFFCURVE",
"272 1237 QCURVE SMOOTH",
"272 223 LINE SMOOTH",
"272 178 OFFCURVE",
"245 123 OFFCURVE",
"199 95 OFFCURVE",
"138 86 OFFCURVE",
"104 86 QCURVE SMOOTH",
"78 86 LINE",
"78 0 LINE",
"674 0 LINE",
"674 86 LINE",
"647 86 LINE SMOOTH",
"613 86 OFFCURVE",
"551 96 OFFCURVE",
"506 127 OFFCURVE",
"479 185 OFFCURVE",
"479 233 QCURVE SMOOTH",
"479 549 LINE",
"653 690 LINE",
"1006 184 LINE SMOOTH",
"1044 129 OFFCURVE",
"1111 58 OFFCURVE",
"1201 16 OFFCURVE",
"1333 0 OFFCURVE",
"1436 0 QCURVE SMOOTH",
"1458 0 LINE",
"1458 86 LINE",
"1454 86 LINE SMOOTH",
"1397 86 OFFCURVE",
"1288 169 OFFCURVE",
"1229 250 QCURVE SMOOTH",
"797 852 LINE",
"1094 1186 LINE SMOOTH",
"1134 1231 OFFCURVE",
"1203 1302 OFFCURVE",
"1268 1351 OFFCURVE",
"1333 1378 OFFCURVE",
"1368 1378 QCURVE",
"1368 1462 LINE",
"915 1462 LINE",
"915 1378 LINE",
"966 1378 OFFCURVE",
"1016 1359 OFFCURVE",
"1016 1333 QCURVE SMOOTH",
"1016 1318 OFFCURVE",
"1005 1282 OFFCURVE",
"980 1234 OFFCURVE",
"936 1175 OFFCURVE",
"903 1137 QCURVE SMOOTH",
"479 651 LINE"
);
}
);
width = 1434;
},
{
layerId = "3CCD85FA-69E6-46C4-A32D-64775BF55ABF";
paths = (
{
closed = 1;
nodes = (
"571 1221 LINE SMOOTH",
"571 1265 OFFCURVE",
"588 1317 OFFCURVE",
"616 1345 OFFCURVE",
"656 1354 OFFCURVE",
"678 1354 QCURVE SMOOTH",
"764 1354 LINE",
"764 1462 LINE",
"57 1462 LINE",
"57 1354 LINE",
"143 1354 LINE SMOOTH",
"165 1354 OFFCURVE",
"203 1345 OFFCURVE",
"232 1319 OFFCURVE",
"248 1270 OFFCURVE",
"248 1229 QCURVE SMOOTH",
"248 231 LINE SMOOTH",
"248 191 OFFCURVE",
"232 142 OFFCURVE",
"203 117 OFFCURVE",
"165 109 OFFCURVE",
"143 109 QCURVE SMOOTH",
"57 109 LINE",
"57 0 LINE",
"764 0 LINE",
"764 109 LINE",
"678 109 LINE SMOOTH",
"656 109 OFFCURVE",
"616 118 OFFCURVE",
"588 146 OFFCURVE",
"571 198 OFFCURVE",
"571 242 QCURVE SMOOTH",
"571 588 LINE",
"662 659 LINE",
"938 188 LINE SMOOTH",
"957 156 OFFCURVE",
"996 103 OFFCURVE",
"1044 61 OFFCURVE",
"1108 30 OFFCURVE",
"1197 10 OFFCURVE",
"1315 0 OFFCURVE",
"1393 0 QCURVE SMOOTH",
"1503 0 LINE",
"1503 109 LINE",
"1495 109 LINE SMOOTH",
"1461 109 OFFCURVE",
"1403 125 OFFCURVE",
"1347 163 OFFCURVE",
"1292 226 OFFCURVE",
"1262 274 QCURVE SMOOTH",
"881 879 LINE",
"1151 1176 LINE SMOOTH",
"1187 1216 OFFCURVE",
"1257 1282 OFFCURVE",
"1329 1330 OFFCURVE",
"1404 1356 OFFCURVE",
"1446 1356 QCURVE",
"1446 1462 LINE",
"891 1462 LINE",
"891 1356 LINE",
"954 1356 OFFCURVE",
"1006 1330 OFFCURVE",
"1006 1296 QCURVE SMOOTH",
"1006 1275 OFFCURVE",
"994 1231 OFFCURVE",
"967 1182 OFFCURVE",
"922 1125 OFFCURVE",
"889 1090 QCURVE SMOOTH",
"571 743 LINE"
);
}
);
width = 1503;
},
{
layerId = "6A9350D6-C757-41BD-9D0D-806F72644A83";
paths = (
{
closed = 1;
nodes = (
"791 125 LINE",
"741 125 LINE SMOOTH",
"700 125 OFFCURVE",
"641 176 OFFCURVE",
"641 223 QCURVE SMOOTH",
"641 596 LINE",
"686 625 LINE",
"903 268 LINE SMOOTH",
"950 190 OFFCURVE",
"1036 88 OFFCURVE",
"1143 27 OFFCURVE",
"1292 0 OFFCURVE",
"1403 0 QCURVE SMOOTH",
"1599 0 LINE",
"1599 125 LINE",
"1587 125 LINE SMOOTH",
"1540 125 OFFCURVE",
"1470 158 OFFCURVE",
"1403 236 OFFCURVE",
"1356 305 QCURVE SMOOTH",
"956 891 LINE",
"1227 1167 LINE SMOOTH",
"1296 1239 OFFCURVE",
"1444 1339 OFFCURVE",
"1536 1339 QCURVE",
"1536 1462 LINE",
"915 1462 LINE",
"915 1339 LINE",
"987 1339 OFFCURVE",
"1042 1307 OFFCURVE",
"1042 1268 QCURVE SMOOTH",
"1042 1214 OFFCURVE",
"979 1116 OFFCURVE",
"915 1047 QCURVE SMOOTH",
"641 741 LINE",
"641 1239 LINE SMOOTH",
"641 1337 OFFCURVE",
"721 1337 QCURVE SMOOTH",
"791 1337 LINE",
"791 1462 LINE",
"43 1462 LINE",
"43 1337 LINE",
"143 1337 LINE SMOOTH",
"182 1337 OFFCURVE",
"231 1286 OFFCURVE",
"231 1241 QCURVE SMOOTH",
"231 227 LINE SMOOTH",
"231 176 OFFCURVE",
"172 125 OFFCURVE",
"131 125 QCURVE SMOOTH",
"43 125 LINE",
"43 0 LINE",
"791 0 LINE"
);
}
);
width = 1599;
}
);
note = glyph46;
unicode = 004B;
},
{
glyphname = glyph47;
lastChange = "2021-04-16 11:22:00 +0000";
layers = (
{
layerId = "0DE963AB-769B-4021-B20D-45864FAF5663";
paths = (
{
closed = 1;
nodes = (
"1087 420 LINE",
"1046 420 LINE",
"1036 193 LINE SMOOTH",
"1032 109 OFFCURVE",
"993 51 OFFCURVE",
"913 51 QCURVE SMOOTH",
"362 51 LINE",
"362 1241 LINE SMOOTH",
"362 1319 OFFCURVE",
"376 1397 OFFCURVE",
"426 1421 OFFCURVE",
"477 1421 QCURVE SMOOTH",
"559 1421 LINE",
"559 1462 LINE",
"102 1462 LINE",
"102 1421 LINE",
"190 1421 LINE SMOOTH",
"241 1421 OFFCURVE",
"290 1397 OFFCURVE",
"305 1319 OFFCURVE",
"305 1241 QCURVE SMOOTH",
"305 221 LINE SMOOTH",
"305 143 OFFCURVE",
"290 66 OFFCURVE",
"241 41 OFFCURVE",
"190 41 QCURVE SMOOTH",
"102 41 LINE",
"102 0 LINE",
"1073 0 LINE"
);
}
);
width = 1193;
},
{
layerId = "8C5547AF-2EE0-40C3-888E-C5581C9C595C";
paths = (
{
closed = 1;
nodes = (
"1143 430 LINE",
"1067 430 LINE",
"1051 244 LINE SMOOTH",
"1044 170 OFFCURVE",
"983 80 OFFCURVE",
"897 80 QCURVE SMOOTH",
"426 80 LINE",
"426 1239 LINE SMOOTH",
"426 1341 OFFCURVE",
"500 1397 OFFCURVE",
"569 1397 QCURVE SMOOTH",
"623 1397 LINE",
"623 1462 LINE",
"88 1462 LINE",
"88 1397 LINE",
"143 1397 LINE SMOOTH",
"215 1397 OFFCURVE",
"287 1341 OFFCURVE",
"287 1235 QCURVE SMOOTH",
"287 227 LINE SMOOTH",
"287 121 OFFCURVE",
"215 66 OFFCURVE",
"143 66 QCURVE SMOOTH",
"88 66 LINE",
"88 0 LINE",
"1128 0 LINE"
);
}
);
width = 1239;
},
{
layerId = "7FEA46FF-516C-4946-9F17-9EEA76F5F564";
paths = (
{
closed = 1;
nodes = (
"1190 440 LINE",
"1083 440 LINE",
"1063 287 LINE SMOOTH",
"1059 254 OFFCURVE",
"1036 188 OFFCURVE",
"994 135 OFFCURVE",
"929 102 OFFCURVE",
"883 102 QCURVE SMOOTH",
"479 102 LINE",
"479 1237 LINE SMOOTH",
"479 1282 OFFCURVE",
"506 1337 OFFCURVE",
"552 1367 OFFCURVE",
"613 1376 OFFCURVE",
"647 1376 QCURVE SMOOTH",
"674 1376 LINE",
"674 1462 LINE",
"78 1462 LINE",
"78 1376 LINE",
"104 1376 LINE SMOOTH",
"139 1376 OFFCURVE",
"200 1366 OFFCURVE",
"246 1335 OFFCURVE",
"272 1277 OFFCURVE",
"272 1229 QCURVE SMOOTH",
"272 233 LINE SMOOTH",
"272 185 OFFCURVE",
"246 127 OFFCURVE",
"200 96 OFFCURVE",
"139 86 OFFCURVE",
"104 86 QCURVE SMOOTH",
"78 86 LINE",
"78 0 LINE",
"1176 0 LINE"
);
}
);
width = 1276;
},
{
layerId = "3CCD85FA-69E6-46C4-A32D-64775BF55ABF";
paths = (
{
closed = 1;
nodes = (
"1272 457 LINE",
"1157 457 LINE",
"1124 303 LINE SMOOTH",
"1106 216 OFFCURVE",
"1026 125 OFFCURVE",
"954 125 QCURVE SMOOTH",
"573 125 LINE",
"573 1229 LINE SMOOTH",
"573 1270 OFFCURVE",
"590 1319 OFFCURVE",
"618 1345 OFFCURVE",
"657 1354 OFFCURVE",
"678 1354 QCURVE SMOOTH",
"764 1354 LINE",
"764 1462 LINE",
"57 1462 LINE",
"57 1354 LINE",
"143 1354 LINE SMOOTH",
"166 1354 OFFCURVE",
"204 1345 OFFCURVE",
"232 1317 OFFCURVE",
"248 1265 OFFCURVE",
"248 1221 QCURVE SMOOTH",
"248 242 LINE SMOOTH",
"248 198 OFFCURVE",
"232 146 OFFCURVE",
"204 118 OFFCURVE",
"166 109 OFFCURVE",
"143 109 QCURVE SMOOTH",
"57 109 LINE",
"57 0 LINE",
"1257 0 LINE"
);
}
);
width = 1339;
},
{
layerId = "6A9350D6-C757-41BD-9D0D-806F72644A83";
paths = (
{
closed = 1;
nodes = (
"1333 469 LINE",
"1212 469 LINE",
"1169 315 LINE SMOOTH",
"1143 215 OFFCURVE",
"1063 141 OFFCURVE",
"1008 141 QCURVE SMOOTH",
"643 141 LINE",
"643 1237 LINE SMOOTH",
"643 1286 OFFCURVE",
"676 1337 OFFCURVE",
"731 1337 QCURVE SMOOTH",
"831 1337 LINE",
"831 1462 LINE",
"43 1462 LINE",
"43 1337 LINE",
"135 1337 LINE SMOOTH",
"176 1337 OFFCURVE",
"231 1286 OFFCURVE",
"231 1233 QCURVE SMOOTH",
"231 223 LINE SMOOTH",
"231 176 OFFCURVE",
"180 125 OFFCURVE",
"152 125 QCURVE SMOOTH",
"43 125 LINE",
"43 0 LINE",
"1319 0 LINE"
);
}
);
width = 1386;
}
);
note = glyph47;
unicode = 004C;
},
{
glyphname = glyph48;
lastChange = "2021-04-16 11:22:00 +0000";
layers = (
{
layerId = "0DE963AB-769B-4021-B20D-45864FAF5663";
paths = (
{
closed = 1;
nodes = (
"538 41 LINE",
"471 41 LINE SMOOTH",
"419 41 OFFCURVE",
"370 66 OFFCURVE",
"356 143 OFFCURVE",
"356 221 QCURVE SMOOTH",
"356 1358 LINE",
"890 0 LINE",
"964 0 LINE",
"1501 1370 LINE",
"1501 221 LINE SMOOTH",
"1501 143 OFFCURVE",
"1486 66 OFFCURVE",
"1437 41 OFFCURVE",
"1386 41 QCURVE SMOOTH",
"1273 41 LINE",
"1273 0 LINE",
"1757 0 LINE",
"1757 41 LINE",
"1673 41 LINE SMOOTH",
"1622 41 OFFCURVE",
"1572 66 OFFCURVE",
"1558 143 OFFCURVE",
"1558 221 QCURVE SMOOTH",
"1558 1241 LINE SMOOTH",
"1558 1319 OFFCURVE",
"1572 1397 OFFCURVE",
"1622 1421 OFFCURVE",
"1673 1421 QCURVE SMOOTH",
"1757 1421 LINE",
"1757 1462 LINE",
"1476 1462 LINE",
"927 63 LINE",
"376 1462 LINE",
"102 1462 LINE",
"102 1421 LINE",
"190 1421 LINE SMOOTH",
"241 1421 OFFCURVE",
"290 1397 OFFCURVE",
"305 1319 OFFCURVE",
"305 1241 QCURVE SMOOTH",
"305 221 LINE SMOOTH",
"305 143 OFFCURVE",
"290 66 OFFCURVE",
"241 41 OFFCURVE",
"190 41 QCURVE SMOOTH",
"102 41 LINE",
"102 0 LINE",
"538 0 LINE"
);
}
);
width = 1859;
},
{
layerId = "8C5547AF-2EE0-40C3-888E-C5581C9C595C";
paths = (
{
closed = 1;
nodes = (
"545 66 LINE",
"512 66 LINE SMOOTH",
"438 66 OFFCURVE",
"379 121 OFFCURVE",
"379 227 QCURVE SMOOTH",
"379 1329 LINE",
"881 0 LINE",
"975 0 LINE",
"1474 1337 LINE",
"1474 217 LINE",
"1470 117 OFFCURVE",
"1413 66 OFFCURVE",
"1341 66 QCURVE SMOOTH",
"1288 66 LINE",
"1288 0 LINE",
"1804 0 LINE",
"1804 66 LINE",
"1751 66 LINE SMOOTH",
"1679 66 OFFCURVE",
"1608 121 OFFCURVE",
"1608 227 QCURVE SMOOTH",
"1608 1235 LINE SMOOTH",
"1608 1341 OFFCURVE",
"1679 1397 OFFCURVE",
"1751 1397 QCURVE SMOOTH",
"1804 1397 LINE",
"1804 1462 LINE",
"1429 1462 LINE",
"950 188 LINE",
"469 1462 LINE",
"88 1462 LINE",
"88 1397 LINE",
"143 1397 LINE SMOOTH",
"215 1397 OFFCURVE",
"287 1341 OFFCURVE",
"287 1239 QCURVE SMOOTH",
"287 223 LINE SMOOTH",
"287 119 OFFCURVE",
"215 66 OFFCURVE",
"143 66 QCURVE SMOOTH",
"88 66 LINE",
"88 0 LINE",
"545 0 LINE"
);
}
);
width = 1892;
},
{
layerId = "7FEA46FF-516C-4946-9F17-9EEA76F5F564";
paths = (
{
closed = 1;
nodes = (
"1843 86 LINE",
"1817 86 LINE SMOOTH",
"1782 86 OFFCURVE",
"1721 96 OFFCURVE",
"1675 127 OFFCURVE",
"1649 185 OFFCURVE",
"1649 233 QCURVE SMOOTH",
"1649 1229 LINE SMOOTH",
"1649 1277 OFFCURVE",
"1675 1335 OFFCURVE",
"1721 1366 OFFCURVE",
"1782 1376 OFFCURVE",
"1817 1376 QCURVE SMOOTH",
"1843 1376 LINE",
"1843 1462 LINE",
"1389 1462 LINE",
"969 291 LINE",
"545 1462 LINE",
"78 1462 LINE",
"78 1376 LINE",
"104 1376 LINE SMOOTH",
"138 1376 OFFCURVE",
"199 1367 OFFCURVE",
"245 1337 OFFCURVE",
"272 1282 OFFCURVE",
"272 1237 QCURVE SMOOTH",
"272 223 LINE SMOOTH",
"272 178 OFFCURVE",
"245 123 OFFCURVE",
"199 95 OFFCURVE",
"138 86 OFFCURVE",
"104 86 QCURVE SMOOTH",
"78 86 LINE",
"78 0 LINE",
"551 0 LINE",
"551 86 LINE",
"545 86 LINE SMOOTH",
"511 86 OFFCURVE",
"456 96 OFFCURVE",
"417 127 OFFCURVE",
"397 185 OFFCURVE",
"397 233 QCURVE SMOOTH",
"397 1305 LINE",
"872 0 LINE",
"983 0 LINE",
"1452 1309 LINE",
"1452 215 LINE",
"1450 173 OFFCURVE",
"1428 122 OFFCURVE",
"1391 95 OFFCURVE",
"1338 86 OFFCURVE",
"1305 86 QCURVE SMOOTH",
"1298 86 LINE",
"1298 0 LINE",
"1843 0 LINE"
);
}
);
width = 1921;
},
{
layerId = "3CCD85FA-69E6-46C4-A32D-64775BF55ABF";
paths = (
{
closed = 1;
nodes = (
"1892 109 LINE",
"1806 109 LINE SMOOTH",
"1784 109 OFFCURVE",
"1746 118 OFFCURVE",
"1718 146 OFFCURVE",
"1702 198 OFFCURVE",
"1702 242 QCURVE SMOOTH",
"1702 1221 LINE SMOOTH",
"1702 1265 OFFCURVE",
"1718 1317 OFFCURVE",
"1746 1345 OFFCURVE",
"1784 1354 OFFCURVE",
"1806 1354 QCURVE SMOOTH",
"1892 1354 LINE",
"1892 1462 LINE",
"1313 1462 LINE",
"987 473 LINE",
"647 1462 LINE",
"57 1462 LINE",
"57 1354 LINE",
"143 1354 LINE SMOOTH",
"165 1354 OFFCURVE",
"203 1345 OFFCURVE",
"232 1319 OFFCURVE",
"248 1270 OFFCURVE",
"248 1229 QCURVE SMOOTH",
"248 231 LINE SMOOTH",
"248 191 OFFCURVE",
"232 142 OFFCURVE",
"203 117 OFFCURVE",
"165 109 OFFCURVE",
"143 109 QCURVE SMOOTH",
"57 109 LINE",
"57 0 LINE",
"565 0 LINE",
"565 109 LINE",
"553 109 LINE SMOOTH",
"517 109 OFFCURVE",
"461 118 OFFCURVE",
"422 146 OFFCURVE",
"401 198 OFFCURVE",
"401 242 QCURVE SMOOTH",
"401 1260 LINE",
"834 0 LINE",
"973 0 LINE",
"1386 1260 LINE",
"1386 223 LINE SMOOTH",
"1386 186 OFFCURVE",
"1370 141 OFFCURVE",
"1338 117 OFFCURVE",
"1289 109 OFFCURVE",
"1257 109 QCURVE SMOOTH",
"1237 109 LINE",
"1237 0 LINE",
"1892 0 LINE"
);
}
);
width = 1950;
},
{
layerId = "6A9350D6-C757-41BD-9D0D-806F72644A83";
paths = (
{
closed = 1;
nodes = (
"578 125 LINE",
"559 125 LINE SMOOTH",
"485 125 OFFCURVE",
"405 166 OFFCURVE",
"405 248 QCURVE SMOOTH",
"405 1227 LINE",
"805 0 LINE",
"967 0 LINE",
"1339 1223 LINE",
"1339 250 LINE SMOOTH",
"1339 180 OFFCURVE",
"1286 125 OFFCURVE",
"1223 125 QCURVE SMOOTH",
"1192 125 LINE",
"1192 0 LINE",
"1929 0 LINE",
"1929 125 LINE",
"1841 125 LINE SMOOTH",
"1743 125 OFFCURVE",
"1743 221 QCURVE SMOOTH",
"1743 1239 LINE SMOOTH",
"1743 1286 OFFCURVE",
"1794 1337 OFFCURVE",
"1821 1337 QCURVE SMOOTH",
"1929 1337 LINE",
"1929 1462 LINE",
"1257 1462 LINE",
"1001 608 LINE",
"723 1462 LINE",
"43 1462 LINE",
"43 1337 LINE",
"143 1337 LINE SMOOTH",
"176 1337 OFFCURVE",
"231 1282 OFFCURVE",
"231 1225 QCURVE SMOOTH",
"231 238 LINE SMOOTH",
"231 178 OFFCURVE",
"168 125 OFFCURVE",
"111 125 QCURVE SMOOTH",
"43 125 LINE",
"43 0 LINE",
"578 0 LINE"
);
}
);
width = 1970;
}
);
note = glyph48;
unicode = 004D;
},
{
glyphname = glyph49;
lastChange = "2021-04-16 11:22:00 +0000";
layers = (
{
layerId = "0DE963AB-769B-4021-B20D-45864FAF5663";
paths = (
{
closed = 1;
nodes = (
"555 41 LINE",
"471 41 LINE SMOOTH",
"419 41 OFFCURVE",
"370 66 OFFCURVE",
"356 143 OFFCURVE",
"356 221 QCURVE SMOOTH",
"356 1337 LINE",
"1161 0 LINE",
"1212 0 LINE",
"1212 1241 LINE SMOOTH",
"1212 1319 OFFCURVE",
"1226 1397 OFFCURVE",
"1276 1421 OFFCURVE",
"1327 1421 QCURVE SMOOTH",
"1411 1421 LINE",
"1411 1462 LINE",
"962 1462 LINE",
"962 1421 LINE",
"1046 1421 LINE SMOOTH",
"1097 1421 OFFCURVE",
"1146 1397 OFFCURVE",
"1161 1319 OFFCURVE",
"1161 1241 QCURVE SMOOTH",
"1161 113 LINE",
"348 1462 LINE",
"102 1462 LINE",
"102 1421 LINE",
"190 1421 LINE SMOOTH",
"241 1421 OFFCURVE",
"290 1397 OFFCURVE",
"305 1319 OFFCURVE",
"305 1241 QCURVE SMOOTH",
"305 221 LINE SMOOTH",
"305 143 OFFCURVE",
"290 66 OFFCURVE",
"241 41 OFFCURVE",
"190 41 QCURVE SMOOTH",
"102 41 LINE",
"102 0 LINE",
"555 0 LINE"
);
}
);
width = 1497;
},
{
layerId = "8C5547AF-2EE0-40C3-888E-C5581C9C595C";
paths = (
{
closed = 1;
nodes = (
"575 66 LINE",
"522 66 LINE SMOOTH",
"450 66 OFFCURVE",
"379 121 OFFCURVE",
"379 227 QCURVE SMOOTH",
"379 1251 LINE",
"1163 0 LINE",
"1266 0 LINE",
"1266 1235 LINE SMOOTH",
"1266 1341 OFFCURVE",
"1337 1397 OFFCURVE",
"1409 1397 QCURVE SMOOTH",
"1462 1397 LINE",
"1462 1462 LINE",
"979 1462 LINE",
"979 1397 LINE",
"1030 1397 LINE SMOOTH",
"1102 1397 OFFCURVE",
"1175 1341 OFFCURVE",
"1175 1239 QCURVE SMOOTH",
"1175 231 LINE",
"405 1462 LINE",
"88 1462 LINE",
"88 1397 LINE",
"143 1397 LINE SMOOTH",
"215 1397 OFFCURVE",
"287 1341 OFFCURVE",
"287 1239 QCURVE SMOOTH",
"287 227 LINE SMOOTH",
"287 121 OFFCURVE",
"215 66 OFFCURVE",
"143 66 QCURVE SMOOTH",
"88 66 LINE",
"88 0 LINE",
"575 0 LINE"
);
}
);
width = 1531;
},
{
layerId = "7FEA46FF-516C-4946-9F17-9EEA76F5F564";
paths = (
{
closed = 1;
nodes = (
"1311 1229 LINE SMOOTH",
"1311 1277 OFFCURVE",
"1337 1335 OFFCURVE",
"1383 1366 OFFCURVE",
"1444 1376 OFFCURVE",
"1479 1376 QCURVE SMOOTH",
"1505 1376 LINE",
"1505 1462 LINE",
"991 1462 LINE",
"991 1376 LINE",
"1018 1376 LINE SMOOTH",
"1052 1376 OFFCURVE",
"1113 1367 OFFCURVE",
"1159 1337 OFFCURVE",
"1186 1282 OFFCURVE",
"1186 1237 QCURVE SMOOTH",
"1186 330 LINE",
"453 1462 LINE",
"78 1462 LINE",
"78 1376 LINE",
"104 1376 LINE SMOOTH",
"138 1376 OFFCURVE",
"199 1367 OFFCURVE",
"245 1337 OFFCURVE",
"272 1282 OFFCURVE",
"272 1237 QCURVE SMOOTH",
"272 233 LINE SMOOTH",
"272 185 OFFCURVE",
"246 127 OFFCURVE",
"200 96 OFFCURVE",
"139 86 OFFCURVE",
"104 86 QCURVE SMOOTH",
"78 86 LINE",
"78 0 LINE",
"592 0 LINE",
"592 86 LINE",
"565 86 LINE SMOOTH",
"531 86 OFFCURVE",
"469 96 OFFCURVE",
"424 127 OFFCURVE",
"397 185 OFFCURVE",
"397 233 QCURVE SMOOTH",
"397 1180 LINE",
"1165 0 LINE",
"1311 0 LINE"
);
}
);
width = 1563;
},
{
layerId = "3CCD85FA-69E6-46C4-A32D-64775BF55ABF";
paths = (
{
closed = 1;
nodes = (
"1389 1221 LINE SMOOTH",
"1389 1265 OFFCURVE",
"1405 1317 OFFCURVE",
"1434 1345 OFFCURVE",
"1472 1354 OFFCURVE",
"1493 1354 QCURVE SMOOTH",
"1579 1354 LINE",
"1579 1462 LINE",
"1044 1462 LINE",
"1044 1354 LINE",
"1130 1354 LINE SMOOTH",
"1151 1354 OFFCURVE",
"1189 1345 OFFCURVE",
"1218 1319 OFFCURVE",
"1235 1270 OFFCURVE",
"1235 1229 QCURVE SMOOTH",
"1235 440 LINE",
"512 1462 LINE",
"57 1462 LINE",
"57 1354 LINE",
"143 1354 LINE SMOOTH",
"164 1354 OFFCURVE",
"202 1345 OFFCURVE",
"231 1319 OFFCURVE",
"248 1270 OFFCURVE",
"248 1229 QCURVE SMOOTH",
"248 242 LINE SMOOTH",
"248 198 OFFCURVE",
"232 146 OFFCURVE",
"203 118 OFFCURVE",
"165 109 OFFCURVE",
"143 109 QCURVE SMOOTH",
"57 109 LINE",
"57 0 LINE",
"592 0 LINE",
"592 109 LINE",
"506 109 LINE SMOOTH",
"485 109 OFFCURVE",
"446 118 OFFCURVE",
"418 146 OFFCURVE",
"401 198 OFFCURVE",
"401 242 QCURVE SMOOTH",
"401 1128 LINE",
"1200 0 LINE",
"1389 0 LINE"
);
}
);
width = 1614;
},
{
layerId = "6A9350D6-C757-41BD-9D0D-806F72644A83";
paths = (
{
closed = 1;
nodes = (
"592 125 LINE",
"504 125 LINE SMOOTH",
"451 125 OFFCURVE",
"405 166 OFFCURVE",
"405 248 QCURVE SMOOTH",
"405 1092 LINE",
"1227 0 LINE",
"1446 0 LINE",
"1446 1214 LINE SMOOTH",
"1446 1280 OFFCURVE",
"1499 1337 OFFCURVE",
"1546 1337 QCURVE SMOOTH",
"1634 1337 LINE",
"1634 1462 LINE",
"1085 1462 LINE",
"1085 1337 LINE",
"1173 1337 LINE SMOOTH",
"1214 1337 OFFCURVE",
"1272 1286 OFFCURVE",
"1272 1223 QCURVE SMOOTH",
"1272 522 LINE",
"557 1462 LINE",
"43 1462 LINE",
"43 1337 LINE",
"129 1337 LINE SMOOTH",
"168 1337 OFFCURVE",
"231 1298 OFFCURVE",
"231 1223 QCURVE SMOOTH",
"231 248 LINE SMOOTH",
"231 166 OFFCURVE",
"166 125 OFFCURVE",
"111 125 QCURVE SMOOTH",
"43 125 LINE",
"43 0 LINE",
"592 0 LINE"
);
}
);
width = 1650;
}
);
note = glyph49;
unicode = 004E;
},
{
glyphname = glyph50;
lastChange = "2021-04-16 11:22:00 +0000";
layers = (
{
layerId = "0DE963AB-769B-4021-B20D-45864FAF5663";
paths = (
{
closed = 1;
nodes = (
"1165 166 OFFCURVE",
"1283 506 OFFCURVE",
"1283 733 QCURVE SMOOTH",
"1283 971 OFFCURVE",
"1167 1307 OFFCURVE",
"913 1485 OFFCURVE",
"704 1485 QCURVE SMOOTH",
"417 1485 OFFCURVE",
"118 1094 OFFCURVE",
"118 735 QCURVE SMOOTH",
"118 377 OFFCURVE",
"409 -20 OFFCURVE",
"702 -20 QCURVE SMOOTH",
"909 -20 OFFCURVE"
);
},
{
closed = 1;
nodes = (
"175 403 OFFCURVE",
"175 733 QCURVE SMOOTH",
"175 1063 OFFCURVE",
"440 1434 OFFCURVE",
"704 1434 QCURVE SMOOTH",
"894 1434 OFFCURVE",
"1124 1268 OFFCURVE",
"1226 954 OFFCURVE",
"1226 733 QCURVE SMOOTH",
"1226 516 OFFCURVE",
"1117 201 OFFCURVE",
"888 31 OFFCURVE",
"702 31 QCURVE SMOOTH",
"440 31 OFFCURVE"
);
}
);
width = 1404;
},
{
layerId = "8C5547AF-2EE0-40C3-888E-C5581C9C595C";
paths = (
{
closed = 1;
nodes = (
"1214 168 OFFCURVE",
"1349 506 OFFCURVE",
"1349 733 QCURVE SMOOTH",
"1349 1081 OFFCURVE",
"1044 1485 OFFCURVE",
"734 1485 QCURVE SMOOTH",
"528 1485 OFFCURVE",
"253 1303 OFFCURVE",
"116 967 OFFCURVE",
"116 735 QCURVE SMOOTH",
"116 502 OFFCURVE",
"251 164 OFFCURVE",
"526 -20 OFFCURVE",
"732 -20 QCURVE SMOOTH",
"939 -20 OFFCURVE"
);
},
{
closed = 1;
nodes = (
"266 418 OFFCURVE",
"266 733 QCURVE SMOOTH",
"266 1049 OFFCURVE",
"491 1401 OFFCURVE",
"734 1401 QCURVE SMOOTH",
"904 1401 OFFCURVE",
"1107 1243 OFFCURVE",
"1197 944 OFFCURVE",
"1197 733 QCURVE SMOOTH",
"1197 524 OFFCURVE",
"1105 223 OFFCURVE",
"900 63 OFFCURVE",
"732 63 QCURVE SMOOTH",
"491 63 OFFCURVE"
);
}
);
width = 1468;
},
{
layerId = "7FEA46FF-516C-4946-9F17-9EEA76F5F564";
paths = (
{
closed = 1;
nodes = (
"1319 1181 OFFCURVE",
"1155 1378 OFFCURVE",
"917 1485 OFFCURVE",
"762 1485 QCURVE SMOOTH",
"599 1485 OFFCURVE",
"355 1378 OFFCURVE",
"195 1182 OFFCURVE",
"115 905 OFFCURVE",
"115 735 QCURVE SMOOTH",
"115 565 OFFCURVE",
"195 286 OFFCURVE",
"355 88 OFFCURVE",
"597 -20 OFFCURVE",
"760 -20 QCURVE SMOOTH",
"915 -20 OFFCURVE",
"1155 88 OFFCURVE",
"1319 286 OFFCURVE",
"1403 564 OFFCURVE",
"1403 733 QCURVE SMOOTH",
"1403 904 OFFCURVE"
);
},
{
closed = 1;
nodes = (
"387 1124 OFFCURVE",
"488 1288 OFFCURVE",
"648 1374 OFFCURVE",
"762 1374 QCURVE SMOOTH",
"876 1374 OFFCURVE",
"1033 1288 OFFCURVE",
"1132 1124 OFFCURVE",
"1176 885 OFFCURVE",
"1176 733 QCURVE SMOOTH",
"1176 581 OFFCURVE",
"1132 342 OFFCURVE",
"1033 177 OFFCURVE",
"874 90 OFFCURVE",
"760 90 QCURVE SMOOTH",
"646 90 OFFCURVE",
"487 177 OFFCURVE",
"387 342 OFFCURVE",
"342 581 OFFCURVE",
"342 733 QCURVE SMOOTH",
"342 885 OFFCURVE"
);
}
);
width = 1520;
},
{
layerId = "3CCD85FA-69E6-46C4-A32D-64775BF55ABF";
paths = (
{
closed = 1;
nodes = (
"1408 1181 OFFCURVE",
"1232 1378 OFFCURVE",
"975 1485 OFFCURVE",
"809 1485 QCURVE SMOOTH",
"633 1485 OFFCURVE",
"372 1378 OFFCURVE",
"199 1182 OFFCURVE",
"113 905 OFFCURVE",
"113 735 QCURVE SMOOTH",
"113 565 OFFCURVE",
"199 286 OFFCURVE",
"371 88 OFFCURVE",
"632 -20 OFFCURVE",
"807 -20 QCURVE SMOOTH",
"974 -20 OFFCURVE",
"1231 88 OFFCURVE",
"1408 286 OFFCURVE",
"1499 564 OFFCURVE",
"1499 733 QCURVE SMOOTH",
"1499 904 OFFCURVE"
);
},
{
closed = 1;
nodes = (
"495 1110 OFFCURVE",
"579 1269 OFFCURVE",
"713 1352 OFFCURVE",
"809 1352 QCURVE SMOOTH",
"904 1352 OFFCURVE",
"1036 1269 OFFCURVE",
"1118 1110 OFFCURVE",
"1155 880 OFFCURVE",
"1155 733 QCURVE SMOOTH",
"1155 586 OFFCURVE",
"1118 356 OFFCURVE",
"1036 197 OFFCURVE",
"903 113 OFFCURVE",
"807 113 QCURVE SMOOTH",
"712 113 OFFCURVE",
"579 197 OFFCURVE",
"495 356 OFFCURVE",
"457 586 OFFCURVE",
"457 733 QCURVE SMOOTH",
"457 880 OFFCURVE"
);
}
);
width = 1612;
},
{
layerId = "6A9350D6-C757-41BD-9D0D-806F72644A83";
paths = (
{
closed = 1;
nodes = (
"1400 168 OFFCURVE",
"1568 506 OFFCURVE",
"1568 733 QCURVE SMOOTH",
"1568 961 OFFCURVE",
"1400 1298 OFFCURVE",
"1077 1485 OFFCURVE",
"843 1485 QCURVE SMOOTH",
"597 1485 OFFCURVE",
"272 1298 OFFCURVE",
"110 963 OFFCURVE",
"110 735 QCURVE SMOOTH",
"110 508 OFFCURVE",
"270 168 OFFCURVE",
"595 -20 OFFCURVE",
"841 -20 QCURVE SMOOTH",
"1075 -20 OFFCURVE"
);
},
{
closed = 1;
nodes = (
"540 446 OFFCURVE",
"540 733 QCURVE SMOOTH",
"540 1020 OFFCURVE",
"677 1335 OFFCURVE",
"843 1335 QCURVE SMOOTH",
"1007 1335 OFFCURVE",
"1138 1020 OFFCURVE",
"1138 733 QCURVE SMOOTH",
"1138 446 OFFCURVE",
"1005 129 OFFCURVE",
"841 129 QCURVE SMOOTH",
"677 129 OFFCURVE"
);
}
);
width = 1679;
}
);
note = glyph50;
unicode = 004F;
},
{
glyphname = glyph51;
lastChange = "2021-04-16 11:22:00 +0000";
layers = (
{
layerId = "0DE963AB-769B-4021-B20D-45864FAF5663";
paths = (
{
closed = 1;
nodes = (
"600 41 LINE",
"477 41 LINE SMOOTH",
"426 41 OFFCURVE",
"376 66 OFFCURVE",
"362 143 OFFCURVE",
"362 221 QCURVE SMOOTH",
"362 582 LINE",
"567 582 LINE SMOOTH",
"745 582 OFFCURVE",
"956 705 OFFCURVE",
"1046 913 OFFCURVE",
"1046 1042 QCURVE SMOOTH",
"1046 1241 OFFCURVE",
"843 1462 OFFCURVE",
"612 1462 QCURVE SMOOTH",
"102 1462 LINE",
"102 1421 LINE",
"190 1421 LINE SMOOTH",
"241 1421 OFFCURVE",
"290 1397 OFFCURVE",
"305 1319 OFFCURVE",
"305 1241 QCURVE SMOOTH",
"305 221 LINE SMOOTH",
"305 143 OFFCURVE",
"290 66 OFFCURVE",
"241 41 OFFCURVE",
"190 41 QCURVE SMOOTH",
"102 41 LINE",
"102 0 LINE",
"600 0 LINE"
);
},
{
closed = 1;
nodes = (
"612 1411 LINE SMOOTH",
"813 1411 OFFCURVE",
"989 1219 OFFCURVE",
"989 1042 QCURVE SMOOTH",
"989 932 OFFCURVE",
"915 745 OFFCURVE",
"731 633 OFFCURVE",
"565 633 QCURVE SMOOTH",
"362 633 LINE",
"362 1411 LINE"
);
}
);
width = 1150;
},
{
layerId = "8C5547AF-2EE0-40C3-888E-C5581C9C595C";
paths = (
{
closed = 1;
nodes = (
"663 66 LINE",
"569 66 LINE SMOOTH",
"500 66 OFFCURVE",
"426 119 OFFCURVE",
"426 223 QCURVE SMOOTH",
"426 575 LINE",
"590 575 LINE SMOOTH",
"782 575 OFFCURVE",
"1008 702 OFFCURVE",
"1106 913 OFFCURVE",
"1106 1038 QCURVE SMOOTH",
"1106 1237 OFFCURVE",
"881 1462 OFFCURVE",
"635 1462 QCURVE SMOOTH",
"88 1462 LINE",
"88 1397 LINE",
"143 1397 LINE SMOOTH",
"215 1397 OFFCURVE",
"287 1341 OFFCURVE",
"287 1239 QCURVE SMOOTH",
"287 227 LINE SMOOTH",
"287 121 OFFCURVE",
"215 66 OFFCURVE",
"143 66 QCURVE SMOOTH",
"88 66 LINE",
"88 0 LINE",
"663 0 LINE"
);
},
{
closed = 1;
nodes = (
"616 1384 LINE SMOOTH",
"803 1384 OFFCURVE",
"960 1208 OFFCURVE",
"960 1034 QCURVE SMOOTH",
"960 852 OFFCURVE",
"793 651 OFFCURVE",
"577 651 QCURVE SMOOTH",
"426 651 LINE",
"426 1384 LINE"
);
}
);
width = 1198;
},
{
layerId = "7FEA46FF-516C-4946-9F17-9EEA76F5F564";
paths = (
{
closed = 1;
nodes = (
"715 86 LINE",
"647 86 LINE SMOOTH",
"613 86 OFFCURVE",
"552 95 OFFCURVE",
"506 123 OFFCURVE",
"479 178 OFFCURVE",
"479 223 QCURVE SMOOTH",
"479 569 LINE",
"608 569 LINE SMOOTH",
"760 569 OFFCURVE",
"970 646 OFFCURVE",
"1100 775 OFFCURVE",
"1157 943 OFFCURVE",
"1157 1034 QCURVE SMOOTH",
"1157 1134 OFFCURVE",
"1096 1292 OFFCURVE",
"972 1403 OFFCURVE",
"782 1462 OFFCURVE",
"653 1462 QCURVE SMOOTH",
"78 1462 LINE",
"78 1376 LINE",
"104 1376 LINE SMOOTH",
"138 1376 OFFCURVE",
"199 1367 OFFCURVE",
"245 1337 OFFCURVE",
"272 1282 OFFCURVE",
"272 1237 QCURVE SMOOTH",
"272 233 LINE SMOOTH",
"272 185 OFFCURVE",
"246 127 OFFCURVE",
"200 96 OFFCURVE",
"139 86 OFFCURVE",
"104 86 QCURVE SMOOTH",
"78 86 LINE",
"78 0 LINE",
"715 0 LINE"
);
},
{
closed = 1;
nodes = (
"618 1364 LINE SMOOTH",
"705 1364 OFFCURVE",
"826 1323 OFFCURVE",
"902 1239 OFFCURVE",
"936 1112 OFFCURVE",
"936 1026 QCURVE SMOOTH",
"936 929 OFFCURVE",
"897 792 OFFCURVE",
"813 705 OFFCURVE",
"681 666 OFFCURVE",
"588 666 QCURVE SMOOTH",
"479 666 LINE",
"479 1364 LINE"
);
}
);
width = 1237;
},
{
layerId = "3CCD85FA-69E6-46C4-A32D-64775BF55ABF";
paths = (
{
closed = 1;
nodes = (
"1177 1289 OFFCURVE",
"1038 1402 OFFCURVE",
"828 1462 OFFCURVE",
"686 1462 QCURVE SMOOTH",
"57 1462 LINE",
"57 1354 LINE",
"143 1354 LINE SMOOTH",
"165 1354 OFFCURVE",
"203 1345 OFFCURVE",
"232 1319 OFFCURVE",
"248 1270 OFFCURVE",
"248 1229 QCURVE SMOOTH",
"248 242 LINE SMOOTH",
"248 198 OFFCURVE",
"232 146 OFFCURVE",
"204 118 OFFCURVE",
"166 109 OFFCURVE",
"143 109 QCURVE SMOOTH",
"57 109 LINE",
"57 0 LINE",
"805 0 LINE",
"805 109 LINE",
"680 109 LINE SMOOTH",
"659 109 OFFCURVE",
"619 117 OFFCURVE",
"589 142 OFFCURVE",
"571 191 OFFCURVE",
"571 231 QCURVE SMOOTH",
"571 559 LINE",
"641 559 LINE SMOOTH",
"807 559 OFFCURVE",
"1037 636 OFFCURVE",
"1181 766 OFFCURVE",
"1245 936 OFFCURVE",
"1245 1028 QCURVE SMOOTH",
"1245 1129 OFFCURVE"
);
},
{
closed = 1;
nodes = (
"651 1341 LINE SMOOTH",
"720 1341 OFFCURVE",
"815 1302 OFFCURVE",
"874 1223 OFFCURVE",
"901 1102 OFFCURVE",
"901 1020 QCURVE SMOOTH",
"901 928 OFFCURVE",
"870 798 OFFCURVE",
"803 716 OFFCURVE",
"697 678 OFFCURVE",
"621 678 QCURVE SMOOTH",
"571 678 LINE",
"571 1341 LINE"
);
}
);
width = 1307;
},
{
layerId = "6A9350D6-C757-41BD-9D0D-806F72644A83";
paths = (
{
closed = 1;
nodes = (
"872 125 LINE",
"735 125 LINE SMOOTH",
"696 125 OFFCURVE",
"641 162 OFFCURVE",
"641 238 QCURVE SMOOTH",
"641 551 LINE",
"686 551 LINE SMOOTH",
"930 551 OFFCURVE",
"1221 674 OFFCURVE",
"1352 889 OFFCURVE",
"1352 1024 QCURVE SMOOTH",
"1352 1243 OFFCURVE",
"1051 1462 OFFCURVE",
"731 1462 QCURVE SMOOTH",
"43 1462 LINE",
"43 1337 LINE",
"135 1337 LINE SMOOTH",
"168 1337 OFFCURVE",
"231 1298 OFFCURVE",
"231 1223 QCURVE SMOOTH",
"231 248 LINE SMOOTH",
"231 166 OFFCURVE",
"168 125 OFFCURVE",
"125 125 QCURVE SMOOTH",
"43 125 LINE",
"43 0 LINE",
"872 0 LINE"
);
},
{
closed = 1;
nodes = (
"696 1325 LINE SMOOTH",
"813 1325 OFFCURVE",
"926 1174 OFFCURVE",
"926 1016 QCURVE SMOOTH",
"926 840 OFFCURVE",
"801 686 OFFCURVE",
"668 686 QCURVE SMOOTH",
"639 686 LINE",
"639 1325 LINE"
);
}
);
width = 1357;
}
);
note = glyph51;
unicode = 0050;
},
{
glyphname = glyph52;
lastChange = "2021-04-16 11:22:00 +0000";
layers = (
{
layerId = "0DE963AB-769B-4021-B20D-45864FAF5663";
paths = (
{
closed = 1;
nodes = (
"1113 -395 LINE",
"1081 -395 LINE SMOOTH",
"925 -395 OFFCURVE",
"761 -209 OFFCURVE",
"745 -20 QCURVE",
"1015 -4 OFFCURVE",
"1283 381 OFFCURVE",
"1283 733 QCURVE SMOOTH",
"1283 1092 OFFCURVE",
"1015 1485 OFFCURVE",
"704 1485 QCURVE SMOOTH",
"503 1485 OFFCURVE",
"243 1298 OFFCURVE",
"118 963 OFFCURVE",
"118 735 QCURVE SMOOTH",
"118 369 OFFCURVE",
"407 -12 OFFCURVE",
"687 -20 QCURVE",
"698 -154 OFFCURVE",
"777 -322 OFFCURVE",
"894 -412 OFFCURVE",
"1031 -446 OFFCURVE",
"1099 -446 QCURVE SMOOTH",
"1113 -446 LINE"
);
},
{
closed = 1;
nodes = (
"175 406 OFFCURVE",
"175 733 QCURVE SMOOTH",
"175 936 OFFCURVE",
"284 1251 OFFCURVE",
"515 1434 OFFCURVE",
"704 1434 QCURVE SMOOTH",
"894 1434 OFFCURVE",
"1124 1268 OFFCURVE",
"1226 954 OFFCURVE",
"1226 733 QCURVE SMOOTH",
"1226 401 OFFCURVE",
"976 31 OFFCURVE",
"702 31 QCURVE SMOOTH",
"437 31 OFFCURVE"
);
}
);
width = 1404;
},
{
layerId = "8C5547AF-2EE0-40C3-888E-C5581C9C595C";
paths = (
{
closed = 1;
nodes = (
"1179 -385 LINE",
"1146 -385 LINE SMOOTH",
"1007 -385 OFFCURVE",
"843 -213 OFFCURVE",
"827 -14 QCURVE",
"1083 18 OFFCURVE",
"1349 410 OFFCURVE",
"1349 733 QCURVE SMOOTH",
"1349 1081 OFFCURVE",
"1044 1485 OFFCURVE",
"734 1485 QCURVE SMOOTH",
"524 1485 OFFCURVE",
"251 1298 OFFCURVE",
"116 963 OFFCURVE",
"116 735 QCURVE SMOOTH",
"116 395 OFFCURVE",
"399 2 OFFCURVE",
"679 -18 QCURVE",
"689 -152 OFFCURVE",
"773 -324 OFFCURVE",
"898 -420 OFFCURVE",
"1048 -461 OFFCURVE",
"1124 -461 QCURVE SMOOTH",
"1179 -461 LINE"
);
},
{
closed = 1;
nodes = (
"266 418 OFFCURVE",
"266 733 QCURVE SMOOTH",
"266 936 OFFCURVE",
"360 1237 OFFCURVE",
"567 1401 OFFCURVE",
"734 1401 QCURVE SMOOTH",
"904 1401 OFFCURVE",
"1107 1243 OFFCURVE",
"1197 944 OFFCURVE",
"1197 733 QCURVE SMOOTH",
"1197 418 OFFCURVE",
"982 63 OFFCURVE",
"732 63 QCURVE SMOOTH",
"489 63 OFFCURVE"
);
}
);
width = 1468;
},
{
layerId = "7FEA46FF-516C-4946-9F17-9EEA76F5F564";
paths = (
{
closed = 1;
nodes = (
"1319 1181 OFFCURVE",
"1155 1378 OFFCURVE",
"917 1485 OFFCURVE",
"762 1485 QCURVE SMOOTH",
"599 1485 OFFCURVE",
"355 1378 OFFCURVE",
"195 1182 OFFCURVE",
"115 905 OFFCURVE",
"115 735 QCURVE SMOOTH",
"115 576 OFFCURVE",
"184 313 OFFCURVE",
"322 118 OFFCURVE",
"531 -1 OFFCURVE",
"672 -16 QCURVE",
"682 -148 OFFCURVE",
"771 -323 OFFCURVE",
"903 -428 OFFCURVE",
"1064 -471 OFFCURVE",
"1145 -471 QCURVE SMOOTH",
"1233 -471 LINE",
"1233 -375 LINE",
"1200 -375 LINE SMOOTH",
"1138 -375 OFFCURVE",
"1034 -339 OFFCURVE",
"956 -254 OFFCURVE",
"906 -113 OFFCURVE",
"897 -8 QCURVE",
"1019 14 OFFCURVE",
"1208 139 OFFCURVE",
"1337 331 OFFCURVE",
"1403 583 OFFCURVE",
"1403 733 QCURVE SMOOTH",
"1403 904 OFFCURVE"
);
},
{
closed = 1;
nodes = (
"387 1124 OFFCURVE",
"488 1288 OFFCURVE",
"648 1374 OFFCURVE",
"762 1374 QCURVE SMOOTH",
"876 1374 OFFCURVE",
"1033 1288 OFFCURVE",
"1132 1124 OFFCURVE",
"1176 885 OFFCURVE",
"1176 733 QCURVE SMOOTH",
"1176 581 OFFCURVE",
"1132 342 OFFCURVE",
"1033 177 OFFCURVE",
"874 90 OFFCURVE",
"760 90 QCURVE SMOOTH",
"646 90 OFFCURVE",
"487 177 OFFCURVE",
"387 342 OFFCURVE",
"342 581 OFFCURVE",
"342 733 QCURVE SMOOTH",
"342 885 OFFCURVE"
);
}
);
width = 1520;
},
{
layerId = "3CCD85FA-69E6-46C4-A32D-64775BF55ABF";
paths = (
{
closed = 1;
nodes = (
"1408 1181 OFFCURVE",
"1232 1378 OFFCURVE",
"975 1485 OFFCURVE",
"809 1485 QCURVE SMOOTH",
"633 1485 OFFCURVE",
"372 1378 OFFCURVE",
"199 1182 OFFCURVE",
"113 905 OFFCURVE",
"113 735 QCURVE SMOOTH",
"113 584 OFFCURVE",
"180 330 OFFCURVE",
"316 138 OFFCURVE",
"521 13 OFFCURVE",
"659 -8 QCURVE",
"669 -138 OFFCURVE",
"766 -321 OFFCURVE",
"911 -438 OFFCURVE",
"1090 -492 OFFCURVE",
"1182 -492 QCURVE SMOOTH",
"1329 -492 LINE",
"1329 -373 LINE",
"1296 -373 LINE SMOOTH",
"1245 -373 OFFCURVE",
"1147 -341 OFFCURVE",
"1066 -258 OFFCURVE",
"1010 -113 OFFCURVE",
"1001 0 QCURVE",
"1122 29 OFFCURVE",
"1308 158 OFFCURVE",
"1434 346 OFFCURVE",
"1499 589 OFFCURVE",
"1499 733 QCURVE SMOOTH",
"1499 904 OFFCURVE"
);
},
{
closed = 1;
nodes = (
"495 1110 OFFCURVE",
"579 1269 OFFCURVE",
"713 1352 OFFCURVE",
"809 1352 QCURVE SMOOTH",
"904 1352 OFFCURVE",
"1036 1269 OFFCURVE",
"1118 1110 OFFCURVE",
"1155 880 OFFCURVE",
"1155 733 QCURVE SMOOTH",
"1155 586 OFFCURVE",
"1118 356 OFFCURVE",
"1036 197 OFFCURVE",
"903 113 OFFCURVE",
"807 113 QCURVE SMOOTH",
"712 113 OFFCURVE",
"579 197 OFFCURVE",
"495 356 OFFCURVE",
"457 586 OFFCURVE",
"457 733 QCURVE SMOOTH",
"457 880 OFFCURVE"
);
}
);
width = 1612;
},
{
layerId = "6A9350D6-C757-41BD-9D0D-806F72644A83";
paths = (
{
closed = 1;
nodes = (
"1398 -356 LINE",
"1365 -356 LINE SMOOTH",
"1322 -356 OFFCURVE",
"1230 -330 OFFCURVE",
"1144 -256 OFFCURVE",
"1085 -113 OFFCURVE",
"1077 6 QCURVE",
"1316 76 OFFCURVE",
"1568 455 OFFCURVE",
"1568 733 QCURVE SMOOTH",
"1568 961 OFFCURVE",
"1400 1298 OFFCURVE",
"1077 1485 OFFCURVE",
"843 1485 QCURVE SMOOTH",
"597 1485 OFFCURVE",
"272 1298 OFFCURVE",
"110 963 OFFCURVE",
"110 735 QCURVE SMOOTH",
"110 442 OFFCURVE",
"376 51 OFFCURVE",
"649 -2 QCURVE",
"663 -174 OFFCURVE",
"829 -389 OFFCURVE",
"1075 -492 OFFCURVE",
"1208 -492 QCURVE SMOOTH",
"1398 -492 LINE"
);
},
{
closed = 1;
nodes = (
"540 446 OFFCURVE",
"540 733 QCURVE SMOOTH",
"540 1020 OFFCURVE",
"677 1335 OFFCURVE",
"843 1335 QCURVE SMOOTH",
"1007 1335 OFFCURVE",
"1138 1020 OFFCURVE",
"1138 733 QCURVE SMOOTH",
"1138 446 OFFCURVE",
"1005 129 OFFCURVE",
"841 129 QCURVE SMOOTH",
"677 129 OFFCURVE"
);
}
);
width = 1679;
}
);
note = glyph52;
unicode = 0051;
},
{
glyphname = glyph53;
lastChange = "2021-04-16 11:22:00 +0000";
layers = (
{
layerId = "0DE963AB-769B-4021-B20D-45864FAF5663";
paths = (
{
closed = 1;
nodes = (
"559 41 LINE",
"477 41 LINE SMOOTH",
"426 41 OFFCURVE",
"376 66 OFFCURVE",
"362 143 OFFCURVE",
"362 221 QCURVE SMOOTH",
"362 657 LINE",
"616 657 LINE",
"933 184 LINE",
"983 115 OFFCURVE",
"1050 33 OFFCURVE",
"1140 0 OFFCURVE",
"1220 0 QCURVE SMOOTH",
"1228 0 LINE",
"1228 57 LINE",
"1206 57 LINE SMOOTH",
"1140 57 OFFCURVE",
"1046 125 OFFCURVE",
"983 217 QCURVE SMOOTH",
"673 674 LINE",
"813 709 OFFCURVE",
"999 911 OFFCURVE",
"999 1092 QCURVE SMOOTH",
"999 1292 OFFCURVE",
"774 1462 OFFCURVE",
"518 1462 QCURVE SMOOTH",
"102 1462 LINE",
"102 1421 LINE",
"190 1421 LINE SMOOTH",
"241 1421 OFFCURVE",
"290 1397 OFFCURVE",
"305 1319 OFFCURVE",
"305 1241 QCURVE SMOOTH",
"305 221 LINE SMOOTH",
"305 143 OFFCURVE",
"290 66 OFFCURVE",
"241 41 OFFCURVE",
"190 41 QCURVE SMOOTH",
"102 41 LINE",
"102 0 LINE",
"559 0 LINE"
);
},
{
closed = 1;
nodes = (
"540 1411 LINE SMOOTH",
"696 1411 OFFCURVE",
"872 1335 OFFCURVE",
"942 1192 OFFCURVE",
"942 1090 QCURVE SMOOTH",
"942 909 OFFCURVE",
"718 709 OFFCURVE",
"530 709 QCURVE SMOOTH",
"362 709 LINE",
"362 1411 LINE"
);
}
);
width = 1212;
},
{
layerId = "8C5547AF-2EE0-40C3-888E-C5581C9C595C";
paths = (
{
closed = 1;
nodes = (
"623 66 LINE",
"569 66 LINE SMOOTH",
"500 66 OFFCURVE",
"426 119 OFFCURVE",
"426 223 QCURVE SMOOTH",
"426 651 LINE",
"635 651 LINE",
"930 184 LINE SMOOTH",
"977 111 OFFCURVE",
"1055 31 OFFCURVE",
"1171 0 OFFCURVE",
"1278 0 QCURVE SMOOTH",
"1298 0 LINE",
"1298 74 LINE",
"1284 74 LINE SMOOTH",
"1221 74 OFFCURVE",
"1122 150 OFFCURVE",
"1065 236 QCURVE SMOOTH",
"772 684 LINE",
"854 709 OFFCURVE",
"995 807 OFFCURVE",
"1083 963 OFFCURVE",
"1083 1077 QCURVE SMOOTH",
"1083 1278 OFFCURVE",
"840 1462 OFFCURVE",
"577 1462 QCURVE SMOOTH",
"88 1462 LINE",
"88 1397 LINE",
"143 1397 LINE SMOOTH",
"215 1397 OFFCURVE",
"287 1341 OFFCURVE",
"287 1239 QCURVE SMOOTH",
"287 223 LINE SMOOTH",
"287 119 OFFCURVE",
"215 66 OFFCURVE",
"143 66 QCURVE SMOOTH",
"88 66 LINE",
"88 0 LINE",
"623 0 LINE"
);
},
{
closed = 1;
nodes = (
"584 1384 LINE SMOOTH",
"784 1384 OFFCURVE",
"938 1233 OFFCURVE",
"938 1073 QCURVE SMOOTH",
"938 905 OFFCURVE",
"764 727 OFFCURVE",
"582 727 QCURVE SMOOTH",
"426 727 LINE",
"426 1384 LINE"
);
}
);
width = 1284;
},
{
layerId = "7FEA46FF-516C-4946-9F17-9EEA76F5F564";
paths = (
{
closed = 1;
nodes = (
"908 712 OFFCURVE",
"1016 772 OFFCURVE",
"1102 862 OFFCURVE",
"1155 985 OFFCURVE",
"1155 1067 QCURVE SMOOTH",
"1155 1265 OFFCURVE",
"895 1462 OFFCURVE",
"629 1462 QCURVE SMOOTH",
"78 1462 LINE",
"78 1376 LINE",
"104 1376 LINE SMOOTH",
"138 1376 OFFCURVE",
"199 1367 OFFCURVE",
"245 1337 OFFCURVE",
"272 1282 OFFCURVE",
"272 1237 QCURVE SMOOTH",
"272 223 LINE SMOOTH",
"272 178 OFFCURVE",
"245 123 OFFCURVE",
"199 95 OFFCURVE",
"138 86 OFFCURVE",
"104 86 QCURVE SMOOTH",
"78 86 LINE",
"78 0 LINE",
"674 0 LINE",
"674 86 LINE",
"647 86 LINE SMOOTH",
"613 86 OFFCURVE",
"552 95 OFFCURVE",
"506 123 OFFCURVE",
"479 178 OFFCURVE",
"479 223 QCURVE SMOOTH",
"479 645 LINE",
"649 645 LINE",
"926 184 LINE SMOOTH",
"961 126 OFFCURVE",
"1022 54 OFFCURVE",
"1108 14 OFFCURVE",
"1231 0 OFFCURVE",
"1327 0 QCURVE SMOOTH",
"1356 0 LINE",
"1356 86 LINE",
"1350 86 LINE SMOOTH",
"1285 86 OFFCURVE",
"1187 168 OFFCURVE",
"1135 250 QCURVE SMOOTH",
"854 694 LINE"
);
},
{
closed = 1;
nodes = (
"618 1364 LINE SMOOTH",
"705 1364 OFFCURVE",
"826 1331 OFFCURVE",
"902 1258 OFFCURVE",
"936 1143 OFFCURVE",
"936 1061 QCURVE SMOOTH",
"936 981 OFFCURVE",
"905 861 OFFCURVE",
"833 781 OFFCURVE",
"713 741 OFFCURVE",
"623 741 QCURVE SMOOTH",
"479 741 LINE",
"479 1364 LINE"
);
}
);
width = 1343;
},
{
layerId = "3CCD85FA-69E6-46C4-A32D-64775BF55ABF";
paths = (
{
closed = 1;
nodes = (
"764 0 LINE",
"764 109 LINE",
"676 109 LINE SMOOTH",
"655 109 OFFCURVE",
"617 117 OFFCURVE",
"588 142 OFFCURVE",
"571 191 OFFCURVE",
"571 231 QCURVE SMOOTH",
"571 635 LINE",
"707 635 LINE",
"950 184 LINE SMOOTH",
"982 127 OFFCURVE",
"1057 55 OFFCURVE",
"1160 14 OFFCURVE",
"1297 0 OFFCURVE",
"1389 0 QCURVE SMOOTH",
"1456 0 LINE",
"1456 109 LINE",
"1448 109 LINE SMOOTH",
"1419 109 OFFCURVE",
"1367 128 OFFCURVE",
"1318 169 OFFCURVE",
"1269 232 OFFCURVE",
"1243 276 QCURVE SMOOTH",
"999 696 LINE",
"1051 717 OFFCURVE",
"1151 782 OFFCURVE",
"1230 876 OFFCURVE",
"1278 1002 OFFCURVE",
"1278 1083 QCURVE SMOOTH",
"1278 1268 OFFCURVE",
"1007 1462 OFFCURVE",
"717 1462 QCURVE SMOOTH",
"57 1462 LINE",
"57 1354 LINE",
"143 1354 LINE SMOOTH",
"164 1354 OFFCURVE",
"202 1345 OFFCURVE",
"231 1319 OFFCURVE",
"248 1270 OFFCURVE",
"248 1229 QCURVE SMOOTH",
"248 231 LINE SMOOTH",
"248 191 OFFCURVE",
"231 142 OFFCURVE",
"202 117 OFFCURVE",
"164 109 OFFCURVE",
"143 109 QCURVE SMOOTH",
"57 109 LINE",
"57 0 LINE"
);
},
{
closed = 1;
nodes = (
"682 1341 LINE SMOOTH",
"750 1341 OFFCURVE",
"846 1310 OFFCURVE",
"906 1241 OFFCURVE",
"934 1133 OFFCURVE",
"934 1055 QCURVE SMOOTH",
"934 980 OFFCURVE",
"909 867 OFFCURVE",
"852 792 OFFCURVE",
"757 754 OFFCURVE",
"686 754 QCURVE SMOOTH",
"571 754 LINE",
"571 1341 LINE"
);
}
);
width = 1448;
},
{
layerId = "6A9350D6-C757-41BD-9D0D-806F72644A83";
paths = (
{
closed = 1;
nodes = (
"791 125 LINE",
"741 125 LINE SMOOTH",
"696 125 OFFCURVE",
"641 162 OFFCURVE",
"641 238 QCURVE SMOOTH",
"641 627 LINE",
"750 627 LINE",
"965 184 LINE SMOOTH",
"1022 70 OFFCURVE",
"1268 0 OFFCURVE",
"1446 0 QCURVE SMOOTH",
"1542 0 LINE",
"1542 125 LINE",
"1528 125 LINE SMOOTH",
"1477 125 OFFCURVE",
"1397 209 OFFCURVE",
"1341 303 QCURVE SMOOTH",
"1108 698 LINE",
"1188 721 OFFCURVE",
"1319 807 OFFCURVE",
"1399 958 OFFCURVE",
"1399 1075 QCURVE SMOOTH",
"1399 1192 OFFCURVE",
"1282 1366 OFFCURVE",
"1012 1462 OFFCURVE",
"782 1462 QCURVE SMOOTH",
"43 1462 LINE",
"43 1337 LINE",
"121 1337 LINE SMOOTH",
"141 1337 OFFCURVE",
"193 1321 OFFCURVE",
"231 1274 OFFCURVE",
"231 1223 QCURVE SMOOTH",
"231 238 LINE SMOOTH",
"231 162 OFFCURVE",
"160 125 OFFCURVE",
"121 125 QCURVE SMOOTH",
"43 125 LINE",
"43 0 LINE",
"791 0 LINE"
);
},
{
closed = 1;
nodes = (
"729 1325 LINE SMOOTH",
"844 1325 OFFCURVE",
"963 1198 OFFCURVE",
"963 1051 QCURVE SMOOTH",
"963 905 OFFCURVE",
"852 762 OFFCURVE",
"733 762 QCURVE SMOOTH",
"641 762 LINE",
"641 1325 LINE"
);
}
);
width = 1542;
}
);
note = glyph53;
unicode = 0052;
},
{
glyphname = glyph54;
lastChange = "2021-04-16 11:22:00 +0000";
layers = (
{
layerId = "0DE963AB-769B-4021-B20D-45864FAF5663";
paths = (
{
closed = 1;
nodes = (
"894 188 OFFCURVE",
"894 346 QCURVE SMOOTH",
"894 467 OFFCURVE",
"790 621 OFFCURVE",
"622 731 OFFCURVE",
"530 786 QCURVE SMOOTH",
"444 836 OFFCURVE",
"323 930 OFFCURVE",
"262 1047 OFFCURVE",
"262 1135 QCURVE SMOOTH",
"262 1262 OFFCURVE",
"409 1432 OFFCURVE",
"554 1432 QCURVE SMOOTH",
"688 1432 OFFCURVE",
"835 1311 OFFCURVE",
"835 1178 QCURVE",
"878 1178 OFFCURVE",
"878 1257 QCURVE SMOOTH",
"878 1352 OFFCURVE",
"698 1483 OFFCURVE",
"556 1483 QCURVE SMOOTH",
"450 1483 OFFCURVE",
"290 1391 OFFCURVE",
"204 1237 OFFCURVE",
"204 1145 QCURVE SMOOTH",
"204 1042 OFFCURVE",
"266 903 OFFCURVE",
"401 793 OFFCURVE",
"509 731 QCURVE SMOOTH",
"626 666 OFFCURVE",
"769 553 OFFCURVE",
"837 426 OFFCURVE",
"837 344 QCURVE SMOOTH",
"837 205 OFFCURVE",
"692 31 OFFCURVE",
"534 31 QCURVE SMOOTH",
"372 31 OFFCURVE",
"196 186 OFFCURVE",
"196 340 QCURVE",
"176 340 OFFCURVE",
"153 295 OFFCURVE",
"153 258 QCURVE SMOOTH",
"153 188 OFFCURVE",
"235 61 OFFCURVE",
"405 -20 OFFCURVE",
"534 -20 QCURVE SMOOTH",
"716 -20 OFFCURVE"
);
}
);
width = 1003;
},
{
layerId = "8C5547AF-2EE0-40C3-888E-C5581C9C595C";
paths = (
{
closed = 1;
nodes = (
"958 193 OFFCURVE",
"958 371 QCURVE SMOOTH",
"958 483 OFFCURVE",
"859 637 OFFCURVE",
"691 750 OFFCURVE",
"583 803 QCURVE SMOOTH",
"478 852 OFFCURVE",
"349 942 OFFCURVE",
"288 1057 OFFCURVE",
"288 1141 QCURVE SMOOTH",
"288 1255 OFFCURVE",
"425 1403 OFFCURVE",
"558 1403 QCURVE SMOOTH",
"689 1403 OFFCURVE",
"810 1260 OFFCURVE",
"810 1147 QCURVE",
"861 1147 OFFCURVE",
"919 1202 OFFCURVE",
"919 1255 QCURVE SMOOTH",
"919 1346 OFFCURVE",
"726 1483 OFFCURVE",
"562 1483 QCURVE SMOOTH",
"444 1483 OFFCURVE",
"261 1393 OFFCURVE",
"159 1233 OFFCURVE",
"159 1126 QCURVE SMOOTH",
"159 1018 OFFCURVE",
"231 864 OFFCURVE",
"384 745 OFFCURVE",
"503 690 QCURVE SMOOTH",
"622 635 OFFCURVE",
"761 535 OFFCURVE",
"824 418 OFFCURVE",
"824 340 QCURVE SMOOTH",
"824 209 OFFCURVE",
"673 57 OFFCURVE",
"528 57 QCURVE SMOOTH",
"374 57 OFFCURVE",
"224 238 OFFCURVE",
"222 375 QCURVE",
"175 375 OFFCURVE",
"122 313 OFFCURVE",
"122 264 QCURVE SMOOTH",
"122 145 OFFCURVE",
"319 -20 OFFCURVE",
"517 -20 QCURVE SMOOTH",
"726 -20 OFFCURVE"
);
}
);
width = 1062;
},
{
layerId = "7FEA46FF-516C-4946-9F17-9EEA76F5F564";
paths = (
{
closed = 1;
nodes = (
"807 35 OFFCURVE",
"939 141 OFFCURVE",
"1010 294 OFFCURVE",
"1010 391 QCURVE SMOOTH",
"1010 470 OFFCURVE",
"958 595 OFFCURVE",
"860 696 OFFCURVE",
"719 778 OFFCURVE",
"629 815 QCURVE SMOOTH",
"540 851 OFFCURVE",
"418 918 OFFCURVE",
"343 993 OFFCURVE",
"311 1086 OFFCURVE",
"311 1147 QCURVE SMOOTH",
"311 1200 OFFCURVE",
"345 1286 OFFCURVE",
"409 1347 OFFCURVE",
"502 1380 OFFCURVE",
"561 1380 QCURVE SMOOTH",
"626 1380 OFFCURVE",
"714 1334 OFFCURVE",
"768 1261 OFFCURVE",
"791 1168 OFFCURVE",
"791 1120 QCURVE",
"865 1120 OFFCURVE",
"952 1187 OFFCURVE",
"952 1253 QCURVE SMOOTH",
"952 1298 OFFCURVE",
"901 1381 OFFCURVE",
"803 1445 OFFCURVE",
"661 1483 OFFCURVE",
"569 1483 QCURVE SMOOTH",
"472 1483 OFFCURVE",
"308 1433 OFFCURVE",
"188 1338 OFFCURVE",
"121 1200 OFFCURVE",
"121 1112 QCURVE SMOOTH",
"121 1028 OFFCURVE",
"167 894 OFFCURVE",
"261 785 OFFCURVE",
"403 696 OFFCURVE",
"498 657 QCURVE SMOOTH",
"588 620 OFFCURVE",
"709 553 OFFCURVE",
"783 480 OFFCURVE",
"815 394 OFFCURVE",
"815 338 QCURVE SMOOTH",
"815 213 OFFCURVE",
"660 80 OFFCURVE",
"522 80 QCURVE SMOOTH",
"450 80 OFFCURVE",
"348 134 OFFCURVE",
"282 224 OFFCURVE",
"249 342 OFFCURVE",
"246 406 QCURVE",
"175 406 OFFCURVE",
"98 330 OFFCURVE",
"98 268 QCURVE SMOOTH",
"98 204 OFFCURVE",
"150 97 OFFCURVE",
"253 22 OFFCURVE",
"406 -20 OFFCURVE",
"506 -20 QCURVE SMOOTH",
"621 -20 OFFCURVE"
);
}
);
width = 1114;
},
{
layerId = "3CCD85FA-69E6-46C4-A32D-64775BF55ABF";
paths = (
{
closed = 1;
nodes = (
"874 46 OFFCURVE",
"1020 164 OFFCURVE",
"1098 329 OFFCURVE",
"1098 428 QCURVE SMOOTH",
"1098 503 OFFCURVE",
"1055 626 OFFCURVE",
"960 729 OFFCURVE",
"812 819 OFFCURVE",
"707 862 QCURVE SMOOTH",
"603 904 OFFCURVE",
"472 977 OFFCURVE",
"397 1050 OFFCURVE",
"369 1126 OFFCURVE",
"369 1169 QCURVE SMOOTH",
"369 1215 OFFCURVE",
"401 1286 OFFCURVE",
"456 1334 OFFCURVE",
"530 1358 OFFCURVE",
"571 1358 QCURVE SMOOTH",
"630 1358 OFFCURVE",
"713 1302 OFFCURVE",
"765 1217 OFFCURVE",
"788 1118 OFFCURVE",
"788 1075 QCURVE",
"851 1075 OFFCURVE",
"946 1101 OFFCURVE",
"1009 1147 OFFCURVE",
"1040 1209 OFFCURVE",
"1040 1245 QCURVE SMOOTH",
"1040 1295 OFFCURVE",
"988 1382 OFFCURVE",
"881 1446 OFFCURVE",
"717 1483 OFFCURVE",
"604 1483 QCURVE SMOOTH",
"496 1483 OFFCURVE",
"312 1425 OFFCURVE",
"178 1317 OFFCURVE",
"102 1165 OFFCURVE",
"102 1071 QCURVE SMOOTH",
"102 996 OFFCURVE",
"141 870 OFFCURVE",
"231 762 OFFCURVE",
"378 669 OFFCURVE",
"485 625 QCURVE SMOOTH",
"571 589 OFFCURVE",
"700 526 OFFCURVE",
"785 457 OFFCURVE",
"827 376 OFFCURVE",
"827 324 QCURVE SMOOTH",
"827 277 OFFCURVE",
"793 196 OFFCURVE",
"727 136 OFFCURVE",
"633 102 OFFCURVE",
"573 102 QCURVE SMOOTH",
"512 102 OFFCURVE",
"409 147 OFFCURVE",
"335 236 OFFCURVE",
"293 369 OFFCURVE",
"293 457 QCURVE",
"248 457 OFFCURVE",
"165 437 OFFCURVE",
"100 391 OFFCURVE",
"61 319 OFFCURVE",
"61 266 QCURVE SMOOTH",
"61 216 OFFCURVE",
"108 114 OFFCURVE",
"219 32 OFFCURVE",
"403 -20 OFFCURVE",
"541 -20 QCURVE SMOOTH",
"669 -20 OFFCURVE"
);
}
);
width = 1200;
},
{
layerId = "6A9350D6-C757-41BD-9D0D-806F72644A83";
paths = (
{
closed = 1;
nodes = (
"1032 96 OFFCURVE",
"1177 301 OFFCURVE",
"1177 434 QCURVE SMOOTH",
"1177 532 OFFCURVE",
"1108 694 OFFCURVE",
"934 836 OFFCURVE",
"778 897 QCURVE SMOOTH",
"627 958 OFFCURVE",
"469 1059 OFFCURVE",
"416 1145 OFFCURVE",
"416 1186 QCURVE SMOOTH",
"416 1268 OFFCURVE",
"520 1341 OFFCURVE",
"596 1341 QCURVE SMOOTH",
"667 1341 OFFCURVE",
"770 1249 OFFCURVE",
"823 1110 OFFCURVE",
"823 1042 QCURVE",
"987 1042 OFFCURVE",
"1120 1147 OFFCURVE",
"1120 1225 QCURVE SMOOTH",
"1120 1286 OFFCURVE",
"1020 1405 OFFCURVE",
"811 1483 OFFCURVE",
"645 1483 QCURVE SMOOTH",
"489 1483 OFFCURVE",
"239 1380 OFFCURVE",
"94 1192 OFFCURVE",
"94 1061 QCURVE SMOOTH",
"94 971 OFFCURVE",
"164 807 OFFCURVE",
"336 664 OFFCURVE",
"491 600 QCURVE SMOOTH",
"657 532 OFFCURVE",
"852 412 OFFCURVE",
"852 313 QCURVE SMOOTH",
"852 242 OFFCURVE",
"733 119 OFFCURVE",
"627 119 QCURVE SMOOTH",
"555 119 OFFCURVE",
"414 190 OFFCURVE",
"321 354 OFFCURVE",
"321 494 QCURVE",
"252 494 OFFCURVE",
"129 455 OFFCURVE",
"49 356 OFFCURVE",
"49 264 QCURVE SMOOTH",
"49 225 OFFCURVE",
"92 127 OFFCURVE",
"207 37 OFFCURVE",
"416 -20 OFFCURVE",
"581 -20 QCURVE SMOOTH",
"764 -20 OFFCURVE"
);
}
);
width = 1239;
}
);
note = glyph54;
unicode = 0053;
},
{
glyphname = glyph55;
lastChange = "2021-04-16 11:22:00 +0000";
layers = (
{
layerId = "0DE963AB-769B-4021-B20D-45864FAF5663";
paths = (
{
closed = 1;
nodes = (
"845 41 LINE",
"714 41 LINE SMOOTH",
"663 41 OFFCURVE",
"614 66 OFFCURVE",
"600 143 OFFCURVE",
"600 221 QCURVE SMOOTH",
"600 1411 LINE",
"911 1411 LINE SMOOTH",
"991 1411 OFFCURVE",
"1032 1354 OFFCURVE",
"1036 1270 QCURVE SMOOTH",
"1042 1153 LINE",
"1083 1153 LINE",
"1071 1462 LINE",
"77 1462 LINE",
"65 1153 LINE",
"106 1153 LINE",
"112 1270 LINE SMOOTH",
"116 1354 OFFCURVE",
"157 1411 OFFCURVE",
"237 1411 QCURVE SMOOTH",
"542 1411 LINE",
"542 221 LINE SMOOTH",
"542 143 OFFCURVE",
"528 66 OFFCURVE",
"479 41 OFFCURVE",
"427 41 QCURVE SMOOTH",
"294 41 LINE",
"294 0 LINE",
"845 0 LINE"
);
}
);
width = 1153;
},
{
layerId = "8C5547AF-2EE0-40C3-888E-C5581C9C595C";
paths = (
{
closed = 1;
nodes = (
"899 66 LINE",
"815 66 LINE SMOOTH",
"741 66 OFFCURVE",
"669 121 OFFCURVE",
"669 227 QCURVE SMOOTH",
"669 1382 LINE",
"919 1382 LINE SMOOTH",
"1007 1382 OFFCURVE",
"1063 1303 OFFCURVE",
"1069 1227 QCURVE SMOOTH",
"1077 1126 LINE",
"1155 1126 LINE",
"1143 1462 LINE",
"63 1462 LINE",
"51 1126 LINE",
"129 1126 LINE",
"137 1227 LINE SMOOTH",
"143 1303 OFFCURVE",
"201 1382 OFFCURVE",
"284 1382 QCURVE SMOOTH",
"532 1382 LINE",
"532 223 LINE SMOOTH",
"532 119 OFFCURVE",
"459 66 OFFCURVE",
"387 66 QCURVE SMOOTH",
"301 66 LINE",
"301 0 LINE",
"899 0 LINE"
);
}
);
width = 1208;
},
{
layerId = "7FEA46FF-516C-4946-9F17-9EEA76F5F564";
paths = (
{
closed = 1;
nodes = (
"928 1360 LINE SMOOTH",
"974 1360 OFFCURVE",
"1036 1333 OFFCURVE",
"1074 1287 OFFCURVE",
"1094 1226 OFFCURVE",
"1098 1192 QCURVE SMOOTH",
"1108 1104 LINE",
"1214 1104 LINE",
"1204 1462 LINE",
"51 1462 LINE",
"41 1104 LINE",
"147 1104 LINE",
"158 1192 LINE SMOOTH",
"162 1226 OFFCURVE",
"181 1287 OFFCURVE",
"220 1333 OFFCURVE",
"281 1360 OFFCURVE",
"326 1360 QCURVE SMOOTH",
"522 1360 LINE",
"522 223 LINE SMOOTH",
"522 178 OFFCURVE",
"495 123 OFFCURVE",
"449 95 OFFCURVE",
"388 86 OFFCURVE",
"354 86 QCURVE SMOOTH",
"307 86 LINE",
"307 0 LINE",
"944 0 LINE",
"944 86 LINE",
"897 86 LINE SMOOTH",
"863 86 OFFCURVE",
"801 96 OFFCURVE",
"756 127 OFFCURVE",
"729 185 OFFCURVE",
"729 233 QCURVE SMOOTH",
"729 1360 LINE"
);
}
);
width = 1255;
},
{
layerId = "3CCD85FA-69E6-46C4-A32D-64775BF55ABF";
paths = (
{
closed = 1;
nodes = (
"995 1337 LINE SMOOTH",
"1041 1337 OFFCURVE",
"1103 1317 OFFCURVE",
"1142 1280 OFFCURVE",
"1161 1226 OFFCURVE",
"1165 1192 QCURVE SMOOTH",
"1180 1065 LINE",
"1317 1065 LINE",
"1307 1462 LINE",
"31 1462 LINE",
"20 1065 LINE",
"158 1065 LINE",
"172 1192 LINE SMOOTH",
"176 1226 OFFCURVE",
"195 1280 OFFCURVE",
"234 1317 OFFCURVE",
"296 1337 OFFCURVE",
"342 1337 QCURVE SMOOTH",
"506 1337 LINE",
"506 242 LINE SMOOTH",
"506 198 OFFCURVE",
"490 146 OFFCURVE",
"462 118 OFFCURVE",
"424 109 OFFCURVE",
"401 109 QCURVE SMOOTH",
"315 109 LINE",
"315 0 LINE",
"1022 0 LINE",
"1022 109 LINE",
"936 109 LINE SMOOTH",
"914 109 OFFCURVE",
"876 118 OFFCURVE",
"847 146 OFFCURVE",
"831 198 OFFCURVE",
"831 242 QCURVE SMOOTH",
"831 1337 LINE"
);
}
);
width = 1337;
},
{
layerId = "6A9350D6-C757-41BD-9D0D-806F72644A83";
paths = (
{
closed = 1;
nodes = (
"1100 125 LINE",
"1034 125 LINE SMOOTH",
"977 125 OFFCURVE",
"907 166 OFFCURVE",
"907 248 QCURVE SMOOTH",
"907 1321 LINE",
"1046 1321 LINE SMOOTH",
"1139 1321 OFFCURVE",
"1208 1260 OFFCURVE",
"1216 1192 QCURVE SMOOTH",
"1233 1036 LINE",
"1392 1036 LINE",
"1382 1462 LINE",
"16 1462 LINE",
"6 1036 LINE",
"166 1036 LINE",
"184 1192 LINE SMOOTH",
"192 1260 OFFCURVE",
"262 1321 OFFCURVE",
"354 1321 QCURVE SMOOTH",
"493 1321 LINE",
"493 256 LINE SMOOTH",
"493 170 OFFCURVE",
"426 125 OFFCURVE",
"366 125 QCURVE SMOOTH",
"301 125 LINE",
"301 0 LINE",
"1100 0 LINE"
);
}
);
width = 1396;
}
);
note = glyph55;
unicode = 0054;
},
{
glyphname = glyph56;
lastChange = "2021-04-16 11:22:00 +0000";
layers = (
{
layerId = "0DE963AB-769B-4021-B20D-45864FAF5663";
paths = (
{
closed = 1;
nodes = (
"1062 102 OFFCURVE",
"1165 313 OFFCURVE",
"1165 446 QCURVE SMOOTH",
"1165 1241 LINE SMOOTH",
"1165 1319 OFFCURVE",
"1179 1397 OFFCURVE",
"1228 1421 OFFCURVE",
"1279 1421 QCURVE SMOOTH",
"1359 1421 LINE",
"1359 1462 LINE",
"909 1462 LINE",
"909 1421 LINE",
"993 1421 LINE SMOOTH",
"1044 1421 OFFCURVE",
"1093 1397 OFFCURVE",
"1107 1319 OFFCURVE",
"1107 1241 QCURVE SMOOTH",
"1107 449 LINE SMOOTH",
"1107 332 OFFCURVE",
"1019 143 OFFCURVE",
"835 31 OFFCURVE",
"692 31 QCURVE SMOOTH",
"501 31 OFFCURVE",
"282 225 OFFCURVE",
"282 430 QCURVE SMOOTH",
"282 1241 LINE SMOOTH",
"282 1319 OFFCURVE",
"296 1397 OFFCURVE",
"345 1421 OFFCURVE",
"397 1421 QCURVE SMOOTH",
"483 1421 LINE",
"483 1462 LINE",
"26 1462 LINE",
"26 1421 LINE",
"110 1421 LINE SMOOTH",
"161 1421 OFFCURVE",
"210 1397 OFFCURVE",
"225 1319 OFFCURVE",
"225 1241 QCURVE SMOOTH",
"225 438 LINE SMOOTH",
"225 270 OFFCURVE",
"343 70 OFFCURVE",
"554 -20 OFFCURVE",
"696 -20 QCURVE SMOOTH",
"855 -20 OFFCURVE"
);
}
);
width = 1390;
},
{
layerId = "8C5547AF-2EE0-40C3-888E-C5581C9C595C";
paths = (
{
closed = 1;
nodes = (
"1208 229 OFFCURVE",
"1208 430 QCURVE SMOOTH",
"1208 1235 LINE SMOOTH",
"1208 1341 OFFCURVE",
"1279 1397 OFFCURVE",
"1351 1397 QCURVE SMOOTH",
"1402 1397 LINE",
"1402 1462 LINE",
"917 1462 LINE",
"917 1397 LINE",
"970 1397 LINE SMOOTH",
"1040 1397 OFFCURVE",
"1113 1341 OFFCURVE",
"1113 1239 QCURVE SMOOTH",
"1113 434 LINE SMOOTH",
"1113 332 OFFCURVE",
"1034 166 OFFCURVE",
"868 70 OFFCURVE",
"737 70 QCURVE SMOOTH",
"569 70 OFFCURVE",
"364 240 OFFCURVE",
"364 430 QCURVE SMOOTH",
"364 1235 LINE SMOOTH",
"364 1341 OFFCURVE",
"436 1397 OFFCURVE",
"507 1397 QCURVE SMOOTH",
"560 1397 LINE",
"560 1462 LINE",
"28 1462 LINE",
"28 1397 LINE",
"81 1397 LINE SMOOTH",
"153 1397 OFFCURVE",
"225 1341 OFFCURVE",
"225 1239 QCURVE SMOOTH",
"225 440 LINE SMOOTH",
"225 190 OFFCURVE",
"491 -20 OFFCURVE",
"720 -20 QCURVE SMOOTH",
"962 -20 OFFCURVE"
);
}
);
width = 1433;
},
{
layerId = "7FEA46FF-516C-4946-9F17-9EEA76F5F564";
paths = (
{
closed = 1;
nodes = (
"1051 40 OFFCURVE",
"1178 153 OFFCURVE",
"1243 316 OFFCURVE",
"1243 418 QCURVE SMOOTH",
"1243 1229 LINE SMOOTH",
"1243 1277 OFFCURVE",
"1270 1335 OFFCURVE",
"1315 1366 OFFCURVE",
"1377 1376 OFFCURVE",
"1411 1376 QCURVE SMOOTH",
"1438 1376 LINE",
"1438 1462 LINE",
"924 1462 LINE",
"924 1376 LINE",
"950 1376 LINE SMOOTH",
"984 1376 OFFCURVE",
"1045 1367 OFFCURVE",
"1091 1337 OFFCURVE",
"1118 1282 OFFCURVE",
"1118 1237 QCURVE SMOOTH",
"1118 422 LINE SMOOTH",
"1118 352 OFFCURVE",
"1077 235 OFFCURVE",
"992 150 OFFCURVE",
"863 102 OFFCURVE",
"774 102 QCURVE SMOOTH",
"699 102 OFFCURVE",
"574 138 OFFCURVE",
"483 216 OFFCURVE",
"432 341 OFFCURVE",
"432 430 QCURVE SMOOTH",
"432 1229 LINE SMOOTH",
"432 1277 OFFCURVE",
"459 1335 OFFCURVE",
"504 1366 OFFCURVE",
"566 1376 OFFCURVE",
"600 1376 QCURVE SMOOTH",
"627 1376 LINE",
"627 1462 LINE",
"31 1462 LINE",
"31 1376 LINE",
"57 1376 LINE SMOOTH",
"91 1376 OFFCURVE",
"152 1367 OFFCURVE",
"198 1337 OFFCURVE",
"225 1282 OFFCURVE",
"225 1237 QCURVE SMOOTH",
"225 442 LINE SMOOTH",
"225 317 OFFCURVE",
"295 142 OFFCURVE",
"428 31 OFFCURVE",
"620 -20 OFFCURVE",
"741 -20 QCURVE SMOOTH",
"863 -20 OFFCURVE"
);
}
);
width = 1468;
},
{
layerId = "3CCD85FA-69E6-46C4-A32D-64775BF55ABF";
paths = (
{
closed = 1;
nodes = (
"961 1462 LINE",
"961 1354 LINE",
"1047 1354 LINE SMOOTH",
"1068 1354 OFFCURVE",
"1106 1345 OFFCURVE",
"1135 1319 OFFCURVE",
"1151 1270 OFFCURVE",
"1151 1229 QCURVE SMOOTH",
"1151 426 LINE SMOOTH",
"1151 348 OFFCURVE",
"1109 234 OFFCURVE",
"1032 160 OFFCURVE",
"922 125 OFFCURVE",
"854 125 QCURVE SMOOTH",
"784 125 OFFCURVE",
"672 156 OFFCURVE",
"592 227 OFFCURVE",
"549 344 OFFCURVE",
"549 430 QCURVE SMOOTH",
"549 1221 LINE SMOOTH",
"549 1265 OFFCURVE",
"565 1317 OFFCURVE",
"594 1345 OFFCURVE",
"632 1354 OFFCURVE",
"653 1354 QCURVE SMOOTH",
"739 1354 LINE",
"739 1462 LINE",
"33 1462 LINE",
"33 1354 LINE",
"121 1354 LINE SMOOTH",
"142 1354 OFFCURVE",
"179 1345 OFFCURVE",
"208 1319 OFFCURVE",
"225 1270 OFFCURVE",
"225 1229 QCURVE SMOOTH",
"225 446 LINE SMOOTH",
"225 320 OFFCURVE",
"302 143 OFFCURVE",
"448 31 OFFCURVE",
"659 -20 OFFCURVE",
"793 -20 QCURVE SMOOTH",
"927 -20 OFFCURVE",
"1121 41 OFFCURVE",
"1246 155 OFFCURVE",
"1305 319 OFFCURVE",
"1305 422 QCURVE SMOOTH",
"1305 1221 LINE SMOOTH",
"1305 1265 OFFCURVE",
"1321 1317 OFFCURVE",
"1350 1345 OFFCURVE",
"1388 1354 OFFCURVE",
"1409 1354 QCURVE SMOOTH",
"1497 1354 LINE",
"1497 1462 LINE"
);
}
);
width = 1530;
},
{
layerId = "6A9350D6-C757-41BD-9D0D-806F72644A83";
paths = (
{
closed = 1;
nodes = (
"1240 98 OFFCURVE",
"1349 307 OFFCURVE",
"1349 444 QCURVE SMOOTH",
"1349 1214 LINE SMOOTH",
"1349 1296 OFFCURVE",
"1425 1337 OFFCURVE",
"1480 1337 QCURVE SMOOTH",
"1541 1337 LINE",
"1541 1462 LINE",
"988 1462 LINE",
"988 1337 LINE",
"1048 1337 LINE SMOOTH",
"1103 1337 OFFCURVE",
"1175 1298 OFFCURVE",
"1175 1223 QCURVE SMOOTH",
"1175 449 LINE SMOOTH",
"1175 336 OFFCURVE",
"1103 201 OFFCURVE",
"984 141 OFFCURVE",
"913 141 QCURVE SMOOTH",
"779 141 OFFCURVE",
"634 262 OFFCURVE",
"634 430 QCURVE SMOOTH",
"634 1214 LINE SMOOTH",
"634 1296 OFFCURVE",
"710 1337 OFFCURVE",
"763 1337 QCURVE SMOOTH",
"822 1337 LINE",
"822 1462 LINE",
"34 1462 LINE",
"34 1337 LINE",
"93 1337 LINE SMOOTH",
"147 1337 OFFCURVE",
"224 1298 OFFCURVE",
"224 1223 QCURVE SMOOTH",
"224 449 LINE SMOOTH",
"224 281 OFFCURVE",
"374 74 OFFCURVE",
"638 -20 OFFCURVE",
"810 -20 QCURVE SMOOTH",
"1003 -20 OFFCURVE"
);
}
);
width = 1574;
}
);
note = glyph56;
unicode = 0055;
},
{
glyphname = glyph57;
lastChange = "2021-04-16 11:22:00 +0000";
layers = (
{
layerId = "0DE963AB-769B-4021-B20D-45864FAF5663";
paths = (
{
closed = 1;
nodes = (
"1137 1323 LINE SMOOTH",
"1151 1368 OFFCURVE",
"1178 1409 OFFCURVE",
"1223 1421 OFFCURVE",
"1270 1421 QCURVE SMOOTH",
"1321 1421 LINE",
"1321 1462 LINE",
"879 1462 LINE",
"879 1421 LINE",
"965 1421 LINE SMOOTH",
"1040 1421 OFFCURVE",
"1077 1393 OFFCURVE",
"1077 1364 QCURVE SMOOTH",
"1077 1339 OFFCURVE",
"1053 1260 OFFCURVE",
"1026 1180 OFFCURVE",
"1020 1161 QCURVE SMOOTH",
"795 500 LINE SMOOTH",
"762 403 OFFCURVE",
"715 260 OFFCURVE",
"678 135 OFFCURVE",
"659 72 QCURVE",
"631 162 OFFCURVE",
"563 362 OFFCURVE",
"516 500 QCURVE SMOOTH",
"285 1161 LINE",
"279 1184 OFFCURVE",
"250 1262 OFFCURVE",
"227 1339 OFFCURVE",
"227 1364 QCURVE SMOOTH",
"227 1393 OFFCURVE",
"262 1421 OFFCURVE",
"340 1421 QCURVE SMOOTH",
"440 1421 LINE",
"440 1462 LINE",
"0 1462 LINE",
"0 1421 LINE",
"35 1421 LINE SMOOTH",
"82 1421 OFFCURVE",
"127 1409 OFFCURVE",
"152 1368 OFFCURVE",
"168 1323 QCURVE SMOOTH",
"629 0 LINE",
"688 0 LINE"
);
}
);
width = 1320;
},
{
layerId = "8C5547AF-2EE0-40C3-888E-C5581C9C595C";
paths = (
{
closed = 1;
nodes = (
"1165 1266 LINE SMOOTH",
"1184 1323 OFFCURVE",
"1217 1378 OFFCURVE",
"1266 1397 OFFCURVE",
"1311 1397 QCURVE SMOOTH",
"1354 1397 LINE",
"1354 1462 LINE",
"881 1462 LINE",
"881 1397 LINE",
"946 1397 LINE SMOOTH",
"1016 1397 OFFCURVE",
"1071 1358 OFFCURVE",
"1071 1317 QCURVE SMOOTH",
"1071 1290 OFFCURVE",
"1044 1202 OFFCURVE",
"1034 1176 QCURVE SMOOTH",
"809 520 LINE SMOOTH",
"770 401 OFFCURVE",
"717 225 OFFCURVE",
"696 141 QCURVE",
"674 223 OFFCURVE",
"621 408 OFFCURVE",
"582 520 QCURVE SMOOTH",
"352 1184 LINE",
"344 1212 OFFCURVE",
"317 1292 OFFCURVE",
"317 1317 QCURVE SMOOTH",
"317 1358 OFFCURVE",
"367 1397 OFFCURVE",
"436 1397 QCURVE SMOOTH",
"508 1397 LINE",
"508 1462 LINE",
"0 1462 LINE",
"0 1397 LINE",
"31 1397 LINE SMOOTH",
"94 1397 OFFCURVE",
"147 1358 OFFCURVE",
"170 1292 QCURVE SMOOTH",
"621 0 LINE",
"729 0 LINE"
);
}
);
width = 1353;
},
{
layerId = "7FEA46FF-516C-4946-9F17-9EEA76F5F564";
paths = (
{
closed = 1;
nodes = (
"1188 1217 LINE SMOOTH",
"1205 1267 OFFCURVE",
"1235 1329 OFFCURVE",
"1270 1364 OFFCURVE",
"1313 1376 OFFCURVE",
"1343 1376 QCURVE SMOOTH",
"1382 1376 LINE",
"1382 1462 LINE",
"883 1462 LINE",
"883 1376 LINE",
"930 1376 LINE SMOOTH",
"998 1376 OFFCURVE",
"1065 1329 OFFCURVE",
"1065 1276 QCURVE SMOOTH",
"1065 1259 OFFCURVE",
"1055 1213 OFFCURVE",
"1047 1188 QCURVE SMOOTH",
"821 537 LINE SMOOTH",
"787 441 OFFCURVE",
"743 275 OFFCURVE",
"727 201 QCURVE",
"710 275 OFFCURVE",
"666 446 OFFCURVE",
"635 537 QCURVE SMOOTH",
"410 1202 LINE SMOOTH",
"402 1225 OFFCURVE",
"393 1261 OFFCURVE",
"393 1278 QCURVE SMOOTH",
"393 1329 OFFCURVE",
"454 1376 OFFCURVE",
"516 1376 QCURVE SMOOTH",
"563 1376 LINE",
"563 1462 LINE",
"0 1462 LINE",
"0 1376 LINE",
"27 1376 LINE SMOOTH",
"57 1376 OFFCURVE",
"101 1366 OFFCURVE",
"135 1342 OFFCURVE",
"161 1300 OFFCURVE",
"172 1268 QCURVE SMOOTH",
"614 0 LINE",
"764 0 LINE"
);
}
);
width = 1382;
},
{
layerId = "3CCD85FA-69E6-46C4-A32D-64775BF55ABF";
paths = (
{
closed = 1;
nodes = (
"901 1462 LINE",
"901 1354 LINE",
"1008 1354 LINE SMOOTH",
"1045 1354 OFFCURVE",
"1090 1318 OFFCURVE",
"1090 1284 QCURVE SMOOTH",
"1090 1276 OFFCURVE",
"1085 1250 OFFCURVE",
"1078 1222 OFFCURVE",
"1069 1195 OFFCURVE",
"1065 1184 QCURVE SMOOTH",
"854 561 LINE SMOOTH",
"845 533 OFFCURVE",
"824 464 OFFCURVE",
"804 395 OFFCURVE",
"789 336 OFFCURVE",
"786 319 QCURVE",
"783 347 OFFCURVE",
"770 414 OFFCURVE",
"754 482 OFFCURVE",
"737 544 OFFCURVE",
"729 567 QCURVE SMOOTH",
"520 1198 LINE SMOOTH",
"514 1215 OFFCURVE",
"502 1266 OFFCURVE",
"502 1286 QCURVE SMOOTH",
"502 1305 OFFCURVE",
"516 1331 OFFCURVE",
"539 1347 OFFCURVE",
"567 1354 OFFCURVE",
"582 1354 QCURVE SMOOTH",
"676 1354 LINE",
"676 1462 LINE",
"0 1462 LINE",
"0 1354 LINE",
"47 1354 LINE SMOOTH",
"62 1354 OFFCURVE",
"98 1345 OFFCURVE",
"133 1323 OFFCURVE",
"164 1284 OFFCURVE",
"174 1255 QCURVE SMOOTH",
"610 0 LINE",
"815 0 LINE",
"1233 1204 LINE SMOOTH",
"1249 1251 OFFCURVE",
"1273 1309 OFFCURVE",
"1295 1342 OFFCURVE",
"1317 1354 OFFCURVE",
"1331 1354 QCURVE SMOOTH",
"1430 1354 LINE",
"1430 1462 LINE"
);
}
);
width = 1430;
},
{
layerId = "6A9350D6-C757-41BD-9D0D-806F72644A83";
paths = (
{
closed = 1;
nodes = (
"1266 1196 LINE SMOOTH",
"1296 1286 OFFCURVE",
"1348 1337 OFFCURVE",
"1393 1337 QCURVE SMOOTH",
"1464 1337 LINE",
"1464 1462 LINE",
"936 1462 LINE",
"936 1337 LINE",
"1053 1337 LINE SMOOTH",
"1083 1337 OFFCURVE",
"1108 1311 OFFCURVE",
"1108 1296 QCURVE SMOOTH",
"1108 1274 OFFCURVE",
"1087 1206 OFFCURVE",
"1073 1163 QCURVE SMOOTH",
"879 580 LINE SMOOTH",
"866 545 OFFCURVE",
"838 432 OFFCURVE",
"834 397 QCURVE",
"831 426 OFFCURVE",
"817 504 OFFCURVE",
"803 573 OFFCURVE",
"799 590 QCURVE",
"606 1184 LINE SMOOTH",
"598 1210 OFFCURVE",
"582 1270 OFFCURVE",
"582 1292 QCURVE SMOOTH",
"582 1337 OFFCURVE",
"641 1337 QCURVE SMOOTH",
"739 1337 LINE",
"739 1462 LINE",
"0 1462 LINE",
"0 1337 LINE",
"61 1337 LINE SMOOTH",
"92 1337 OFFCURVE",
"158 1300 OFFCURVE",
"176 1247 QCURVE SMOOTH",
"608 0 LINE",
"852 0 LINE"
);
}
);
width = 1464;
}
);
note = glyph57;
unicode = 0056;
},
{
glyphname = glyph58;
lastChange = "2021-04-16 11:22:00 +0000";
layers = (
{
layerId = "0DE963AB-769B-4021-B20D-45864FAF5663";
paths = (
{
closed = 1;
nodes = (
"1038 1370 LINE",
"1397 0 LINE",
"1454 0 LINE",
"1862 1321 LINE SMOOTH",
"1876 1368 OFFCURVE",
"1903 1409 OFFCURVE",
"1950 1421 OFFCURVE",
"1995 1421 QCURVE SMOOTH",
"2052 1421 LINE",
"2052 1462 LINE",
"1618 1462 LINE",
"1618 1421 LINE",
"1690 1421 LINE SMOOTH",
"1765 1421 OFFCURVE",
"1802 1393 OFFCURVE",
"1802 1364 QCURVE SMOOTH",
"1802 1343 OFFCURVE",
"1784 1276 OFFCURVE",
"1767 1219 QCURVE SMOOTH",
"1524 420 LINE SMOOTH",
"1495 332 OFFCURVE",
"1446 150 OFFCURVE",
"1432 84 QCURVE",
"1415 162 OFFCURVE",
"1372 326 OFFCURVE",
"1346 426 QCURVE SMOOTH",
"1069 1462 LINE",
"1012 1462 LINE",
"725 387 LINE SMOOTH",
"702 303 OFFCURVE",
"674 168 OFFCURVE",
"655 82 QCURVE",
"639 143 OFFCURVE",
"616 231 OFFCURVE",
"590 324 OFFCURVE",
"571 387 QCURVE SMOOTH",
"315 1219 LINE SMOOTH",
"297 1278 OFFCURVE",
"279 1343 OFFCURVE",
"279 1364 QCURVE SMOOTH",
"279 1393 OFFCURVE",
"315 1421 OFFCURVE",
"391 1421 QCURVE SMOOTH",
"475 1421 LINE",
"475 1462 LINE",
"43 1462 LINE",
"43 1421 LINE",
"88 1421 LINE SMOOTH",
"135 1421 OFFCURVE",
"182 1409 OFFCURVE",
"209 1368 OFFCURVE",
"221 1323 QCURVE SMOOTH",
"627 0 LINE",
"684 0 LINE"
);
}
);
width = 2091;
},
{
layerId = "8C5547AF-2EE0-40C3-888E-C5581C9C595C";
paths = (
{
closed = 1;
nodes = (
"1054 1249 LINE",
"1398 0 LINE",
"1525 0 LINE",
"1900 1264 LINE SMOOTH",
"1924 1352 OFFCURVE",
"1982 1397 OFFCURVE",
"2045 1397 QCURVE SMOOTH",
"2092 1397 LINE",
"2092 1462 LINE",
"1621 1462 LINE",
"1621 1397 LINE",
"1681 1397 LINE SMOOTH",
"1752 1397 OFFCURVE",
"1806 1358 OFFCURVE",
"1806 1317 QCURVE SMOOTH",
"1806 1296 OFFCURVE",
"1787 1231 OFFCURVE",
"1777 1192 QCURVE SMOOTH",
"1568 483 LINE SMOOTH",
"1539 389 OFFCURVE",
"1496 217 OFFCURVE",
"1482 147 QCURVE",
"1466 221 OFFCURVE",
"1421 397 OFFCURVE",
"1394 500 QCURVE SMOOTH",
"1128 1454 LINE",
"1021 1454 LINE",
"759 487 LINE SMOOTH",
"733 395 OFFCURVE",
"698 229 OFFCURVE",
"681 147 QCURVE",
"661 229 OFFCURVE",
"622 381 OFFCURVE",
"595 475 QCURVE SMOOTH",
"376 1210 LINE SMOOTH",
"364 1249 OFFCURVE",
"350 1298 OFFCURVE",
"350 1317 QCURVE SMOOTH",
"350 1358 OFFCURVE",
"401 1397 OFFCURVE",
"468 1397 QCURVE SMOOTH",
"532 1397 LINE",
"532 1462 LINE",
"28 1462 LINE",
"28 1397 LINE",
"65 1397 LINE SMOOTH",
"128 1397 OFFCURVE",
"184 1358 OFFCURVE",
"204 1292 QCURVE SMOOTH",
"593 0 LINE",
"722 0 LINE"
);
}
);
width = 2119;
},
{
layerId = "7FEA46FF-516C-4946-9F17-9EEA76F5F564";
paths = (
{
closed = 1;
nodes = (
"788 569 LINE SMOOTH",
"761 470 OFFCURVE",
"720 281 OFFCURVE",
"705 201 QCURVE",
"688 275 OFFCURVE",
"642 454 OFFCURVE",
"616 547 QCURVE SMOOTH",
"428 1202 LINE SMOOTH",
"422 1225 OFFCURVE",
"412 1261 OFFCURVE",
"412 1278 QCURVE SMOOTH",
"412 1329 OFFCURVE",
"473 1376 OFFCURVE",
"535 1376 QCURVE SMOOTH",
"582 1376 LINE",
"582 1462 LINE",
"18 1462 LINE",
"18 1376 LINE",
"45 1376 LINE SMOOTH",
"75 1376 OFFCURVE",
"121 1366 OFFCURVE",
"155 1342 OFFCURVE",
"180 1300 OFFCURVE",
"190 1268 QCURVE SMOOTH",
"565 0 LINE",
"754 0 LINE",
"1067 1147 LINE",
"1401 0 LINE",
"1585 0 LINE",
"1931 1217 LINE SMOOTH",
"1946 1268 OFFCURVE",
"1976 1330 OFFCURVE",
"2012 1364 OFFCURVE",
"2057 1376 OFFCURVE",
"2087 1376 QCURVE SMOOTH",
"2126 1376 LINE",
"2126 1462 LINE",
"1626 1462 LINE",
"1626 1376 LINE",
"1673 1376 LINE SMOOTH",
"1741 1376 OFFCURVE",
"1808 1329 OFFCURVE",
"1808 1276 QCURVE SMOOTH",
"1808 1267 OFFCURVE",
"1803 1241 OFFCURVE",
"1797 1211 OFFCURVE",
"1789 1181 OFFCURVE",
"1786 1169 QCURVE SMOOTH",
"1606 537 LINE SMOOTH",
"1578 438 OFFCURVE",
"1539 275 OFFCURVE",
"1524 201 QCURVE",
"1510 272 OFFCURVE",
"1465 459 OFFCURVE",
"1436 561 QCURVE SMOOTH",
"1180 1448 LINE",
"1032 1448 LINE"
);
}
);
width = 2144;
},
{
layerId = "3CCD85FA-69E6-46C4-A32D-64775BF55ABF";
paths = (
{
closed = 1;
nodes = (
"817 571 LINE SMOOTH",
"799 511 OFFCURVE",
"766 396 OFFCURVE",
"752 330 QCURVE",
"748 363 OFFCURVE",
"730 449 OFFCURVE",
"708 542 OFFCURVE",
"683 633 OFFCURVE",
"672 672 QCURVE SMOOTH",
"535 1145 LINE SMOOTH",
"527 1173 OFFCURVE",
"514 1238 OFFCURVE",
"514 1255 QCURVE SMOOTH",
"514 1306 OFFCURVE",
"575 1354 OFFCURVE",
"637 1354 QCURVE SMOOTH",
"684 1354 LINE",
"684 1462 LINE",
"0 1462 LINE",
"0 1354 LINE",
"27 1354 LINE SMOOTH",
"57 1354 OFFCURVE",
"102 1344 OFFCURVE",
"137 1319 OFFCURVE",
"163 1277 OFFCURVE",
"172 1245 QCURVE SMOOTH",
"547 0 LINE",
"801 0 LINE",
"1096 961 LINE",
"1440 0 LINE",
"1673 0 LINE",
"1991 1194 LINE SMOOTH",
"2005 1245 OFFCURVE",
"2034 1307 OFFCURVE",
"2070 1342 OFFCURVE",
"2116 1354 OFFCURVE",
"2146 1354 QCURVE SMOOTH",
"2185 1354 LINE",
"2185 1462 LINE",
"1651 1462 LINE",
"1651 1354 LINE",
"1698 1354 LINE SMOOTH",
"1766 1354 OFFCURVE",
"1829 1310 OFFCURVE",
"1829 1257 QCURVE SMOOTH",
"1829 1249 OFFCURVE",
"1826 1222 OFFCURVE",
"1820 1191 OFFCURVE",
"1813 1159 OFFCURVE",
"1810 1147 QCURVE SMOOTH",
"1702 705 LINE SMOOTH",
"1690 656 OFFCURVE",
"1667 552 OFFCURVE",
"1646 453 OFFCURVE",
"1628 363 OFFCURVE",
"1620 326 QCURVE",
"1615 353 OFFCURVE",
"1595 429 OFFCURVE",
"1569 519 OFFCURVE",
"1538 618 OFFCURVE",
"1520 666 QCURVE SMOOTH",
"1237 1448 LINE",
"1087 1448 LINE"
);
}
);
width = 2185;
},
{
layerId = "6A9350D6-C757-41BD-9D0D-806F72644A83";
paths = (
{
closed = 1;
nodes = (
"1131 907 LINE",
"1420 0 LINE",
"1719 0 LINE",
"2036 1178 LINE SMOOTH",
"2065 1278 OFFCURVE",
"2132 1337 OFFCURVE",
"2192 1337 QCURVE SMOOTH",
"2231 1337 LINE",
"2231 1462 LINE",
"1669 1462 LINE",
"1669 1337 LINE",
"1717 1337 LINE SMOOTH",
"1784 1337 OFFCURVE",
"1841 1294 OFFCURVE",
"1841 1243 QCURVE SMOOTH",
"1841 1217 OFFCURVE",
"1819 1122 OFFCURVE",
"1809 1081 QCURVE SMOOTH",
"1731 776 LINE SMOOTH",
"1717 719 OFFCURVE",
"1682 586 OFFCURVE",
"1653 459 OFFCURVE",
"1645 416 QCURVE",
"1633 479 OFFCURVE",
"1590 647 OFFCURVE",
"1559 743 QCURVE SMOOTH",
"1331 1448 LINE",
"1121 1448 LINE",
"856 668 LINE SMOOTH",
"832 594 OFFCURVE",
"799 481 OFFCURVE",
"787 424 QCURVE",
"779 483 OFFCURVE",
"746 616 OFFCURVE",
"729 680 QCURVE SMOOTH",
"615 1102 LINE SMOOTH",
"606 1135 OFFCURVE",
"590 1223 OFFCURVE",
"590 1239 QCURVE SMOOTH",
"590 1337 OFFCURVE",
"713 1337 QCURVE SMOOTH",
"760 1337 LINE",
"760 1462 LINE",
"-12 1462 LINE",
"-12 1337 LINE",
"15 1337 LINE SMOOTH",
"74 1337 OFFCURVE",
"140 1294 OFFCURVE",
"160 1229 QCURVE SMOOTH",
"535 0 LINE",
"836 0 LINE"
);
}
);
width = 2215;
}
);
note = glyph58;
unicode = 0057;
},
{
glyphname = glyph59;
lastChange = "2021-04-16 11:22:00 +0000";
layers = (
{
layerId = "0DE963AB-769B-4021-B20D-45864FAF5663";
paths = (
{
closed = 1;
nodes = (
"463 41 LINE",
"360 41 LINE SMOOTH",
"305 41 OFFCURVE",
"280 63 OFFCURVE",
"280 82 QCURVE SMOOTH",
"280 106 OFFCURVE",
"321 188 OFFCURVE",
"377 293 QCURVE SMOOTH",
"590 696 LINE",
"835 246 LINE SMOOTH",
"874 176 OFFCURVE",
"909 106 OFFCURVE",
"909 82 QCURVE SMOOTH",
"909 63 OFFCURVE",
"886 41 OFFCURVE",
"835 41 QCURVE SMOOTH",
"757 41 LINE",
"757 0 LINE",
"1155 0 LINE",
"1155 41 LINE",
"1106 41 LINE SMOOTH",
"1061 41 OFFCURVE",
"1016 53 OFFCURVE",
"985 94 OFFCURVE",
"960 139 QCURVE SMOOTH",
"618 756 LINE",
"917 1327 LINE SMOOTH",
"938 1370 OFFCURVE",
"970 1409 OFFCURVE",
"1018 1421 OFFCURVE",
"1063 1421 QCURVE SMOOTH",
"1124 1421 LINE",
"1124 1462 LINE",
"717 1462 LINE",
"717 1421 LINE",
"790 1421 LINE SMOOTH",
"843 1421 OFFCURVE",
"866 1399 OFFCURVE",
"866 1380 QCURVE SMOOTH",
"866 1356 OFFCURVE",
"831 1288 OFFCURVE",
"809 1243 QCURVE SMOOTH",
"585 815 LINE",
"354 1245 LINE SMOOTH",
"327 1292 OFFCURVE",
"297 1356 OFFCURVE",
"297 1380 QCURVE SMOOTH",
"297 1399 OFFCURVE",
"321 1421 OFFCURVE",
"377 1421 QCURVE SMOOTH",
"436 1421 LINE",
"436 1462 LINE",
"37 1462 LINE",
"37 1421 LINE",
"100 1421 LINE SMOOTH",
"145 1421 OFFCURVE",
"190 1409 OFFCURVE",
"221 1368 OFFCURVE",
"245 1325 QCURVE SMOOTH",
"555 758 LINE",
"231 137 LINE SMOOTH",
"209 94 OFFCURVE",
"176 53 OFFCURVE",
"129 41 OFFCURVE",
"84 41 QCURVE SMOOTH",
"12 41 LINE",
"12 0 LINE",
"463 0 LINE"
);
}
);
width = 1167;
},
{
layerId = "8C5547AF-2EE0-40C3-888E-C5581C9C595C";
paths = (
{
closed = 1;
nodes = (
"485 66 LINE",
"436 66 LINE SMOOTH",
"372 66 OFFCURVE",
"325 92 OFFCURVE",
"325 119 QCURVE SMOOTH",
"325 147 OFFCURVE",
"364 227 OFFCURVE",
"399 289 QCURVE SMOOTH",
"620 655 LINE",
"841 272 LINE SMOOTH",
"882 203 OFFCURVE",
"913 145 OFFCURVE",
"913 121 QCURVE SMOOTH",
"913 94 OFFCURVE",
"868 66 OFFCURVE",
"813 66 QCURVE SMOOTH",
"772 66 LINE",
"772 0 LINE",
"1253 0 LINE",
"1253 66 LINE",
"1216 66 LINE SMOOTH",
"1163 66 OFFCURVE",
"1101 106 OFFCURVE",
"1061 170 QCURVE SMOOTH",
"700 780 LINE",
"997 1274 LINE SMOOTH",
"1044 1350 OFFCURVE",
"1110 1397 OFFCURVE",
"1175 1397 QCURVE SMOOTH",
"1212 1397 LINE",
"1212 1462 LINE",
"782 1462 LINE",
"782 1397 LINE",
"819 1397 LINE SMOOTH",
"870 1397 OFFCURVE",
"913 1374 OFFCURVE",
"913 1346 QCURVE SMOOTH",
"913 1319 OFFCURVE",
"882 1253 OFFCURVE",
"860 1214 QCURVE SMOOTH",
"653 860 LINE",
"446 1219 LINE SMOOTH",
"417 1270 OFFCURVE",
"393 1323 OFFCURVE",
"393 1346 QCURVE SMOOTH",
"393 1368 OFFCURVE",
"430 1397 OFFCURVE",
"493 1397 QCURVE SMOOTH",
"524 1397 LINE",
"524 1462 LINE",
"41 1462 LINE",
"41 1397 LINE",
"84 1397 LINE SMOOTH",
"139 1397 OFFCURVE",
"209 1356 OFFCURVE",
"245 1294 QCURVE SMOOTH",
"571 737 LINE",
"237 188 LINE SMOOTH",
"192 115 OFFCURVE",
"123 66 OFFCURVE",
"53 66 QCURVE SMOOTH",
"14 66 LINE",
"14 0 LINE",
"485 0 LINE"
);
}
);
width = 1267;
},
{
layerId = "7FEA46FF-516C-4946-9F17-9EEA76F5F564";
paths = (
{
closed = 1;
nodes = (
"926 1227 OFFCURVE",
"903 1192 QCURVE SMOOTH",
"709 897 LINE",
"524 1196 LINE SMOOTH",
"507 1223 OFFCURVE",
"488 1259 OFFCURVE",
"478 1286 OFFCURVE",
"475 1306 OFFCURVE",
"475 1317 QCURVE SMOOTH",
"475 1329 OFFCURVE",
"485 1351 OFFCURVE",
"511 1367 OFFCURVE",
"557 1376 OFFCURVE",
"592 1376 QCURVE SMOOTH",
"598 1376 LINE",
"598 1462 LINE",
"43 1462 LINE",
"43 1376 LINE",
"70 1376 LINE SMOOTH",
"116 1376 OFFCURVE",
"209 1327 OFFCURVE",
"246 1268 QCURVE SMOOTH",
"584 719 LINE",
"242 229 LINE SMOOTH",
"214 189 OFFCURVE",
"168 135 OFFCURVE",
"121 101 OFFCURVE",
"66 86 OFFCURVE",
"29 86 QCURVE SMOOTH",
"16 86 LINE",
"16 0 LINE",
"504 0 LINE",
"504 86 LINE",
"498 86 LINE SMOOTH",
"430 86 OFFCURVE",
"365 115 OFFCURVE",
"365 150 QCURVE SMOOTH",
"365 166 OFFCURVE",
"375 203 OFFCURVE",
"391 239 OFFCURVE",
"409 272 OFFCURVE",
"418 285 QCURVE SMOOTH",
"645 621 LINE",
"848 295 LINE SMOOTH",
"869 261 OFFCURVE",
"896 217 OFFCURVE",
"910 187 OFFCURVE",
"915 165 OFFCURVE",
"915 154 QCURVE SMOOTH",
"915 86 OFFCURVE",
"793 86 QCURVE SMOOTH",
"782 86 LINE",
"782 0 LINE",
"1335 0 LINE",
"1335 86 LINE",
"1309 86 LINE SMOOTH",
"1270 86 OFFCURVE",
"1190 135 OFFCURVE",
"1145 195 QCURVE",
"768 801 LINE",
"1065 1229 LINE SMOOTH",
"1094 1271 OFFCURVE",
"1143 1327 OFFCURVE",
"1189 1362 OFFCURVE",
"1238 1376 OFFCURVE",
"1268 1376 QCURVE SMOOTH",
"1286 1376 LINE",
"1286 1462 LINE",
"838 1462 LINE",
"838 1376 LINE",
"844 1376 LINE SMOOTH",
"868 1376 OFFCURVE",
"908 1371 OFFCURVE",
"937 1358 OFFCURVE",
"954 1335 OFFCURVE",
"954 1317 QCURVE SMOOTH",
"954 1289 OFFCURVE"
);
}
);
width = 1352;
},
{
layerId = "3CCD85FA-69E6-46C4-A32D-64775BF55ABF";
paths = (
{
closed = 1;
nodes = (
"1034 1197 OFFCURVE",
"1016 1169 QCURVE",
"838 920 LINE",
"668 1174 LINE SMOOTH",
"645 1209 OFFCURVE",
"614 1273 OFFCURVE",
"614 1294 QCURVE SMOOTH",
"614 1306 OFFCURVE",
"625 1328 OFFCURVE",
"653 1345 OFFCURVE",
"700 1354 OFFCURVE",
"735 1354 QCURVE SMOOTH",
"741 1354 LINE",
"741 1462 LINE",
"63 1462 LINE",
"63 1354 LINE",
"90 1354 LINE SMOOTH",
"125 1354 OFFCURVE",
"175 1340 OFFCURVE",
"216 1313 OFFCURVE",
"249 1272 OFFCURVE",
"266 1245 QCURVE SMOOTH",
"604 719 LINE",
"246 252 LINE SMOOTH",
"221 219 OFFCURVE",
"175 166 OFFCURVE",
"126 129 OFFCURVE",
"70 109 OFFCURVE",
"33 109 QCURVE SMOOTH",
"20 109 LINE",
"20 0 LINE",
"537 0 LINE",
"537 109 LINE",
"530 109 LINE SMOOTH",
"462 109 OFFCURVE",
"406 144 OFFCURVE",
"406 178 QCURVE SMOOTH",
"406 210 OFFCURVE",
"440 277 OFFCURVE",
"459 303 QCURVE SMOOTH",
"680 602 LINE",
"868 317 LINE SMOOTH",
"891 284 OFFCURVE",
"917 240 OFFCURVE",
"932 210 OFFCURVE",
"936 188 OFFCURVE",
"936 176 QCURVE SMOOTH",
"936 109 OFFCURVE",
"813 109 QCURVE SMOOTH",
"803 109 LINE",
"803 0 LINE",
"1479 0 LINE",
"1479 109 LINE",
"1452 109 LINE SMOOTH",
"1414 109 OFFCURVE",
"1328 154 OFFCURVE",
"1288 217 QCURVE SMOOTH",
"911 801 LINE",
"1208 1206 LINE SMOOTH",
"1238 1248 OFFCURVE",
"1286 1304 OFFCURVE",
"1333 1339 OFFCURVE",
"1381 1354 OFFCURVE",
"1411 1354 QCURVE SMOOTH",
"1430 1354 LINE",
"1430 1462 LINE",
"950 1462 LINE",
"950 1354 LINE",
"956 1354 LINE SMOOTH",
"980 1354 OFFCURVE",
"1022 1349 OFFCURVE",
"1053 1336 OFFCURVE",
"1071 1312 OFFCURVE",
"1071 1294 QCURVE SMOOTH",
"1071 1266 OFFCURVE"
);
}
);
width = 1499;
},
{
layerId = "6A9350D6-C757-41BD-9D0D-806F72644A83";
paths = (
{
closed = 1;
nodes = (
"559 125 LINE",
"550 125 LINE SMOOTH",
"483 125 OFFCURVE",
"434 164 OFFCURVE",
"434 199 QCURVE SMOOTH",
"434 231 OFFCURVE",
"468 291 OFFCURVE",
"487 317 QCURVE SMOOTH",
"704 588 LINE",
"882 334 LINE SMOOTH",
"929 270 OFFCURVE",
"950 215 OFFCURVE",
"950 193 QCURVE SMOOTH",
"950 125 OFFCURVE",
"827 125 QCURVE SMOOTH",
"817 125 LINE",
"817 0 LINE",
"1583 0 LINE",
"1583 125 LINE",
"1556 125 LINE SMOOTH",
"1517 125 OFFCURVE",
"1433 172 OFFCURVE",
"1392 233 QCURVE SMOOTH",
"1015 801 LINE",
"1312 1190 LINE SMOOTH",
"1374 1272 OFFCURVE",
"1456 1337 OFFCURVE",
"1515 1337 QCURVE SMOOTH",
"1533 1337 LINE",
"1533 1462 LINE",
"1032 1462 LINE",
"1032 1337 LINE",
"1042 1337 LINE SMOOTH",
"1089 1337 OFFCURVE",
"1157 1315 OFFCURVE",
"1157 1278 QCURVE SMOOTH",
"1157 1249 OFFCURVE",
"1114 1176 OFFCURVE",
"1097 1153 QCURVE SMOOTH",
"931 936 LINE",
"772 1157 LINE SMOOTH",
"751 1184 OFFCURVE",
"716 1249 OFFCURVE",
"716 1272 QCURVE SMOOTH",
"716 1296 OFFCURVE",
"761 1337 OFFCURVE",
"833 1337 QCURVE SMOOTH",
"845 1337 LINE",
"845 1462 LINE",
"77 1462 LINE",
"77 1337 LINE",
"104 1337 LINE SMOOTH",
"184 1337 OFFCURVE",
"245 1280 OFFCURVE",
"280 1229 QCURVE SMOOTH",
"618 719 LINE",
"247 268 LINE SMOOTH",
"200 211 OFFCURVE",
"108 125 OFFCURVE",
"34 125 QCURVE SMOOTH",
"22 125 LINE",
"22 0 LINE",
"559 0 LINE"
);
}
);
width = 1607;
}
);
note = glyph59;
unicode = 0058;
},
{
glyphname = glyph60;
lastChange = "2021-04-16 11:22:00 +0000";
layers = (
{
layerId = "0DE963AB-769B-4021-B20D-45864FAF5663";
paths = (
{
closed = 1;
nodes = (
"799 41 LINE",
"701 41 LINE SMOOTH",
"650 41 OFFCURVE",
"601 66 OFFCURVE",
"586 143 OFFCURVE",
"586 221 QCURVE SMOOTH",
"586 729 LINE",
"955 1335 LINE SMOOTH",
"979 1374 OFFCURVE",
"1012 1411 OFFCURVE",
"1057 1421 OFFCURVE",
"1102 1421 QCURVE SMOOTH",
"1119 1421 LINE",
"1119 1462 LINE",
"726 1462 LINE",
"726 1421 LINE",
"826 1421 LINE SMOOTH",
"877 1421 OFFCURVE",
"904 1401 OFFCURVE",
"904 1386 QCURVE SMOOTH",
"904 1368 OFFCURVE",
"879 1321 OFFCURVE",
"859 1288 QCURVE SMOOTH",
"666 971 LINE SMOOTH",
"627 905 OFFCURVE",
"570 813 OFFCURVE",
"556 782 QCURVE",
"521 842 OFFCURVE",
"443 967 OFFCURVE",
"404 1030 QCURVE SMOOTH",
"242 1288 LINE SMOOTH",
"222 1321 OFFCURVE",
"195 1368 OFFCURVE",
"195 1386 QCURVE SMOOTH",
"195 1401 OFFCURVE",
"222 1421 OFFCURVE",
"273 1421 QCURVE SMOOTH",
"340 1421 LINE",
"340 1462 LINE",
"-22 1462 LINE",
"-22 1421 LINE",
"-4 1421 LINE SMOOTH",
"41 1421 OFFCURVE",
"87 1411 OFFCURVE",
"119 1372 OFFCURVE",
"146 1333 QCURVE",
"529 725 LINE",
"529 221 LINE SMOOTH",
"529 143 OFFCURVE",
"515 66 OFFCURVE",
"465 41 OFFCURVE",
"414 41 QCURVE SMOOTH",
"314 41 LINE",
"314 0 LINE",
"799 0 LINE"
);
}
);
width = 1103;
},
{
layerId = "8C5547AF-2EE0-40C3-888E-C5581C9C595C";
paths = (
{
closed = 1;
nodes = (
"889 66 LINE",
"818 66 LINE SMOOTH",
"746 66 OFFCURVE",
"674 121 OFFCURVE",
"674 227 QCURVE SMOOTH",
"674 664 LINE",
"1031 1270 LINE SMOOTH",
"1076 1348 OFFCURVE",
"1137 1397 OFFCURVE",
"1190 1397 QCURVE SMOOTH",
"1211 1397 LINE",
"1211 1462 LINE",
"758 1462 LINE",
"758 1397 LINE",
"836 1397 LINE SMOOTH",
"893 1397 OFFCURVE",
"938 1364 OFFCURVE",
"938 1331 QCURVE SMOOTH",
"938 1286 OFFCURVE",
"899 1221 QCURVE SMOOTH",
"740 948 LINE SMOOTH",
"703 885 OFFCURVE",
"639 772 OFFCURVE",
"623 735 QCURVE",
"598 786 OFFCURVE",
"535 911 OFFCURVE",
"498 975 QCURVE SMOOTH",
"342 1241 LINE SMOOTH",
"326 1268 OFFCURVE",
"299 1321 OFFCURVE",
"299 1346 QCURVE SMOOTH",
"299 1368 OFFCURVE",
"330 1397 OFFCURVE",
"385 1397 QCURVE SMOOTH",
"457 1397 LINE",
"457 1462 LINE",
"-16 1462 LINE",
"-16 1397 LINE",
"7 1397 LINE SMOOTH",
"66 1397 OFFCURVE",
"119 1356 OFFCURVE",
"154 1298 QCURVE SMOOTH",
"535 662 LINE",
"535 223 LINE SMOOTH",
"535 119 OFFCURVE",
"463 66 OFFCURVE",
"392 66 QCURVE SMOOTH",
"320 66 LINE",
"320 0 LINE",
"889 0 LINE"
);
}
);
width = 1200;
},
{
layerId = "7FEA46FF-516C-4946-9F17-9EEA76F5F564";
paths = (
{
closed = 1;
nodes = (
"963 86 LINE",
"915 86 LINE SMOOTH",
"881 86 OFFCURVE",
"820 96 OFFCURVE",
"774 127 OFFCURVE",
"748 185 OFFCURVE",
"748 233 QCURVE SMOOTH",
"748 610 LINE",
"1092 1217 LINE SMOOTH",
"1118 1263 OFFCURVE",
"1161 1324 OFFCURVE",
"1201 1361 OFFCURVE",
"1240 1376 OFFCURVE",
"1262 1376 QCURVE SMOOTH",
"1286 1376 LINE",
"1286 1462 LINE",
"786 1462 LINE",
"786 1376 LINE",
"846 1376 LINE SMOOTH",
"905 1376 OFFCURVE",
"969 1331 OFFCURVE",
"969 1286 QCURVE SMOOTH",
"969 1261 OFFCURVE",
"952 1198 OFFCURVE",
"932 1163 QCURVE SMOOTH",
"801 928 LINE SMOOTH",
"783 896 OFFCURVE",
"747 831 OFFCURVE",
"714 770 OFFCURVE",
"687 716 OFFCURVE",
"678 694 QCURVE",
"661 742 OFFCURVE",
"611 865 OFFCURVE",
"575 928 QCURVE SMOOTH",
"424 1202 LINE SMOOTH",
"412 1224 OFFCURVE",
"387 1282 OFFCURVE",
"387 1311 QCURVE SMOOTH",
"387 1324 OFFCURVE",
"394 1348 OFFCURVE",
"414 1366 OFFCURVE",
"449 1376 OFFCURVE",
"477 1376 QCURVE SMOOTH",
"553 1376 LINE",
"553 1462 LINE",
"-10 1462 LINE",
"-10 1376 LINE",
"16 1376 LINE SMOOTH",
"42 1376 OFFCURVE",
"82 1364 OFFCURVE",
"115 1338 OFFCURVE",
"145 1297 OFFCURVE",
"162 1268 QCURVE SMOOTH",
"541 610 LINE",
"541 223 LINE SMOOTH",
"541 178 OFFCURVE",
"514 123 OFFCURVE",
"468 95 OFFCURVE",
"407 86 OFFCURVE",
"373 86 QCURVE SMOOTH",
"326 86 LINE",
"326 0 LINE",
"963 0 LINE"
);
}
);
width = 1280;
},
{
layerId = "3CCD85FA-69E6-46C4-A32D-64775BF55ABF";
paths = (
{
closed = 1;
nodes = (
"1092 109 LINE",
"991 109 LINE SMOOTH",
"967 109 OFFCURVE",
"926 115 OFFCURVE",
"895 141 OFFCURVE",
"877 191 OFFCURVE",
"877 236 QCURVE SMOOTH",
"877 516 LINE",
"1225 1194 LINE SMOOTH",
"1249 1242 OFFCURVE",
"1284 1304 OFFCURVE",
"1317 1340 OFFCURVE",
"1354 1354 OFFCURVE",
"1380 1354 QCURVE SMOOTH",
"1419 1354 LINE",
"1419 1462 LINE",
"883 1462 LINE",
"883 1354 LINE",
"930 1354 LINE SMOOTH",
"998 1354 OFFCURVE",
"1065 1306 OFFCURVE",
"1065 1253 QCURVE SMOOTH",
"1065 1236 OFFCURVE",
"1052 1175 OFFCURVE",
"1030 1130 QCURVE SMOOTH",
"911 885 LINE SMOOTH",
"877 816 OFFCURVE",
"822 689 OFFCURVE",
"801 635 QCURVE",
"784 683 OFFCURVE",
"743 783 OFFCURVE",
"711 848 QCURVE SMOOTH",
"559 1149 LINE SMOOTH",
"547 1175 OFFCURVE",
"528 1236 OFFCURVE",
"528 1262 QCURVE SMOOTH",
"528 1304 OFFCURVE",
"589 1354 OFFCURVE",
"651 1354 QCURVE SMOOTH",
"686 1354 LINE",
"686 1462 LINE",
"0 1462 LINE",
"0 1354 LINE",
"27 1354 LINE SMOOTH",
"57 1354 OFFCURVE",
"98 1342 OFFCURVE",
"130 1317 OFFCURVE",
"157 1275 OFFCURVE",
"172 1245 QCURVE SMOOTH",
"551 518 LINE",
"551 233 LINE SMOOTH",
"551 190 OFFCURVE",
"532 140 OFFCURVE",
"500 115 OFFCURVE",
"457 109 OFFCURVE",
"432 109 QCURVE SMOOTH",
"336 109 LINE",
"336 0 LINE",
"1092 0 LINE"
);
}
);
width = 1419;
},
{
layerId = "6A9350D6-C757-41BD-9D0D-806F72644A83";
paths = (
{
closed = 1;
nodes = (
"1188 125 LINE",
"1089 125 LINE SMOOTH",
"1042 125 OFFCURVE",
"973 174 OFFCURVE",
"973 258 QCURVE SMOOTH",
"973 467 LINE",
"1327 1180 LINE SMOOTH",
"1360 1243 OFFCURVE",
"1405 1311 OFFCURVE",
"1454 1337 OFFCURVE",
"1493 1337 QCURVE SMOOTH",
"1517 1337 LINE",
"1517 1462 LINE",
"954 1462 LINE",
"954 1337 LINE",
"993 1337 LINE SMOOTH",
"1067 1337 OFFCURVE",
"1136 1286 OFFCURVE",
"1136 1229 QCURVE SMOOTH",
"1136 1219 OFFCURVE",
"1126 1159 OFFCURVE",
"1104 1106 QCURVE",
"993 874 LINE SMOOTH",
"962 809 OFFCURVE",
"907 684 OFFCURVE",
"887 629 QCURVE",
"870 676 OFFCURVE",
"839 754 OFFCURVE",
"811 809 QCURVE SMOOTH",
"659 1110 LINE SMOOTH",
"643 1141 OFFCURVE",
"631 1202 OFFCURVE",
"631 1225 QCURVE SMOOTH",
"631 1278 OFFCURVE",
"710 1337 OFFCURVE",
"776 1337 QCURVE SMOOTH",
"784 1337 LINE",
"784 1462 LINE",
"8 1462 LINE",
"8 1337 LINE",
"35 1337 LINE SMOOTH",
"100 1337 OFFCURVE",
"149 1290 OFFCURVE",
"180 1229 QCURVE SMOOTH",
"559 471 LINE",
"559 262 LINE SMOOTH",
"559 176 OFFCURVE",
"481 125 OFFCURVE",
"416 125 QCURVE SMOOTH",
"344 125 LINE",
"344 0 LINE",
"1188 0 LINE"
);
}
);
width = 1521;
}
);
note = glyph60;
unicode = 0059;
},
{
glyphname = glyph61;
lastChange = "2021-04-16 11:22:00 +0000";
layers = (
{
layerId = "0DE963AB-769B-4021-B20D-45864FAF5663";
paths = (
{
closed = 1;
nodes = (
"938 276 LINE",
"897 276 LINE",
"893 190 LINE SMOOTH",
"888 106 OFFCURVE",
"848 51 OFFCURVE",
"768 51 QCURVE SMOOTH",
"127 51 LINE",
"921 1403 LINE",
"921 1462 LINE",
"106 1462 LINE",
"96 1186 LINE",
"137 1186 LINE",
"141 1270 LINE SMOOTH",
"145 1354 OFFCURVE",
"186 1411 OFFCURVE",
"266 1411 QCURVE SMOOTH",
"860 1411 LINE",
"57 45 LINE",
"57 0 LINE",
"927 0 LINE"
);
}
);
width = 1019;
},
{
layerId = "8C5547AF-2EE0-40C3-888E-C5581C9C595C";
paths = (
{
closed = 1;
nodes = (
"1040 322 LINE",
"964 322 LINE",
"956 233 LINE SMOOTH",
"950 160 OFFCURVE",
"892 80 OFFCURVE",
"806 80 QCURVE SMOOTH",
"233 80 LINE",
"1015 1389 LINE",
"1015 1462 LINE",
"114 1462 LINE",
"104 1141 LINE",
"182 1141 LINE",
"188 1227 LINE SMOOTH",
"196 1303 OFFCURVE",
"251 1382 OFFCURVE",
"337 1382 QCURVE SMOOTH",
"849 1382 LINE",
"65 66 LINE",
"65 0 LINE",
"1030 0 LINE"
);
}
);
width = 1124;
},
{
layerId = "7FEA46FF-516C-4946-9F17-9EEA76F5F564";
paths = (
{
closed = 1;
nodes = (
"123 1462 LINE",
"113 1104 LINE",
"219 1104 LINE",
"229 1192 LINE SMOOTH",
"233 1226 OFFCURVE",
"253 1287 OFFCURVE",
"291 1333 OFFCURVE",
"352 1360 OFFCURVE",
"397 1360 QCURVE SMOOTH",
"842 1360 LINE",
"74 82 LINE",
"74 0 LINE",
"1116 0 LINE",
"1126 358 LINE",
"1020 358 LINE",
"1010 270 LINE SMOOTH",
"1006 236 OFFCURVE",
"986 175 OFFCURVE",
"948 129 OFFCURVE",
"886 102 OFFCURVE",
"840 102 QCURVE SMOOTH",
"324 102 LINE",
"1094 1378 LINE",
"1094 1462 LINE"
);
}
);
width = 1212;
},
{
layerId = "3CCD85FA-69E6-46C4-A32D-64775BF55ABF";
paths = (
{
closed = 1;
nodes = (
"135 1462 LINE",
"125 1040 LINE",
"272 1040 LINE",
"283 1151 LINE SMOOTH",
"287 1193 OFFCURVE",
"304 1262 OFFCURVE",
"341 1311 OFFCURVE",
"403 1337 OFFCURVE",
"451 1337 QCURVE SMOOTH",
"854 1337 LINE",
"86 102 LINE",
"86 0 LINE",
"1264 0 LINE",
"1274 422 LINE",
"1126 422 LINE",
"1116 330 LINE SMOOTH",
"1112 291 OFFCURVE",
"1091 218 OFFCURVE",
"1044 160 OFFCURVE",
"964 125 OFFCURVE",
"901 125 QCURVE SMOOTH",
"459 125 LINE",
"1229 1358 LINE",
"1229 1462 LINE"
);
}
);
width = 1364;
},
{
layerId = "6A9350D6-C757-41BD-9D0D-806F72644A83";
paths = (
{
closed = 1;
nodes = (
"1382 469 LINE",
"1204 469 LINE",
"1194 373 LINE SMOOTH",
"1188 317 OFFCURVE",
"1149 211 OFFCURVE",
"1046 141 OFFCURVE",
"946 141 QCURVE SMOOTH",
"557 141 LINE",
"1327 1343 LINE",
"1327 1462 LINE",
"143 1462 LINE",
"133 993 LINE",
"311 993 LINE",
"321 1120 LINE SMOOTH",
"330 1217 OFFCURVE",
"389 1321 OFFCURVE",
"489 1321 QCURVE SMOOTH",
"862 1321 LINE",
"94 117 LINE",
"94 0 LINE",
"1372 0 LINE"
);
}
);
width = 1476;
}
);
note = glyph61;
unicode = 005A;
},
{
glyphname = glyph68;
lastChange = "2021-04-16 11:22:00 +0000";
layers = (
{
layerId = "0DE963AB-769B-4021-B20D-45864FAF5663";
paths = (
{
closed = 1;
nodes = (
"646 59 OFFCURVE",
"737 168 OFFCURVE",
"761 213 QCURVE",
"765 213 LINE",
"778 0 LINE",
"954 0 LINE",
"954 41 LINE",
"939 41 LINE SMOOTH",
"884 41 OFFCURVE",
"835 70 OFFCURVE",
"821 147 OFFCURVE",
"821 225 QCURVE SMOOTH",
"821 791 LINE SMOOTH",
"821 936 OFFCURVE",
"675 1110 OFFCURVE",
"495 1110 QCURVE SMOOTH",
"376 1110 OFFCURVE",
"249 1042 OFFCURVE",
"200 946 OFFCURVE",
"200 903 QCURVE SMOOTH",
"200 809 OFFCURVE",
"243 809 QCURVE",
"243 926 OFFCURVE",
"343 1059 OFFCURVE",
"495 1059 QCURVE SMOOTH",
"610 1059 OFFCURVE",
"726 981 OFFCURVE",
"763 848 OFFCURVE",
"763 760 QCURVE SMOOTH",
"763 627 LINE",
"593 621 LINE SMOOTH",
"345 610 OFFCURVE",
"114 461 OFFCURVE",
"114 299 QCURVE SMOOTH",
"114 135 OFFCURVE",
"282 -20 OFFCURVE",
"403 -20 QCURVE SMOOTH",
"503 -20 OFFCURVE"
);
},
{
closed = 1;
nodes = (
"218 106 OFFCURVE",
"171 227 OFFCURVE",
"171 297 QCURVE SMOOTH",
"171 379 OFFCURVE",
"245 500 OFFCURVE",
"427 569 OFFCURVE",
"587 573 QCURVE SMOOTH",
"763 580 LINE",
"763 348 LINE SMOOTH",
"763 281 OFFCURVE",
"669 133 OFFCURVE",
"511 31 OFFCURVE",
"411 31 QCURVE SMOOTH",
"325 31 OFFCURVE"
);
}
);
width = 1058;
},
{
layerId = "8C5547AF-2EE0-40C3-888E-C5581C9C595C";
paths = (
{
closed = 1;
nodes = (
"628 43 OFFCURVE",
"716 141 OFFCURVE",
"749 193 QCURVE",
"759 193 LINE",
"784 0 LINE",
"1013 0 LINE",
"1013 66 LINE",
"1005 66 LINE SMOOTH",
"929 66 OFFCURVE",
"880 131 OFFCURVE",
"880 229 QCURVE SMOOTH",
"880 776 LINE SMOOTH",
"880 948 OFFCURVE",
"712 1114 OFFCURVE",
"528 1114 QCURVE SMOOTH",
"364 1114 OFFCURVE",
"194 999 OFFCURVE",
"194 913 QCURVE SMOOTH",
"194 852 OFFCURVE",
"251 801 OFFCURVE",
"309 801 QCURVE",
"309 872 OFFCURVE",
"341 977 OFFCURVE",
"434 1036 OFFCURVE",
"524 1036 QCURVE SMOOTH",
"622 1036 OFFCURVE",
"718 967 OFFCURVE",
"749 842 OFFCURVE",
"749 762 QCURVE SMOOTH",
"749 635 LINE",
"579 629 LINE SMOOTH",
"339 618 OFFCURVE",
"108 467 OFFCURVE",
"108 303 QCURVE SMOOTH",
"108 137 OFFCURVE",
"282 -20 OFFCURVE",
"411 -20 QCURVE SMOOTH",
"503 -20 OFFCURVE"
);
},
{
closed = 1;
nodes = (
"241 197 OFFCURVE",
"241 297 QCURVE SMOOTH",
"241 418 OFFCURVE",
"395 553 OFFCURVE",
"597 561 QCURVE SMOOTH",
"749 567 LINE",
"749 371 LINE SMOOTH",
"749 293 OFFCURVE",
"671 156 OFFCURVE",
"532 72 OFFCURVE",
"442 72 QCURVE SMOOTH",
"337 72 OFFCURVE"
);
}
);
width = 1110;
},
{
layerId = "7FEA46FF-516C-4946-9F17-9EEA76F5F564";
paths = (
{
closed = 1;
nodes = (
"332 449 OFFCURVE",
"404 512 OFFCURVE",
"521 547 OFFCURVE",
"608 551 QCURVE SMOOTH",
"739 557 LINE",
"739 391 LINE SMOOTH",
"739 326 OFFCURVE",
"701 220 OFFCURVE",
"630 146 OFFCURVE",
"529 106 OFFCURVE",
"467 106 QCURVE SMOOTH",
"382 106 OFFCURVE",
"301 201 OFFCURVE",
"301 297 QCURVE SMOOTH",
"301 357 OFFCURVE"
);
},
{
closed = 1;
nodes = (
"687 979 OFFCURVE",
"727 912 OFFCURVE",
"739 819 OFFCURVE",
"739 764 QCURVE SMOOTH",
"739 641 LINE",
"569 635 LINE SMOOTH",
"334 628 OFFCURVE",
"102 470 OFFCURVE",
"102 307 QCURVE SMOOTH",
"102 223 OFFCURVE",
"150 100 OFFCURVE",
"235 19 OFFCURVE",
"352 -20 OFFCURVE",
"420 -20 QCURVE SMOOTH",
"484 -20 OFFCURVE",
"575 9 OFFCURVE",
"647 61 OFFCURVE",
"707 133 OFFCURVE",
"739 176 QCURVE",
"756 176 LINE",
"788 0 LINE",
"1065 0 LINE",
"1065 86 LINE",
"1059 86 LINE SMOOTH",
"1025 86 OFFCURVE",
"976 100 OFFCURVE",
"946 134 OFFCURVE",
"932 190 OFFCURVE",
"932 233 QCURVE SMOOTH",
"932 764 LINE SMOOTH",
"932 862 OFFCURVE",
"885 997 OFFCURVE",
"791 1081 OFFCURVE",
"651 1118 OFFCURVE",
"557 1118 QCURVE SMOOTH",
"481 1118 OFFCURVE",
"347 1096 OFFCURVE",
"246 1049 OFFCURVE",
"188 975 OFFCURVE",
"188 922 QCURVE SMOOTH",
"188 851 OFFCURVE",
"277 793 OFFCURVE",
"362 793 QCURVE",
"362 841 OFFCURVE",
"376 923 OFFCURVE",
"417 983 OFFCURVE",
"490 1016 OFFCURVE",
"549 1016 QCURVE SMOOTH",
"612 1016 OFFCURVE"
);
}
);
width = 1153;
},
{
layerId = "3CCD85FA-69E6-46C4-A32D-64775BF55ABF";
paths = (
{
closed = 1;
nodes = (
"432 445 OFFCURVE",
"482 503 OFFCURVE",
"566 536 OFFCURVE",
"627 539 QCURVE SMOOTH",
"719 545 LINE",
"719 391 LINE SMOOTH",
"719 331 OFFCURVE",
"692 234 OFFCURVE",
"641 166 OFFCURVE",
"570 129 OFFCURVE",
"526 129 QCURVE SMOOTH",
"466 129 OFFCURVE",
"410 217 OFFCURVE",
"410 305 QCURVE SMOOTH",
"410 361 OFFCURVE"
);
},
{
closed = 1;
nodes = (
"685 965 OFFCURVE",
"711 903 OFFCURVE",
"719 817 OFFCURVE",
"719 766 QCURVE SMOOTH",
"719 653 LINE",
"551 647 LINE SMOOTH",
"321 640 OFFCURVE",
"92 480 OFFCURVE",
"92 313 QCURVE SMOOTH",
"92 228 OFFCURVE",
"142 103 OFFCURVE",
"229 20 OFFCURVE",
"346 -20 OFFCURVE",
"414 -20 QCURVE SMOOTH",
"472 -20 OFFCURVE",
"557 -1 OFFCURVE",
"625 39 OFFCURVE",
"685 100 OFFCURVE",
"719 141 QCURVE",
"737 141 LINE",
"780 0 LINE",
"1161 0 LINE",
"1161 109 LINE",
"1153 109 LINE SMOOTH",
"1119 109 OFFCURVE",
"1071 123 OFFCURVE",
"1043 156 OFFCURVE",
"1030 212 OFFCURVE",
"1030 254 QCURVE SMOOTH",
"1030 776 LINE SMOOTH",
"1030 872 OFFCURVE",
"976 1005 OFFCURVE",
"869 1087 OFFCURVE",
"708 1124 OFFCURVE",
"600 1124 QCURVE SMOOTH",
"513 1124 OFFCURVE",
"360 1101 OFFCURVE",
"245 1051 OFFCURVE",
"178 971 OFFCURVE",
"178 915 QCURVE SMOOTH",
"178 840 OFFCURVE",
"317 778 OFFCURVE",
"455 778 QCURVE",
"455 826 OFFCURVE",
"468 907 OFFCURVE",
"500 966 OFFCURVE",
"553 999 OFFCURVE",
"592 999 QCURVE SMOOTH",
"634 999 OFFCURVE"
);
}
);
width = 1227;
},
{
layerId = "6A9350D6-C757-41BD-9D0D-806F72644A83";
paths = (
{
closed = 1;
nodes = (
"577 2 OFFCURVE",
"654 61 OFFCURVE",
"701 115 QCURVE",
"722 115 LINE",
"773 0 LINE",
"1230 0 LINE",
"1230 125 LINE",
"1222 125 LINE SMOOTH",
"1152 125 OFFCURVE",
"1101 184 OFFCURVE",
"1101 268 QCURVE SMOOTH",
"1101 784 LINE SMOOTH",
"1101 975 OFFCURVE",
"865 1128 OFFCURVE",
"630 1128 QCURVE SMOOTH",
"503 1128 OFFCURVE",
"294 1085 OFFCURVE",
"169 989 OFFCURVE",
"169 911 QCURVE SMOOTH",
"169 834 OFFCURVE",
"327 768 OFFCURVE",
"489 768 QCURVE",
"489 877 OFFCURVE",
"546 987 OFFCURVE",
"595 987 QCURVE SMOOTH",
"648 987 OFFCURVE",
"701 881 OFFCURVE",
"701 768 QCURVE SMOOTH",
"701 662 LINE",
"536 655 LINE SMOOTH",
"308 647 OFFCURVE",
"83 487 OFFCURVE",
"83 317 QCURVE SMOOTH",
"83 203 OFFCURVE",
"171 53 OFFCURVE",
"319 -20 OFFCURVE",
"407 -20 QCURVE SMOOTH",
"478 -20 OFFCURVE"
);
},
{
closed = 1;
nodes = (
"489 311 QCURVE SMOOTH",
"489 416 OFFCURVE",
"554 524 OFFCURVE",
"640 530 QCURVE SMOOTH",
"704 537 LINE",
"704 391 LINE SMOOTH",
"704 279 OFFCURVE",
"630 145 OFFCURVE",
"568 145 QCURVE SMOOTH",
"489 145 OFFCURVE"
);
}
);
width = 1282;
}
);
note = glyph68;
unicode = 0061;
},
{
glyphname = glyph69;
lastChange = "2021-04-16 11:22:00 +0000";
layers = (
{
layerId = "0DE963AB-769B-4021-B20D-45864FAF5663";
paths = (
{
closed = 1;
nodes = (
"1035 264 OFFCURVE",
"1035 547 QCURVE SMOOTH",
"1035 844 OFFCURVE",
"851 1114 OFFCURVE",
"654 1114 QCURVE SMOOTH",
"513 1114 OFFCURVE",
"335 975 OFFCURVE",
"294 848 QCURVE",
"288 848 LINE",
"294 918 OFFCURVE",
"298 1090 OFFCURVE",
"298 1147 QCURVE SMOOTH",
"298 1556 LINE",
"40 1556 LINE",
"40 1516 LINE",
"103 1516 LINE SMOOTH",
"165 1516 OFFCURVE",
"224 1499 OFFCURVE",
"241 1432 OFFCURVE",
"241 1356 QCURVE SMOOTH",
"241 193 LINE SMOOTH",
"241 121 OFFCURVE",
"224 57 OFFCURVE",
"159 41 OFFCURVE",
"83 41 QCURVE SMOOTH",
"40 41 LINE",
"40 0 LINE",
"290 0 LINE",
"296 203 LINE",
"302 203 LINE",
"345 94 OFFCURVE",
"523 -20 OFFCURVE",
"640 -20 QCURVE SMOOTH",
"818 -20 OFFCURVE"
);
},
{
closed = 1;
nodes = (
"362 156 OFFCURVE",
"296 389 OFFCURVE",
"296 551 QCURVE SMOOTH",
"296 788 OFFCURVE",
"466 1063 OFFCURVE",
"646 1063 QCURVE SMOOTH",
"826 1063 OFFCURVE",
"978 819 OFFCURVE",
"978 553 QCURVE SMOOTH",
"978 303 OFFCURVE",
"806 31 OFFCURVE",
"648 31 QCURVE SMOOTH",
"515 31 OFFCURVE"
);
}
);
width = 1167;
},
{
layerId = "8C5547AF-2EE0-40C3-888E-C5581C9C595C";
paths = (
{
closed = 1;
nodes = (
"1095 258 OFFCURVE",
"1095 549 QCURVE SMOOTH",
"1095 846 OFFCURVE",
"892 1116 OFFCURVE",
"693 1116 QCURVE SMOOTH",
"564 1116 OFFCURVE",
"403 991 OFFCURVE",
"360 883 QCURVE",
"351 883 LINE",
"355 918 OFFCURVE",
"360 1020 OFFCURVE",
"362 1126 OFFCURVE",
"362 1165 QCURVE SMOOTH",
"362 1556 LINE",
"38 1556 LINE",
"38 1491 LINE",
"75 1491 LINE SMOOTH",
"155 1491 OFFCURVE",
"231 1442 OFFCURVE",
"231 1341 QCURVE SMOOTH",
"231 215 LINE SMOOTH",
"231 115 OFFCURVE",
"155 66 OFFCURVE",
"67 66 QCURVE SMOOTH",
"38 66 LINE",
"38 0 LINE",
"331 0 LINE",
"353 180 LINE",
"362 180 LINE",
"407 86 OFFCURVE",
"568 -20 OFFCURVE",
"687 -20 QCURVE SMOOTH",
"880 -20 OFFCURVE"
);
},
{
closed = 1;
nodes = (
"360 324 OFFCURVE",
"360 551 QCURVE SMOOTH",
"360 780 OFFCURVE",
"503 1022 OFFCURVE",
"671 1022 QCURVE SMOOTH",
"826 1022 OFFCURVE",
"960 793 OFFCURVE",
"960 553 QCURVE SMOOTH",
"960 324 OFFCURVE",
"818 74 OFFCURVE",
"673 74 QCURVE SMOOTH",
"495 74 OFFCURVE"
);
}
);
width = 1216;
},
{
layerId = "7FEA46FF-516C-4946-9F17-9EEA76F5F564";
paths = (
{
closed = 1;
nodes = (
"1090 912 OFFCURVE",
"984 1051 OFFCURVE",
"828 1118 OFFCURVE",
"727 1118 QCURVE SMOOTH",
"667 1118 OFFCURVE",
"571 1089 OFFCURVE",
"495 1036 OFFCURVE",
"437 960 OFFCURVE",
"414 913 QCURVE",
"406 913 LINE",
"408 964 OFFCURVE",
"410 1012 QCURVE SMOOTH",
"412 1054 OFFCURVE",
"414 1145 OFFCURVE",
"414 1180 QCURVE SMOOTH",
"414 1556 LINE",
"37 1556 LINE",
"37 1470 LINE",
"53 1470 LINE SMOOTH",
"87 1470 OFFCURVE",
"148 1461 OFFCURVE",
"194 1431 OFFCURVE",
"221 1376 OFFCURVE",
"221 1331 QCURVE SMOOTH",
"221 233 LINE SMOOTH",
"221 185 OFFCURVE",
"194 127 OFFCURVE",
"149 96 OFFCURVE",
"88 86 OFFCURVE",
"53 86 QCURVE SMOOTH",
"37 86 LINE",
"37 0 LINE",
"365 0 LINE",
"401 160 LINE",
"414 160 LINE",
"436 120 OFFCURVE",
"495 54 OFFCURVE",
"572 6 OFFCURVE",
"668 -20 OFFCURVE",
"727 -20 QCURVE SMOOTH",
"828 -20 OFFCURVE",
"984 47 OFFCURVE",
"1090 187 OFFCURVE",
"1145 403 OFFCURVE",
"1145 551 QCURVE SMOOTH",
"1145 698 OFFCURVE"
);
},
{
closed = 1;
nodes = (
"857 933 OFFCURVE",
"918 825 OFFCURVE",
"946 662 OFFCURVE",
"946 553 QCURVE SMOOTH",
"946 445 OFFCURVE",
"918 280 OFFCURVE",
"857 168 OFFCURVE",
"762 111 OFFCURVE",
"694 111 QCURVE SMOOTH",
"613 111 OFFCURVE",
"506 168 OFFCURVE",
"441 280 OFFCURVE",
"414 444 OFFCURVE",
"414 551 QCURVE SMOOTH",
"414 662 OFFCURVE",
"441 826 OFFCURVE",
"505 934 OFFCURVE",
"612 987 OFFCURVE",
"692 987 QCURVE SMOOTH",
"760 987 OFFCURVE"
);
}
);
width = 1257;
},
{
layerId = "3CCD85FA-69E6-46C4-A32D-64775BF55ABF";
paths = (
{
closed = 1;
nodes = (
"1179 916 OFFCURVE",
"1074 1055 OFFCURVE",
"921 1122 OFFCURVE",
"821 1122 QCURVE SMOOTH",
"705 1122 OFFCURVE",
"558 1034 OFFCURVE",
"514 958 QCURVE",
"500 958 LINE",
"504 1005 OFFCURVE",
"508 1050 QCURVE SMOOTH",
"511 1088 OFFCURVE",
"516 1174 OFFCURVE",
"516 1206 QCURVE SMOOTH",
"516 1556 LINE",
"35 1556 LINE",
"35 1448 LINE",
"43 1448 LINE SMOOTH",
"76 1448 OFFCURVE",
"135 1438 OFFCURVE",
"179 1408 OFFCURVE",
"205 1355 OFFCURVE",
"205 1311 QCURVE SMOOTH",
"205 252 LINE SMOOTH",
"205 205 OFFCURVE",
"178 149 OFFCURVE",
"134 119 OFFCURVE",
"78 109 OFFCURVE",
"49 109 QCURVE SMOOTH",
"35 109 LINE",
"35 0 LINE",
"424 0 LINE",
"481 160 LINE",
"500 160 LINE",
"522 120 OFFCURVE",
"581 54 OFFCURVE",
"658 6 OFFCURVE",
"754 -20 OFFCURVE",
"813 -20 QCURVE SMOOTH",
"915 -20 OFFCURVE",
"1072 47 OFFCURVE",
"1178 188 OFFCURVE",
"1233 404 OFFCURVE",
"1233 553 QCURVE SMOOTH",
"1233 701 OFFCURVE"
);
},
{
closed = 1;
nodes = (
"918 764 OFFCURVE",
"918 555 QCURVE SMOOTH",
"918 351 OFFCURVE",
"828 133 OFFCURVE",
"727 133 QCURVE SMOOTH",
"666 133 OFFCURVE",
"584 188 OFFCURVE",
"536 295 OFFCURVE",
"516 452 OFFCURVE",
"516 553 QCURVE SMOOTH",
"516 659 OFFCURVE",
"536 816 OFFCURVE",
"584 920 OFFCURVE",
"664 971 OFFCURVE",
"725 971 QCURVE SMOOTH",
"828 971 OFFCURVE"
);
}
);
width = 1329;
},
{
layerId = "6A9350D6-C757-41BD-9D0D-806F72644A83";
paths = (
{
closed = 1;
nodes = (
"1296 256 OFFCURVE",
"1296 555 QCURVE SMOOTH",
"1296 852 OFFCURVE",
"1087 1124 OFFCURVE",
"890 1124 QCURVE SMOOTH",
"775 1124 OFFCURVE",
"628 1047 OFFCURVE",
"587 991 QCURVE",
"573 991 LINE",
"581 1040 OFFCURVE",
"591 1169 OFFCURVE",
"591 1227 QCURVE SMOOTH",
"591 1556 LINE",
"32 1556 LINE",
"32 1432 LINE",
"40 1432 LINE SMOOTH",
"106 1432 OFFCURVE",
"192 1380 OFFCURVE",
"192 1296 QCURVE SMOOTH",
"192 266 LINE SMOOTH",
"192 205 OFFCURVE",
"147 143 OFFCURVE",
"77 125 OFFCURVE",
"44 125 QCURVE SMOOTH",
"32 125 LINE",
"32 0 LINE",
"466 0 LINE",
"542 160 LINE",
"558 160 LINE",
"603 80 OFFCURVE",
"757 -20 OFFCURVE",
"876 -20 QCURVE SMOOTH",
"1081 -20 OFFCURVE"
);
},
{
closed = 1;
nodes = (
"591 360 OFFCURVE",
"591 555 QCURVE SMOOTH",
"591 760 OFFCURVE",
"655 958 OFFCURVE",
"749 958 QCURVE SMOOTH",
"827 958 OFFCURVE",
"896 758 OFFCURVE",
"896 557 QCURVE SMOOTH",
"896 360 OFFCURVE",
"827 150 OFFCURVE",
"751 150 QCURVE SMOOTH",
"655 150 OFFCURVE"
);
}
);
width = 1382;
}
);
note = glyph69;
unicode = 0062;
},
{
glyphname = glyph70;
lastChange = "2021-04-16 11:22:00 +0000";
layers = (
{
layerId = "0DE963AB-769B-4021-B20D-45864FAF5663";
paths = (
{
closed = 1;
nodes = (
"772 49 OFFCURVE",
"844 143 OFFCURVE",
"844 176 QCURVE SMOOTH",
"844 211 OFFCURVE",
"827 233 QCURVE",
"795 152 OFFCURVE",
"659 33 OFFCURVE",
"530 31 QCURVE SMOOTH",
"524 31 LINE SMOOTH",
"435 31 OFFCURVE",
"361 88 QCURVE SMOOTH",
"283 147 OFFCURVE",
"188 377 OFFCURVE",
"188 541 QCURVE SMOOTH",
"188 733 OFFCURVE",
"274 961 OFFCURVE",
"428 1059 OFFCURVE",
"528 1059 QCURVE SMOOTH",
"614 1059 OFFCURVE",
"729 993 OFFCURVE",
"786 889 OFFCURVE",
"786 831 QCURVE",
"838 836 OFFCURVE",
"838 887 QCURVE SMOOTH",
"838 975 OFFCURVE",
"678 1110 OFFCURVE",
"537 1110 QCURVE SMOOTH",
"420 1110 OFFCURVE",
"235 1006 OFFCURVE",
"131 756 OFFCURVE",
"131 539 QCURVE SMOOTH",
"131 348 OFFCURVE",
"237 100 OFFCURVE",
"420 -20 OFFCURVE",
"530 -20 QCURVE SMOOTH",
"631 -20 OFFCURVE"
);
}
);
width = 917;
},
{
layerId = "8C5547AF-2EE0-40C3-888E-C5581C9C595C";
paths = (
{
closed = 1;
nodes = (
"814 43 OFFCURVE",
"888 135 OFFCURVE",
"888 176 QCURVE SMOOTH",
"888 221 OFFCURVE",
"861 246 QCURVE",
"827 174 OFFCURVE",
"689 76 OFFCURVE",
"579 76 QCURVE SMOOTH",
"574 76 LINE SMOOTH",
"426 76 OFFCURVE",
"341 193 QCURVE SMOOTH",
"255 311 OFFCURVE",
"255 543 QCURVE SMOOTH",
"255 729 OFFCURVE",
"329 946 OFFCURVE",
"462 1036 OFFCURVE",
"550 1036 QCURVE SMOOTH",
"665 1036 OFFCURVE",
"763 895 OFFCURVE",
"763 803 QCURVE",
"884 807 OFFCURVE",
"884 899 QCURVE SMOOTH",
"884 965 OFFCURVE",
"794 1061 OFFCURVE",
"642 1114 OFFCURVE",
"554 1114 QCURVE SMOOTH",
"429 1114 OFFCURVE",
"235 1010 OFFCURVE",
"120 758 OFFCURVE",
"120 541 QCURVE SMOOTH",
"120 344 OFFCURVE",
"235 96 OFFCURVE",
"431 -20 OFFCURVE",
"556 -20 QCURVE SMOOTH",
"667 -20 OFFCURVE"
);
}
);
width = 966;
},
{
layerId = "7FEA46FF-516C-4946-9F17-9EEA76F5F564";
paths = (
{
closed = 1;
nodes = (
"797 15 OFFCURVE",
"884 71 OFFCURVE",
"928 141 OFFCURVE",
"928 176 QCURVE SMOOTH",
"928 204 OFFCURVE",
"908 244 OFFCURVE",
"893 256 QCURVE",
"858 193 OFFCURVE",
"716 113 OFFCURVE",
"621 113 QCURVE SMOOTH",
"456 113 OFFCURVE",
"311 327 OFFCURVE",
"311 545 QCURVE SMOOTH",
"311 682 OFFCURVE",
"347 864 OFFCURVE",
"415 972 OFFCURVE",
"510 1016 OFFCURVE",
"569 1016 QCURVE SMOOTH",
"621 1016 OFFCURVE",
"688 979 OFFCURVE",
"727 914 OFFCURVE",
"743 828 OFFCURVE",
"743 780 QCURVE",
"834 780 OFFCURVE",
"926 838 OFFCURVE",
"926 909 QCURVE SMOOTH",
"926 962 OFFCURVE",
"862 1041 OFFCURVE",
"760 1093 OFFCURVE",
"633 1118 OFFCURVE",
"569 1118 QCURVE SMOOTH",
"472 1118 OFFCURVE",
"305 1062 OFFCURVE",
"182 928 OFFCURVE",
"113 707 OFFCURVE",
"113 543 QCURVE SMOOTH",
"113 392 OFFCURVE",
"182 179 OFFCURVE",
"306 43 OFFCURVE",
"478 -20 OFFCURVE",
"580 -20 QCURVE SMOOTH",
"667 -20 OFFCURVE"
);
}
);
width = 1008;
},
{
layerId = "3CCD85FA-69E6-46C4-A32D-64775BF55ABF";
paths = (
{
closed = 1;
nodes = (
"858 21 OFFCURVE",
"955 86 OFFCURVE",
"1001 166 OFFCURVE",
"1001 205 QCURVE SMOOTH",
"1001 233 OFFCURVE",
"977 284 OFFCURVE",
"952 299 QCURVE",
"934 264 OFFCURVE",
"877 203 OFFCURVE",
"801 158 OFFCURVE",
"708 133 OFFCURVE",
"655 133 QCURVE SMOOTH",
"526 133 OFFCURVE",
"412 339 OFFCURVE",
"412 547 QCURVE SMOOTH",
"412 678 OFFCURVE",
"439 852 OFFCURVE",
"490 956 OFFCURVE",
"561 999 OFFCURVE",
"606 999 QCURVE SMOOTH",
"645 999 OFFCURVE",
"696 956 OFFCURVE",
"726 884 OFFCURVE",
"739 788 OFFCURVE",
"739 735 QCURVE",
"819 735 OFFCURVE",
"922 765 OFFCURVE",
"981 813 OFFCURVE",
"1004 876 OFFCURVE",
"1004 909 QCURVE SMOOTH",
"1004 954 OFFCURVE",
"951 1033 OFFCURVE",
"849 1091 OFFCURVE",
"697 1124 OFFCURVE",
"598 1124 QCURVE SMOOTH",
"492 1124 OFFCURVE",
"308 1067 OFFCURVE",
"173 933 OFFCURVE",
"96 711 OFFCURVE",
"96 545 QCURVE SMOOTH",
"96 388 OFFCURVE",
"170 172 OFFCURVE",
"304 38 OFFCURVE",
"491 -20 OFFCURVE",
"604 -20 QCURVE SMOOTH",
"708 -20 OFFCURVE"
);
}
);
width = 1079;
},
{
layerId = "6A9350D6-C757-41BD-9D0D-806F72644A83";
paths = (
{
closed = 1;
nodes = (
"966 57 OFFCURVE",
"1054 172 OFFCURVE",
"1054 225 QCURVE SMOOTH",
"1054 254 OFFCURVE",
"1027 313 OFFCURVE",
"994 330 QCURVE",
"960 254 OFFCURVE",
"794 147 OFFCURVE",
"679 147 QCURVE SMOOTH",
"577 147 OFFCURVE",
"484 348 OFFCURVE",
"484 549 QCURVE SMOOTH",
"484 717 OFFCURVE",
"521 909 OFFCURVE",
"587 987 OFFCURVE",
"632 987 QCURVE SMOOTH",
"671 987 OFFCURVE",
"716 907 OFFCURVE",
"734 778 OFFCURVE",
"734 702 QCURVE",
"876 702 OFFCURVE",
"1015 770 OFFCURVE",
"1060 868 OFFCURVE",
"1060 909 QCURVE SMOOTH",
"1060 963 OFFCURVE",
"978 1063 OFFCURVE",
"785 1128 OFFCURVE",
"618 1128 QCURVE SMOOTH",
"468 1128 OFFCURVE",
"226 1022 OFFCURVE",
"83 770 OFFCURVE",
"83 547 QCURVE SMOOTH",
"83 330 OFFCURVE",
"218 82 OFFCURVE",
"460 -20 OFFCURVE",
"622 -20 QCURVE SMOOTH",
"777 -20 OFFCURVE"
);
}
);
width = 1132;
}
);
note = glyph70;
unicode = 0063;
},
{
glyphname = glyph71;
lastChange = "2021-04-16 11:22:00 +0000";
layers = (
{
layerId = "0DE963AB-769B-4021-B20D-45864FAF5663";
paths = (
{
closed = 1;
nodes = (
"835 119 OFFCURVE",
"880 227 QCURVE",
"885 227 LINE",
"893 0 LINE",
"1132 0 LINE",
"1132 41 LINE",
"1100 41 LINE SMOOTH",
"1024 41 OFFCURVE",
"958 57 OFFCURVE",
"942 121 OFFCURVE",
"942 193 QCURVE SMOOTH",
"942 1556 LINE",
"696 1556 LINE",
"696 1516 LINE",
"747 1516 LINE SMOOTH",
"809 1516 OFFCURVE",
"868 1499 OFFCURVE",
"885 1432 OFFCURVE",
"885 1356 QCURVE SMOOTH",
"885 1112 LINE SMOOTH",
"885 1069 OFFCURVE",
"887 961 OFFCURVE",
"889 903 QCURVE",
"880 903 LINE",
"840 1001 OFFCURVE",
"661 1112 OFFCURVE",
"524 1112 QCURVE SMOOTH",
"323 1112 OFFCURVE",
"135 817 OFFCURVE",
"135 547 QCURVE SMOOTH",
"135 272 OFFCURVE",
"352 -20 OFFCURVE",
"541 -20 QCURVE SMOOTH",
"678 -20 OFFCURVE"
);
},
{
closed = 1;
nodes = (
"380 29 OFFCURVE",
"288 159 QCURVE SMOOTH",
"192 293 OFFCURVE",
"192 541 QCURVE SMOOTH",
"192 791 OFFCURVE",
"348 1061 OFFCURVE",
"530 1061 QCURVE SMOOTH",
"735 1061 OFFCURVE",
"887 799 OFFCURVE",
"887 543 QCURVE SMOOTH",
"887 307 OFFCURVE",
"708 33 OFFCURVE",
"528 29 QCURVE SMOOTH",
"520 29 LINE SMOOTH"
);
}
);
width = 1167;
},
{
layerId = "8C5547AF-2EE0-40C3-888E-C5581C9C595C";
paths = (
{
closed = 1;
nodes = (
"814 102 OFFCURVE",
"859 205 QCURVE",
"865 205 LINE",
"882 0 LINE",
"1179 0 LINE",
"1179 66 LINE",
"1156 66 LINE SMOOTH",
"1068 66 OFFCURVE",
"992 113 OFFCURVE",
"992 211 QCURVE SMOOTH",
"992 1556 LINE",
"675 1556 LINE",
"675 1491 LINE",
"708 1491 LINE SMOOTH",
"786 1491 OFFCURVE",
"861 1442 OFFCURVE",
"861 1341 QCURVE SMOOTH",
"861 1141 LINE SMOOTH",
"861 1094 OFFCURVE",
"867 975 OFFCURVE",
"870 922 QCURVE",
"859 922 LINE",
"816 1012 OFFCURVE",
"654 1116 OFFCURVE",
"528 1116 QCURVE SMOOTH",
"122 1116 OFFCURVE",
"122 547 QCURVE SMOOTH",
"122 262 OFFCURVE",
"337 -20 OFFCURVE",
"534 -20 QCURVE SMOOTH",
"661 -20 OFFCURVE"
);
},
{
closed = 1;
nodes = (
"406 74 OFFCURVE",
"332 192 QCURVE SMOOTH",
"257 311 OFFCURVE",
"257 543 QCURVE SMOOTH",
"257 774 OFFCURVE",
"392 1020 OFFCURVE",
"548 1020 QCURVE SMOOTH",
"728 1020 OFFCURVE",
"863 778 OFFCURVE",
"863 545 QCURVE SMOOTH",
"863 317 OFFCURVE",
"716 76 OFFCURVE",
"548 74 QCURVE SMOOTH",
"543 74 LINE SMOOTH"
);
}
);
width = 1216;
},
{
layerId = "7FEA46FF-516C-4946-9F17-9EEA76F5F564";
paths = (
{
closed = 1;
nodes = (
"659 1556 LINE",
"659 1470 LINE",
"676 1470 LINE SMOOTH",
"710 1470 OFFCURVE",
"771 1461 OFFCURVE",
"817 1431 OFFCURVE",
"844 1376 OFFCURVE",
"844 1331 QCURVE SMOOTH",
"844 1163 LINE SMOOTH",
"844 1145 OFFCURVE",
"848 1070 OFFCURVE",
"850 1032 QCURVE SMOOTH",
"853 988 OFFCURVE",
"856 938 QCURVE",
"844 938 LINE",
"822 978 OFFCURVE",
"762 1044 OFFCURVE",
"685 1092 OFFCURVE",
"589 1118 OFFCURVE",
"530 1118 QCURVE SMOOTH",
"429 1118 OFFCURVE",
"273 1051 OFFCURVE",
"167 911 OFFCURVE",
"113 695 OFFCURVE",
"113 547 QCURVE SMOOTH",
"113 400 OFFCURVE",
"167 186 OFFCURVE",
"273 47 OFFCURVE",
"429 -20 OFFCURVE",
"530 -20 QCURVE SMOOTH",
"590 -20 OFFCURVE",
"686 9 OFFCURVE",
"762 62 OFFCURVE",
"821 137 OFFCURVE",
"844 184 QCURVE",
"852 184 LINE",
"874 0 LINE",
"1221 0 LINE",
"1221 86 LINE",
"1204 86 LINE SMOOTH",
"1170 86 OFFCURVE",
"1109 95 OFFCURVE",
"1063 125 OFFCURVE",
"1036 180 OFFCURVE",
"1036 225 QCURVE SMOOTH",
"1036 1556 LINE"
);
},
{
closed = 1;
nodes = (
"311 327 OFFCURVE",
"311 545 QCURVE SMOOTH",
"311 652 OFFCURVE",
"339 817 OFFCURVE",
"400 929 OFFCURVE",
"496 987 OFFCURVE",
"563 987 QCURVE SMOOTH",
"644 987 OFFCURVE",
"752 929 OFFCURVE",
"817 818 OFFCURVE",
"844 654 OFFCURVE",
"844 547 QCURVE SMOOTH",
"844 436 OFFCURVE",
"817 272 OFFCURVE",
"752 164 OFFCURVE",
"645 111 OFFCURVE",
"565 111 QCURVE SMOOTH",
"429 111 OFFCURVE"
);
}
);
width = 1257;
},
{
layerId = "3CCD85FA-69E6-46C4-A32D-64775BF55ABF";
paths = (
{
closed = 1;
nodes = (
"629 1556 LINE",
"629 1448 LINE",
"645 1448 LINE SMOOTH",
"679 1448 OFFCURVE",
"739 1440 OFFCURVE",
"784 1414 OFFCURVE",
"811 1363 OFFCURVE",
"811 1321 QCURVE SMOOTH",
"811 1208 LINE SMOOTH",
"811 1199 OFFCURVE",
"812 1169 OFFCURVE",
"815 1130 OFFCURVE",
"818 1086 OFFCURVE",
"819 1065 QCURVE SMOOTH",
"823 1015 OFFCURVE",
"827 958 QCURVE",
"813 958 LINE",
"792 994 OFFCURVE",
"734 1054 OFFCURVE",
"659 1097 OFFCURVE",
"566 1122 OFFCURVE",
"508 1122 QCURVE SMOOTH",
"409 1122 OFFCURVE",
"255 1053 OFFCURVE",
"149 912 OFFCURVE",
"94 695 OFFCURVE",
"94 547 QCURVE SMOOTH",
"94 400 OFFCURVE",
"149 186 OFFCURVE",
"256 47 OFFCURVE",
"412 -20 OFFCURVE",
"512 -20 QCURVE SMOOTH",
"572 -20 OFFCURVE",
"668 5 OFFCURVE",
"745 52 OFFCURVE",
"804 118 OFFCURVE",
"827 160 QCURVE",
"846 160 LINE",
"903 0 LINE",
"1300 0 LINE",
"1300 109 LINE",
"1292 109 LINE SMOOTH",
"1258 109 OFFCURVE",
"1197 119 OFFCURVE",
"1150 149 OFFCURVE",
"1122 205 OFFCURVE",
"1122 252 QCURVE SMOOTH",
"1122 1556 LINE"
);
},
{
closed = 1;
nodes = (
"410 340 OFFCURVE",
"410 549 QCURVE SMOOTH",
"410 651 OFFCURVE",
"431 808 OFFCURVE",
"476 916 OFFCURVE",
"549 971 OFFCURVE",
"600 971 QCURVE SMOOTH",
"661 971 OFFCURVE",
"742 916 OFFCURVE",
"791 809 OFFCURVE",
"811 652 OFFCURVE",
"811 551 QCURVE SMOOTH",
"811 445 OFFCURVE",
"791 288 OFFCURVE",
"742 184 OFFCURVE",
"661 133 OFFCURVE",
"600 133 QCURVE SMOOTH",
"497 133 OFFCURVE"
);
}
);
width = 1329;
},
{
layerId = "6A9350D6-C757-41BD-9D0D-806F72644A83";
paths = (
{
closed = 1;
nodes = (
"769 66 OFFCURVE",
"814 141 QCURVE",
"827 141 LINE",
"898 0 LINE",
"1349 0 LINE",
"1349 125 LINE",
"1332 125 LINE SMOOTH",
"1257 125 OFFCURVE",
"1185 197 OFFCURVE",
"1185 293 QCURVE SMOOTH",
"1185 1556 LINE",
"605 1556 LINE",
"605 1432 LINE",
"622 1432 LINE SMOOTH",
"689 1432 OFFCURVE",
"786 1393 OFFCURVE",
"786 1313 QCURVE SMOOTH",
"786 1097 LINE SMOOTH",
"786 1032 OFFCURVE",
"790 987 QCURVE",
"779 987 LINE",
"736 1044 OFFCURVE",
"603 1124 OFFCURVE",
"491 1124 QCURVE SMOOTH",
"296 1124 OFFCURVE",
"79 844 OFFCURVE",
"79 547 QCURVE SMOOTH",
"79 252 OFFCURVE",
"298 -20 OFFCURVE",
"497 -20 QCURVE SMOOTH",
"618 -20 OFFCURVE"
);
},
{
closed = 1;
nodes = (
"480 350 OFFCURVE",
"480 551 QCURVE SMOOTH",
"480 748 OFFCURVE",
"546 958 OFFCURVE",
"626 958 QCURVE SMOOTH",
"718 958 OFFCURVE",
"786 748 OFFCURVE",
"786 553 QCURVE SMOOTH",
"786 348 OFFCURVE",
"718 150 OFFCURVE",
"624 150 QCURVE SMOOTH",
"546 150 OFFCURVE"
);
}
);
width = 1382;
}
);
note = glyph71;
unicode = 0064;
},
{
glyphname = glyph72;
lastChange = "2021-04-16 11:22:00 +0000";
layers = (
{
layerId = "0DE963AB-769B-4021-B20D-45864FAF5663";
paths = (
{
closed = 1;
nodes = (
"788 47 OFFCURVE",
"860 139 OFFCURVE",
"860 174 QCURVE SMOOTH",
"860 199 OFFCURVE",
"842 211 QCURVE",
"807 135 OFFCURVE",
"663 31 OFFCURVE",
"547 31 QCURVE SMOOTH",
"387 31 OFFCURVE",
"288 165 QCURVE SMOOTH",
"190 296 OFFCURVE",
"190 555 QCURVE SMOOTH",
"190 565 LINE",
"891 565 LINE",
"891 594 LINE SMOOTH",
"891 836 OFFCURVE",
"696 1110 OFFCURVE",
"526 1110 QCURVE SMOOTH",
"336 1110 OFFCURVE",
"131 827 OFFCURVE",
"131 537 QCURVE SMOOTH",
"131 268 OFFCURVE",
"354 -20 OFFCURVE",
"545 -20 QCURVE SMOOTH",
"647 -20 OFFCURVE"
);
},
{
closed = 1;
nodes = (
"352 1059 OFFCURVE",
"524 1059 QCURVE SMOOTH",
"676 1059 OFFCURVE",
"831 813 OFFCURVE",
"833 614 QCURVE",
"194 614 LINE",
"205 817 OFFCURVE"
);
}
);
width = 1001;
},
{
layerId = "8C5547AF-2EE0-40C3-888E-C5581C9C595C";
paths = (
{
closed = 1;
nodes = (
"831 47 OFFCURVE",
"906 139 OFFCURVE",
"906 178 QCURVE SMOOTH",
"906 219 OFFCURVE",
"878 233 QCURVE",
"841 168 OFFCURVE",
"695 74 OFFCURVE",
"585 74 QCURVE SMOOTH",
"431 74 OFFCURVE",
"257 307 OFFCURVE",
"255 549 QCURVE",
"945 549 LINE",
"945 612 LINE SMOOTH",
"945 856 OFFCURVE",
"732 1114 OFFCURVE",
"548 1114 QCURVE SMOOTH",
"343 1114 OFFCURVE",
"120 827 OFFCURVE",
"120 539 QCURVE SMOOTH",
"120 270 OFFCURVE",
"360 -20 OFFCURVE",
"566 -20 QCURVE SMOOTH",
"679 -20 OFFCURVE"
);
},
{
closed = 1;
nodes = (
"405 1030 OFFCURVE",
"544 1030 QCURVE SMOOTH",
"681 1030 OFFCURVE",
"806 811 OFFCURVE",
"806 631 QCURVE",
"259 631 LINE",
"270 819 OFFCURVE"
);
}
);
width = 1052;
},
{
layerId = "7FEA46FF-516C-4946-9F17-9EEA76F5F564";
paths = (
{
closed = 1;
nodes = (
"710 956 OFFCURVE",
"762 860 OFFCURVE",
"786 726 OFFCURVE",
"786 645 QCURVE",
"315 645 LINE",
"326 823 OFFCURVE",
"449 1008 OFFCURVE",
"563 1008 QCURVE SMOOTH",
"625 1008 OFFCURVE"
);
},
{
closed = 1;
nodes = (
"814 20 OFFCURVE",
"904 80 OFFCURVE",
"948 151 OFFCURVE",
"948 182 QCURVE SMOOTH",
"948 208 OFFCURVE",
"923 246 OFFCURVE",
"909 252 QCURVE",
"891 224 OFFCURVE",
"834 173 OFFCURVE",
"760 133 OFFCURVE",
"669 109 OFFCURVE",
"616 109 QCURVE SMOOTH",
"543 109 OFFCURVE",
"431 158 OFFCURVE",
"354 262 OFFCURVE",
"313 423 OFFCURVE",
"311 535 QCURVE",
"993 535 LINE",
"993 629 LINE SMOOTH",
"993 750 OFFCURVE",
"934 933 OFFCURVE",
"824 1056 OFFCURVE",
"666 1118 OFFCURVE",
"567 1118 QCURVE SMOOTH",
"349 1118 OFFCURVE",
"113 828 OFFCURVE",
"113 541 QCURVE SMOOTH",
"113 408 OFFCURVE",
"178 199 OFFCURVE",
"300 55 OFFCURVE",
"477 -20 OFFCURVE",
"588 -20 QCURVE SMOOTH",
"679 -20 OFFCURVE"
);
}
);
width = 1096;
},
{
layerId = "3CCD85FA-69E6-46C4-A32D-64775BF55ABF";
paths = (
{
closed = 1;
nodes = (
"713 945 OFFCURVE",
"752 859 OFFCURVE",
"770 735 OFFCURVE",
"770 657 QCURVE",
"416 657 LINE",
"421 821 OFFCURVE",
"522 991 OFFCURVE",
"608 991 QCURVE SMOOTH",
"652 991 OFFCURVE"
);
},
{
closed = 1;
nodes = (
"882 16 OFFCURVE",
"982 76 OFFCURVE",
"1030 155 OFFCURVE",
"1030 199 QCURVE SMOOTH",
"1030 269 OFFCURVE",
"975 299 QCURVE",
"957 264 OFFCURVE",
"902 203 OFFCURVE",
"829 158 OFFCURVE",
"739 133 OFFCURVE",
"686 133 QCURVE SMOOTH",
"622 133 OFFCURVE",
"523 179 OFFCURVE",
"454 275 OFFCURVE",
"415 423 OFFCURVE",
"412 526 QCURVE",
"1083 526 LINE",
"1083 631 LINE SMOOTH",
"1083 753 OFFCURVE",
"1017 937 OFFCURVE",
"893 1061 OFFCURVE",
"715 1124 OFFCURVE",
"604 1124 QCURVE SMOOTH",
"483 1124 OFFCURVE",
"294 1051 OFFCURVE",
"164 905 OFFCURVE",
"96 687 OFFCURVE",
"96 543 QCURVE SMOOTH",
"96 409 OFFCURVE",
"164 200 OFFCURVE",
"298 56 OFFCURVE",
"497 -20 OFFCURVE",
"627 -20 QCURVE SMOOTH",
"731 -20 OFFCURVE"
);
}
);
width = 1169;
},
{
layerId = "6A9350D6-C757-41BD-9D0D-806F72644A83";
paths = (
{
closed = 1;
nodes = (
"1019 55 OFFCURVE",
"1109 174 OFFCURVE",
"1109 236 QCURVE SMOOTH",
"1109 274 OFFCURVE",
"1058 330 OFFCURVE",
"1019 340 QCURVE",
"986 258 OFFCURVE",
"861 152 OFFCURVE",
"757 152 QCURVE SMOOTH",
"626 152 OFFCURVE",
"489 328 OFFCURVE",
"484 520 QCURVE",
"1148 520 LINE",
"1148 633 LINE SMOOTH",
"1148 877 OFFCURVE",
"871 1128 OFFCURVE",
"630 1128 QCURVE SMOOTH",
"368 1128 OFFCURVE",
"83 834 OFFCURVE",
"83 545 QCURVE SMOOTH",
"83 276 OFFCURVE",
"364 -20 OFFCURVE",
"654 -20 QCURVE SMOOTH",
"818 -20 OFFCURVE"
);
},
{
closed = 1;
nodes = (
"575 979 OFFCURVE",
"640 979 QCURVE SMOOTH",
"701 979 OFFCURVE",
"757 817 OFFCURVE",
"757 666 QCURVE",
"489 666 LINE",
"489 819 OFFCURVE"
);
}
);
width = 1224;
}
);
note = glyph72;
unicode = 0065;
},
{
glyphname = glyph73;
lastChange = "2021-04-16 11:22:00 +0000";
layers = (
{
layerId = "0DE963AB-769B-4021-B20D-45864FAF5663";
paths = (
{
closed = 1;
nodes = (
"581 41 LINE",
"470 41 LINE SMOOTH",
"409 41 OFFCURVE",
"352 57 OFFCURVE",
"333 125 OFFCURVE",
"333 201 QCURVE SMOOTH",
"333 1047 LINE",
"628 1047 LINE",
"628 1098 LINE",
"333 1098 LINE",
"333 1229 LINE SMOOTH",
"333 1368 OFFCURVE",
"462 1530 OFFCURVE",
"581 1530 QCURVE SMOOTH",
"683 1530 OFFCURVE",
"751 1423 OFFCURVE",
"751 1348 QCURVE",
"765 1348 OFFCURVE",
"796 1386 OFFCURVE",
"796 1427 QCURVE SMOOTH",
"796 1483 OFFCURVE",
"683 1581 OFFCURVE",
"585 1581 QCURVE SMOOTH",
"440 1581 OFFCURVE",
"276 1397 OFFCURVE",
"276 1229 QCURVE SMOOTH",
"276 1098 LINE",
"81 1098 LINE",
"81 1047 LINE",
"276 1047 LINE",
"276 201 LINE SMOOTH",
"276 125 OFFCURVE",
"257 57 OFFCURVE",
"200 41 OFFCURVE",
"139 41 QCURVE SMOOTH",
"73 41 LINE",
"73 0 LINE",
"581 0 LINE"
);
}
);
width = 657;
},
{
layerId = "8C5547AF-2EE0-40C3-888E-C5581C9C595C";
paths = (
{
closed = 1;
nodes = (
"638 66 LINE",
"546 66 LINE SMOOTH",
"493 66 OFFCURVE",
"425 84 OFFCURVE",
"393 150 OFFCURVE",
"393 219 QCURVE SMOOTH",
"393 1022 LINE",
"684 1022 LINE",
"684 1098 LINE",
"393 1098 LINE",
"393 1223 LINE SMOOTH",
"393 1356 OFFCURVE",
"487 1503 OFFCURVE",
"589 1503 QCURVE SMOOTH",
"679 1503 OFFCURVE",
"741 1399 OFFCURVE",
"741 1331 QCURVE",
"786 1331 OFFCURVE",
"851 1382 OFFCURVE",
"851 1432 QCURVE SMOOTH",
"851 1491 OFFCURVE",
"733 1579 OFFCURVE",
"600 1579 QCURVE SMOOTH",
"442 1579 OFFCURVE",
"262 1389 OFFCURVE",
"262 1212 QCURVE SMOOTH",
"262 1098 LINE",
"71 1098 LINE",
"71 1022 LINE",
"262 1022 LINE",
"262 219 LINE SMOOTH",
"262 150 OFFCURVE",
"229 84 OFFCURVE",
"161 66 OFFCURVE",
"108 66 QCURVE SMOOTH",
"63 66 LINE",
"63 0 LINE",
"638 0 LINE"
);
}
);
width = 710;
},
{
layerId = "7FEA46FF-516C-4946-9F17-9EEA76F5F564";
paths = (
{
closed = 1;
nodes = (
"576 86 OFFCURVE",
"514 96 OFFCURVE",
"469 127 OFFCURVE",
"442 185 OFFCURVE",
"442 233 QCURVE SMOOTH",
"442 1001 LINE",
"731 1001 LINE",
"731 1098 LINE",
"442 1098 LINE",
"442 1219 LINE SMOOTH",
"442 1284 OFFCURVE",
"457 1382 OFFCURVE",
"493 1449 OFFCURVE",
"552 1483 OFFCURVE",
"596 1483 QCURVE SMOOTH",
"635 1483 OFFCURVE",
"687 1455 OFFCURVE",
"718 1409 OFFCURVE",
"731 1350 OFFCURVE",
"731 1319 QCURVE",
"768 1319 OFFCURVE",
"829 1334 OFFCURVE",
"874 1363 OFFCURVE",
"899 1406 OFFCURVE",
"899 1434 QCURVE SMOOTH",
"899 1466 OFFCURVE",
"869 1518 OFFCURVE",
"802 1556 OFFCURVE",
"692 1577 OFFCURVE",
"612 1577 QCURVE SMOOTH",
"528 1577 OFFCURVE",
"394 1528 OFFCURVE",
"300 1432 OFFCURVE",
"250 1292 OFFCURVE",
"250 1200 QCURVE SMOOTH",
"250 1098 LINE",
"63 1098 LINE",
"63 1001 LINE",
"250 1001 LINE",
"250 233 LINE SMOOTH",
"250 185 OFFCURVE",
"223 127 OFFCURVE",
"178 96 OFFCURVE",
"117 86 OFFCURVE",
"82 86 QCURVE SMOOTH",
"55 86 LINE",
"55 0 LINE",
"688 0 LINE",
"688 86 LINE",
"610 86 LINE SMOOTH"
);
}
);
width = 756;
},
{
layerId = "3CCD85FA-69E6-46C4-A32D-64775BF55ABF";
paths = (
{
closed = 1;
nodes = (
"782 109 LINE",
"686 109 LINE SMOOTH",
"664 109 OFFCURVE",
"613 118 OFFCURVE",
"570 146 OFFCURVE",
"541 198 OFFCURVE",
"541 242 QCURVE SMOOTH",
"541 958 LINE",
"823 958 LINE",
"823 1098 LINE",
"541 1098 LINE",
"541 1210 LINE SMOOTH",
"541 1278 OFFCURVE",
"551 1372 OFFCURVE",
"574 1431 OFFCURVE",
"610 1458 OFFCURVE",
"635 1458 QCURVE SMOOTH",
"664 1458 OFFCURVE",
"703 1425 OFFCURVE",
"727 1375 OFFCURVE",
"737 1317 OFFCURVE",
"737 1292 QCURVE",
"864 1292 OFFCURVE",
"989 1356 OFFCURVE",
"989 1425 QCURVE SMOOTH",
"989 1457 OFFCURVE",
"956 1511 OFFCURVE",
"878 1552 OFFCURVE",
"746 1575 OFFCURVE",
"647 1575 QCURVE SMOOTH",
"539 1575 OFFCURVE",
"381 1521 OFFCURVE",
"278 1418 OFFCURVE",
"229 1269 OFFCURVE",
"229 1174 QCURVE SMOOTH",
"229 1098 LINE",
"47 1098 LINE",
"47 958 LINE",
"229 958 LINE",
"229 242 LINE SMOOTH",
"229 198 OFFCURVE",
"200 146 OFFCURVE",
"157 118 OFFCURVE",
"106 109 OFFCURVE",
"84 109 QCURVE SMOOTH",
"39 109 LINE",
"39 0 LINE",
"782 0 LINE"
);
}
);
width = 834;
},
{
layerId = "6A9350D6-C757-41BD-9D0D-806F72644A83";
paths = (
{
closed = 1;
nodes = (
"851 125 LINE",
"741 125 LINE SMOOTH",
"716 125 OFFCURVE",
"657 141 OFFCURVE",
"612 193 OFFCURVE",
"612 248 QCURVE SMOOTH",
"612 928 LINE",
"890 928 LINE",
"890 1098 LINE",
"612 1098 LINE",
"612 1204 LINE SMOOTH",
"612 1343 OFFCURVE",
"659 1440 OFFCURVE",
"698 1440 QCURVE SMOOTH",
"724 1440 OFFCURVE",
"755 1372 OFFCURVE",
"765 1286 OFFCURVE",
"765 1260 QCURVE",
"876 1260 OFFCURVE",
"991 1305 OFFCURVE",
"1032 1378 OFFCURVE",
"1032 1419 QCURVE SMOOTH",
"1032 1454 OFFCURVE",
"978 1524 OFFCURVE",
"823 1573 OFFCURVE",
"671 1573 QCURVE SMOOTH",
"419 1573 OFFCURVE",
"214 1350 OFFCURVE",
"214 1153 QCURVE SMOOTH",
"214 1098 LINE",
"34 1098 LINE",
"34 928 LINE",
"214 928 LINE",
"214 248 LINE SMOOTH",
"214 193 OFFCURVE",
"165 141 OFFCURVE",
"102 125 OFFCURVE",
"85 125 QCURVE SMOOTH",
"26 125 LINE",
"26 0 LINE",
"851 0 LINE"
);
}
);
width = 890;
}
);
note = glyph73;
unicode = 0066;
},
{
glyphname = glyph74;
lastChange = "2021-04-16 11:22:00 +0000";
layers = (
{
layerId = "0DE963AB-769B-4021-B20D-45864FAF5663";
paths = (
{
closed = 1;
nodes = (
"938 -295 OFFCURVE",
"938 -133 QCURVE SMOOTH",
"938 145 OFFCURVE",
"641 145 QCURVE SMOOTH",
"499 145 LINE SMOOTH",
"417 145 OFFCURVE",
"295 190 OFFCURVE",
"295 258 QCURVE SMOOTH",
"295 315 OFFCURVE",
"346 393 OFFCURVE",
"381 422 QCURVE",
"397 414 OFFCURVE",
"487 401 OFFCURVE",
"512 401 QCURVE SMOOTH",
"671 401 OFFCURVE",
"833 592 OFFCURVE",
"833 745 QCURVE SMOOTH",
"833 827 OFFCURVE",
"790 954 OFFCURVE",
"764 993 QCURVE",
"802 1032 OFFCURVE",
"864 1083 OFFCURVE",
"911 1083 QCURVE SMOOTH",
"938 1083 OFFCURVE",
"964 1032 OFFCURVE",
"964 975 QCURVE",
"1007 975 OFFCURVE",
"1007 1051 QCURVE SMOOTH",
"1007 1087 OFFCURVE",
"962 1141 OFFCURVE",
"911 1141 QCURVE SMOOTH",
"852 1141 OFFCURVE",
"762 1061 OFFCURVE",
"733 1030 QCURVE",
"696 1065 OFFCURVE",
"585 1110 OFFCURVE",
"512 1110 QCURVE SMOOTH",
"348 1110 OFFCURVE",
"174 913 OFFCURVE",
"174 762 QCURVE SMOOTH",
"174 668 OFFCURVE",
"245 489 OFFCURVE",
"336 442 QCURVE",
"311 424 OFFCURVE",
"237 328 OFFCURVE",
"237 270 QCURVE SMOOTH",
"237 211 OFFCURVE",
"299 143 OFFCURVE",
"344 129 QCURVE",
"286 119 OFFCURVE",
"174 45 OFFCURVE",
"100 -80 OFFCURVE",
"100 -164 QCURVE SMOOTH",
"100 -315 OFFCURVE",
"299 -492 OFFCURVE",
"485 -492 QCURVE SMOOTH",
"710 -492 OFFCURVE"
);
},
{
closed = 1;
nodes = (
"231 594 OFFCURVE",
"231 745 QCURVE SMOOTH",
"231 911 OFFCURVE",
"385 1059 OFFCURVE",
"506 1059 QCURVE SMOOTH",
"635 1059 OFFCURVE",
"776 911 OFFCURVE",
"776 748 QCURVE SMOOTH",
"776 584 OFFCURVE",
"630 453 OFFCURVE",
"506 453 QCURVE SMOOTH",
"385 453 OFFCURVE"
);
},
{
closed = 1;
nodes = (
"221 -365 OFFCURVE",
"157 -240 OFFCURVE",
"157 -168 QCURVE SMOOTH",
"157 -25 OFFCURVE",
"327 94 OFFCURVE",
"450 94 QCURVE SMOOTH",
"637 94 LINE SMOOTH",
"755 94 OFFCURVE",
"880 -2 OFFCURVE",
"880 -135 QCURVE SMOOTH",
"880 -283 OFFCURVE",
"688 -440 OFFCURVE",
"493 -440 QCURVE SMOOTH",
"368 -440 OFFCURVE"
);
}
);
width = 1044;
},
{
layerId = "8C5547AF-2EE0-40C3-888E-C5581C9C595C";
paths = (
{
closed = 1;
nodes = (
"980 -289 OFFCURVE",
"980 -119 QCURVE SMOOTH",
"980 16 OFFCURVE",
"827 174 OFFCURVE",
"661 174 QCURVE SMOOTH",
"470 174 LINE SMOOTH",
"388 174 OFFCURVE",
"309 215 OFFCURVE",
"309 266 QCURVE SMOOTH",
"309 319 OFFCURVE",
"362 389 OFFCURVE",
"399 412 QCURVE",
"417 406 OFFCURVE",
"493 397 OFFCURVE",
"517 397 QCURVE SMOOTH",
"692 397 OFFCURVE",
"866 594 OFFCURVE",
"866 745 QCURVE SMOOTH",
"866 829 OFFCURVE",
"823 952 OFFCURVE",
"790 993 QCURVE",
"819 1018 OFFCURVE",
"870 1049 OFFCURVE",
"905 1049 QCURVE SMOOTH",
"939 1049 OFFCURVE",
"966 999 OFFCURVE",
"966 961 QCURVE",
"1007 961 OFFCURVE",
"1046 1012 OFFCURVE",
"1046 1053 QCURVE SMOOTH",
"1046 1094 OFFCURVE",
"993 1151 OFFCURVE",
"935 1151 QCURVE SMOOTH",
"872 1151 OFFCURVE",
"773 1073 OFFCURVE",
"747 1040 QCURVE",
"712 1071 OFFCURVE",
"591 1114 OFFCURVE",
"517 1114 QCURVE SMOOTH",
"337 1114 OFFCURVE",
"155 913 OFFCURVE",
"155 750 QCURVE SMOOTH",
"155 651 OFFCURVE",
"241 477 OFFCURVE",
"329 436 QCURVE",
"280 406 OFFCURVE",
"210 311 OFFCURVE",
"210 252 QCURVE SMOOTH",
"210 188 OFFCURVE",
"278 113 OFFCURVE",
"321 96 QCURVE",
"257 86 OFFCURVE",
"143 16 OFFCURVE",
"71 -98 OFFCURVE",
"71 -180 QCURVE SMOOTH",
"71 -326 OFFCURVE",
"276 -492 OFFCURVE",
"479 -492 QCURVE SMOOTH",
"733 -492 OFFCURVE"
);
},
{
closed = 1;
nodes = (
"286 606 OFFCURVE",
"286 745 QCURVE SMOOTH",
"286 897 OFFCURVE",
"403 1036 OFFCURVE",
"511 1036 QCURVE SMOOTH",
"624 1036 OFFCURVE",
"735 897 OFFCURVE",
"735 748 QCURVE SMOOTH",
"735 600 OFFCURVE",
"624 473 OFFCURVE",
"511 473 QCURVE SMOOTH",
"405 473 OFFCURVE"
);
},
{
closed = 1;
nodes = (
"241 -348 OFFCURVE",
"188 -240 OFFCURVE",
"188 -174 QCURVE SMOOTH",
"188 -86 OFFCURVE",
"259 10 OFFCURVE",
"376 51 OFFCURVE",
"444 51 QCURVE SMOOTH",
"638 51 LINE SMOOTH",
"747 51 OFFCURVE",
"862 -27 OFFCURVE",
"862 -139 QCURVE SMOOTH",
"862 -266 OFFCURVE",
"692 -414 OFFCURVE",
"485 -414 QCURVE SMOOTH",
"370 -414 OFFCURVE"
);
}
);
width = 1075;
},
{
layerId = "7FEA46FF-516C-4946-9F17-9EEA76F5F564";
paths = (
{
closed = 1;
nodes = (
"1062 1115 OFFCURVE",
"1032 1144 OFFCURVE",
"987 1161 OFFCURVE",
"956 1161 QCURVE SMOOTH",
"922 1161 OFFCURVE",
"863 1139 OFFCURVE",
"813 1106 OFFCURVE",
"773 1067 OFFCURVE",
"758 1051 QCURVE",
"743 1064 OFFCURVE",
"694 1088 OFFCURVE",
"633 1107 OFFCURVE",
"561 1118 OFFCURVE",
"524 1118 QCURVE SMOOTH",
"427 1118 OFFCURVE",
"283 1066 OFFCURVE",
"187 968 OFFCURVE",
"139 828 OFFCURVE",
"139 739 QCURVE SMOOTH",
"139 688 OFFCURVE",
"164 592 OFFCURVE",
"211 511 OFFCURVE",
"280 448 OFFCURVE",
"324 430 QCURVE",
"254 388 OFFCURVE",
"190 299 OFFCURVE",
"190 238 QCURVE SMOOTH",
"190 205 OFFCURVE",
"210 151 OFFCURVE",
"242 109 OFFCURVE",
"282 79 OFFCURVE",
"303 70 QCURVE",
"252 61 OFFCURVE",
"160 21 OFFCURVE",
"89 -43 OFFCURVE",
"47 -133 OFFCURVE",
"47 -193 QCURVE SMOOTH",
"47 -334 OFFCURVE",
"259 -492 OFFCURVE",
"473 -492 QCURVE SMOOTH",
"612 -492 OFFCURVE",
"817 -438 OFFCURVE",
"951 -339 OFFCURVE",
"1016 -197 OFFCURVE",
"1016 -109 QCURVE SMOOTH",
"1016 -43 OFFCURVE",
"979 70 OFFCURVE",
"898 151 OFFCURVE",
"770 197 OFFCURVE",
"678 197 QCURVE SMOOTH",
"446 197 LINE SMOOTH",
"419 197 OFFCURVE",
"372 202 OFFCURVE",
"338 219 OFFCURVE",
"319 249 OFFCURVE",
"319 274 QCURVE SMOOTH",
"319 297 OFFCURVE",
"335 335 OFFCURVE",
"362 365 OFFCURVE",
"398 389 OFFCURVE",
"418 399 QCURVE",
"426 398 OFFCURVE",
"452 395 OFFCURVE",
"482 394 OFFCURVE",
"512 393 OFFCURVE",
"524 393 QCURVE SMOOTH",
"617 393 OFFCURVE",
"756 446 OFFCURVE",
"847 540 OFFCURVE",
"893 669 OFFCURVE",
"893 745 QCURVE SMOOTH",
"893 833 OFFCURVE",
"848 950 OFFCURVE",
"813 993 QCURVE",
"833 1006 OFFCURVE",
"875 1018 OFFCURVE",
"901 1018 QCURVE SMOOTH",
"922 1018 OFFCURVE",
"948 1005 OFFCURVE",
"963 984 OFFCURVE",
"969 960 OFFCURVE",
"969 948 QCURVE",
"997 948 OFFCURVE",
"1038 965 OFFCURVE",
"1064 994 OFFCURVE",
"1077 1033 OFFCURVE",
"1077 1055 QCURVE SMOOTH",
"1077 1076 OFFCURVE"
);
},
{
closed = 1;
nodes = (
"251 -43 OFFCURVE",
"314 -1 OFFCURVE",
"395 14 OFFCURVE",
"438 14 QCURVE SMOOTH",
"639 14 LINE SMOOTH",
"690 14 OFFCURVE",
"768 0 OFFCURVE",
"821 -35 OFFCURVE",
"848 -96 OFFCURVE",
"848 -143 QCURVE SMOOTH",
"848 -197 OFFCURVE",
"814 -288 OFFCURVE",
"730 -354 OFFCURVE",
"587 -391 OFFCURVE",
"477 -391 QCURVE SMOOTH",
"399 -391 OFFCURVE",
"297 -359 OFFCURVE",
"237 -303 OFFCURVE",
"213 -225 OFFCURVE",
"213 -180 QCURVE SMOOTH",
"213 -119 OFFCURVE"
);
},
{
closed = 1;
nodes = (
"417 1018 OFFCURVE",
"516 1018 QCURVE SMOOTH",
"616 1018 OFFCURVE",
"700 886 OFFCURVE",
"700 748 QCURVE SMOOTH",
"700 681 OFFCURVE",
"681 584 OFFCURVE",
"637 522 OFFCURVE",
"568 492 OFFCURVE",
"518 492 QCURVE SMOOTH",
"419 492 OFFCURVE",
"332 614 OFFCURVE",
"332 745 QCURVE SMOOTH",
"332 883 OFFCURVE"
);
}
);
width = 1102;
},
{
layerId = "3CCD85FA-69E6-46C4-A32D-64775BF55ABF";
paths = (
{
closed = 1;
nodes = (
"1118 1125 OFFCURVE",
"1081 1157 OFFCURVE",
"1026 1176 OFFCURVE",
"989 1176 QCURVE SMOOTH",
"950 1176 OFFCURVE",
"886 1154 OFFCURVE",
"834 1120 OFFCURVE",
"793 1079 OFFCURVE",
"776 1061 QCURVE",
"730 1087 OFFCURVE",
"605 1124 OFFCURVE",
"532 1124 QCURVE SMOOTH",
"313 1124 OFFCURVE",
"104 925 OFFCURVE",
"104 745 QCURVE SMOOTH",
"104 683 OFFCURVE",
"136 581 OFFCURVE",
"191 501 OFFCURVE",
"268 444 OFFCURVE",
"313 428 QCURVE",
"273 405 OFFCURVE",
"206 358 OFFCURVE",
"158 305 OFFCURVE",
"131 247 OFFCURVE",
"131 213 QCURVE SMOOTH",
"131 177 OFFCURVE",
"157 119 OFFCURVE",
"199 74 OFFCURVE",
"253 42 OFFCURVE",
"281 31 QCURVE",
"146 20 OFFCURVE",
"4 -97 OFFCURVE",
"4 -207 QCURVE SMOOTH",
"4 -347 OFFCURVE",
"241 -492 OFFCURVE",
"483 -492 QCURVE SMOOTH",
"635 -492 OFFCURVE",
"858 -437 OFFCURVE",
"1005 -334 OFFCURVE",
"1077 -185 OFFCURVE",
"1077 -90 QCURVE SMOOTH",
"1077 -17 OFFCURVE",
"1031 100 OFFCURVE",
"934 180 OFFCURVE",
"786 223 OFFCURVE",
"684 223 QCURVE SMOOTH",
"436 223 LINE SMOOTH",
"393 223 OFFCURVE",
"340 255 OFFCURVE",
"340 289 QCURVE SMOOTH",
"340 307 OFFCURVE",
"353 339 OFFCURVE",
"374 365 OFFCURVE",
"401 386 OFFCURVE",
"414 393 QCURVE",
"422 392 OFFCURVE",
"453 389 OFFCURVE",
"487 388 OFFCURVE",
"521 387 OFFCURVE",
"532 387 QCURVE SMOOTH",
"639 387 OFFCURVE",
"795 441 OFFCURVE",
"897 537 OFFCURVE",
"946 668 OFFCURVE",
"946 745 QCURVE SMOOTH",
"946 783 OFFCURVE",
"930 856 OFFCURVE",
"903 924 OFFCURVE",
"867 983 OFFCURVE",
"846 1006 QCURVE",
"857 1014 OFFCURVE",
"896 1028 OFFCURVE",
"913 1028 QCURVE SMOOTH",
"928 1028 OFFCURVE",
"956 1017 OFFCURVE",
"978 995 OFFCURVE",
"991 963 OFFCURVE",
"991 942 QCURVE",
"1033 942 OFFCURVE",
"1090 961 OFFCURVE",
"1123 993 OFFCURVE",
"1137 1036 OFFCURVE",
"1137 1059 QCURVE SMOOTH",
"1137 1083 OFFCURVE"
);
},
{
closed = 1;
nodes = (
"280 -92 OFFCURVE",
"333 -58 OFFCURVE",
"397 -47 OFFCURVE",
"428 -47 QCURVE SMOOTH",
"666 -47 LINE SMOOTH",
"749 -47 OFFCURVE",
"831 -99 OFFCURVE",
"831 -164 QCURVE SMOOTH",
"831 -265 OFFCURVE",
"667 -369 OFFCURVE",
"487 -369 QCURVE SMOOTH",
"369 -369 OFFCURVE",
"246 -288 OFFCURVE",
"246 -203 QCURVE SMOOTH",
"246 -153 OFFCURVE"
);
},
{
closed = 1;
nodes = (
"397 895 OFFCURVE",
"430 963 OFFCURVE",
"484 1001 OFFCURVE",
"524 1001 QCURVE SMOOTH",
"565 1001 OFFCURVE",
"619 964 OFFCURVE",
"652 898 OFFCURVE",
"666 805 OFFCURVE",
"666 748 QCURVE SMOOTH",
"666 693 OFFCURVE",
"653 604 OFFCURVE",
"621 541 OFFCURVE",
"567 508 OFFCURVE",
"526 508 QCURVE SMOOTH",
"486 508 OFFCURVE",
"432 542 OFFCURVE",
"398 604 OFFCURVE",
"383 691 OFFCURVE",
"383 745 QCURVE SMOOTH",
"383 801 OFFCURVE"
);
}
);
width = 1147;
},
{
layerId = "6A9350D6-C757-41BD-9D0D-806F72644A83";
paths = (
{
closed = 1;
nodes = (
"1123 -262 OFFCURVE",
"1123 -76 QCURVE SMOOTH",
"1123 244 OFFCURVE",
"689 244 QCURVE SMOOTH",
"443 244 LINE SMOOTH",
"408 244 OFFCURVE",
"355 268 OFFCURVE",
"355 299 QCURVE SMOOTH",
"355 330 OFFCURVE",
"398 385 OFFCURVE",
"418 391 QCURVE",
"435 387 OFFCURVE",
"517 383 OFFCURVE",
"537 383 QCURVE SMOOTH",
"783 383 OFFCURVE",
"1010 590 OFFCURVE",
"1010 760 QCURVE SMOOTH",
"1010 850 OFFCURVE",
"939 977 OFFCURVE",
"885 1018 QCURVE",
"898 1022 OFFCURVE",
"930 1034 OFFCURVE",
"953 1034 QCURVE SMOOTH",
"973 1034 OFFCURVE",
"1027 993 OFFCURVE",
"1027 938 QCURVE",
"1117 938 OFFCURVE",
"1186 1020 OFFCURVE",
"1186 1073 QCURVE SMOOTH",
"1186 1126 OFFCURVE",
"1111 1202 OFFCURVE",
"1039 1202 QCURVE SMOOTH",
"955 1202 OFFCURVE",
"851 1135 OFFCURVE",
"799 1079 QCURVE",
"742 1106 OFFCURVE",
"619 1128 OFFCURVE",
"537 1128 QCURVE SMOOTH",
"287 1128 OFFCURVE",
"58 932 OFFCURVE",
"58 750 QCURVE SMOOTH",
"58 610 OFFCURVE",
"203 455 OFFCURVE",
"306 426 QCURVE",
"208 377 OFFCURVE",
"87 272 OFFCURVE",
"87 201 QCURVE SMOOTH",
"87 123 OFFCURVE",
"197 43 OFFCURVE",
"263 20 QCURVE",
"130 12 OFFCURVE",
"-28 -115 OFFCURVE",
"-28 -211 QCURVE SMOOTH",
"-28 -477 OFFCURVE",
"490 -477 QCURVE SMOOTH",
"812 -477 OFFCURVE"
);
},
{
closed = 1;
nodes = (
"400 655 OFFCURVE",
"400 745 QCURVE SMOOTH",
"400 807 OFFCURVE",
"421 920 OFFCURVE",
"478 989 OFFCURVE",
"533 989 QCURVE SMOOTH",
"590 989 OFFCURVE",
"646 922 OFFCURVE",
"664 811 OFFCURVE",
"664 748 QCURVE SMOOTH",
"664 684 OFFCURVE",
"646 582 OFFCURVE",
"590 520 OFFCURVE",
"533 520 QCURVE SMOOTH",
"451 520 OFFCURVE"
);
},
{
closed = 1;
nodes = (
"271 -283 OFFCURVE",
"271 -213 QCURVE SMOOTH",
"271 -160 OFFCURVE",
"322 -98 OFFCURVE",
"394 -74 OFFCURVE",
"423 -74 QCURVE SMOOTH",
"687 -74 LINE SMOOTH",
"756 -74 OFFCURVE",
"820 -133 OFFCURVE",
"820 -172 QCURVE SMOOTH",
"820 -254 OFFCURVE",
"648 -338 OFFCURVE",
"496 -338 QCURVE SMOOTH",
"406 -338 OFFCURVE"
);
}
);
width = 1179;
}
);
note = glyph74;
unicode = 0067;
},
{
glyphname = glyph75;
lastChange = "2021-04-16 11:22:00 +0000";
layers = (
{
layerId = "0DE963AB-769B-4021-B20D-45864FAF5663";
paths = (
{
closed = 1;
nodes = (
"495 41 LINE",
"456 41 LINE SMOOTH",
"380 41 OFFCURVE",
"315 57 OFFCURVE",
"298 121 OFFCURVE",
"298 193 QCURVE SMOOTH",
"298 684 LINE SMOOTH",
"298 879 OFFCURVE",
"487 1059 OFFCURVE",
"642 1059 QCURVE SMOOTH",
"786 1059 OFFCURVE",
"915 903 OFFCURVE",
"915 737 QCURVE SMOOTH",
"915 0 LINE",
"1165 0 LINE",
"1165 41 LINE",
"1130 41 LINE SMOOTH",
"1056 41 OFFCURVE",
"988 57 OFFCURVE",
"972 121 OFFCURVE",
"972 193 QCURVE SMOOTH",
"972 741 LINE SMOOTH",
"972 936 OFFCURVE",
"802 1110 OFFCURVE",
"642 1110 QCURVE SMOOTH",
"536 1110 OFFCURVE",
"394 1044 OFFCURVE",
"315 944 OFFCURVE",
"296 891 QCURVE",
"292 891 LINE",
"294 909 OFFCURVE",
"298 961 OFFCURVE",
"298 987 QCURVE SMOOTH",
"298 1556 LINE",
"52 1556 LINE",
"52 1516 LINE",
"104 1516 LINE SMOOTH",
"165 1516 OFFCURVE",
"225 1499 OFFCURVE",
"241 1432 OFFCURVE",
"241 1356 QCURVE SMOOTH",
"241 193 LINE SMOOTH",
"241 121 OFFCURVE",
"225 57 OFFCURVE",
"159 41 OFFCURVE",
"83 41 QCURVE SMOOTH",
"32 41 LINE",
"32 0 LINE",
"495 0 LINE"
);
}
);
width = 1218;
},
{
layerId = "8C5547AF-2EE0-40C3-888E-C5581C9C595C";
paths = (
{
closed = 1;
nodes = (
"546 66 LINE",
"523 66 LINE SMOOTH",
"435 66 OFFCURVE",
"362 111 OFFCURVE",
"362 209 QCURVE SMOOTH",
"362 668 LINE SMOOTH",
"362 840 OFFCURVE",
"513 1020 OFFCURVE",
"652 1020 QCURVE SMOOTH",
"786 1020 OFFCURVE",
"898 868 OFFCURVE",
"898 721 QCURVE SMOOTH",
"898 0 LINE",
"1208 0 LINE",
"1208 66 LINE",
"1187 66 LINE SMOOTH",
"1130 66 OFFCURVE",
"1060 84 OFFCURVE",
"1029 147 OFFCURVE",
"1029 215 QCURVE SMOOTH",
"1029 727 LINE SMOOTH",
"1029 932 OFFCURVE",
"851 1114 OFFCURVE",
"683 1114 QCURVE SMOOTH",
"552 1114 OFFCURVE",
"399 999 OFFCURVE",
"362 913 QCURVE",
"353 913 LINE",
"356 922 OFFCURVE",
"362 1010 OFFCURVE",
"362 1053 QCURVE SMOOTH",
"362 1556 LINE",
"44 1556 LINE",
"44 1491 LINE",
"75 1491 LINE SMOOTH",
"155 1491 OFFCURVE",
"231 1442 OFFCURVE",
"231 1341 QCURVE SMOOTH",
"231 215 LINE SMOOTH",
"231 115 OFFCURVE",
"155 66 OFFCURVE",
"67 66 QCURVE SMOOTH",
"34 66 LINE",
"34 0 LINE",
"546 0 LINE"
);
}
);
width = 1263;
},
{
layerId = "7FEA46FF-516C-4946-9F17-9EEA76F5F564";
paths = (
{
closed = 1;
nodes = (
"548 86 OFFCURVE",
"487 95 OFFCURVE",
"441 123 OFFCURVE",
"414 178 OFFCURVE",
"414 223 QCURVE SMOOTH",
"414 655 LINE SMOOTH",
"414 730 OFFCURVE",
"444 853 OFFCURVE",
"505 940 OFFCURVE",
"598 987 OFFCURVE",
"662 987 QCURVE SMOOTH",
"724 987 OFFCURVE",
"810 950 OFFCURVE",
"863 878 OFFCURVE",
"887 774 OFFCURVE",
"887 707 QCURVE SMOOTH",
"887 0 LINE",
"1243 0 LINE",
"1243 86 LINE",
"1237 86 LINE SMOOTH",
"1203 86 OFFCURVE",
"1145 96 OFFCURVE",
"1103 127 OFFCURVE",
"1079 185 OFFCURVE",
"1079 233 QCURVE SMOOTH",
"1079 717 LINE SMOOTH",
"1079 822 OFFCURVE",
"1031 974 OFFCURVE",
"939 1071 OFFCURVE",
"804 1118 OFFCURVE",
"717 1118 QCURVE SMOOTH",
"508 1118 OFFCURVE",
"416 932 QCURVE",
"406 932 LINE",
"408 961 OFFCURVE",
"410 991 QCURVE SMOOTH",
"412 1017 OFFCURVE",
"414 1078 OFFCURVE",
"414 1106 QCURVE SMOOTH",
"414 1556 LINE",
"37 1556 LINE",
"37 1470 LINE",
"53 1470 LINE SMOOTH",
"87 1470 OFFCURVE",
"148 1461 OFFCURVE",
"194 1431 OFFCURVE",
"221 1376 OFFCURVE",
"221 1331 QCURVE SMOOTH",
"221 233 LINE SMOOTH",
"221 185 OFFCURVE",
"194 127 OFFCURVE",
"149 96 OFFCURVE",
"88 86 OFFCURVE",
"53 86 QCURVE SMOOTH",
"37 86 LINE",
"37 0 LINE",
"588 0 LINE",
"588 86 LINE",
"582 86 LINE SMOOTH"
);
}
);
width = 1300;
},
{
layerId = "3CCD85FA-69E6-46C4-A32D-64775BF55ABF";
paths = (
{
closed = 1;
nodes = (
"1313 109 LINE",
"1307 109 LINE SMOOTH",
"1272 109 OFFCURVE",
"1220 119 OFFCURVE",
"1186 149 OFFCURVE",
"1169 206 OFFCURVE",
"1169 254 QCURVE SMOOTH",
"1169 729 LINE SMOOTH",
"1169 833 OFFCURVE",
"1123 982 OFFCURVE",
"1036 1078 OFFCURVE",
"910 1124 OFFCURVE",
"831 1124 QCURVE SMOOTH",
"783 1124 OFFCURVE",
"696 1115 OFFCURVE",
"618 1082 OFFCURVE",
"549 1016 OFFCURVE",
"518 958 QCURVE",
"500 958 LINE",
"504 1002 OFFCURVE",
"508 1048 QCURVE SMOOTH",
"511 1087 OFFCURVE",
"516 1179 OFFCURVE",
"516 1219 QCURVE SMOOTH",
"516 1556 LINE",
"35 1556 LINE",
"35 1448 LINE",
"59 1448 LINE SMOOTH",
"81 1448 OFFCURVE",
"132 1440 OFFCURVE",
"176 1413 OFFCURVE",
"205 1364 OFFCURVE",
"205 1323 QCURVE SMOOTH",
"205 250 LINE SMOOTH",
"205 204 OFFCURVE",
"181 148 OFFCURVE",
"138 118 OFFCURVE",
"80 109 OFFCURVE",
"45 109 QCURVE SMOOTH",
"41 109 LINE",
"41 0 LINE",
"670 0 LINE",
"670 109 LINE",
"664 109 LINE SMOOTH",
"630 109 OFFCURVE",
"575 118 OFFCURVE",
"537 147 OFFCURVE",
"516 199 OFFCURVE",
"516 242 QCURVE SMOOTH",
"516 633 LINE SMOOTH",
"516 696 OFFCURVE",
"534 811 OFFCURVE",
"575 898 OFFCURVE",
"643 950 OFFCURVE",
"694 950 QCURVE SMOOTH",
"739 950 OFFCURVE",
"802 913 OFFCURVE",
"841 843 OFFCURVE",
"858 740 OFFCURVE",
"858 674 QCURVE SMOOTH",
"858 0 LINE",
"1313 0 LINE"
);
}
);
width = 1366;
},
{
layerId = "6A9350D6-C757-41BD-9D0D-806F72644A83";
paths = (
{
closed = 1;
nodes = (
"728 125 LINE",
"720 125 LINE SMOOTH",
"653 125 OFFCURVE",
"593 172 OFFCURVE",
"593 256 QCURVE SMOOTH",
"593 616 LINE SMOOTH",
"593 688 OFFCURVE",
"610 829 OFFCURVE",
"663 924 OFFCURVE",
"718 924 QCURVE SMOOTH",
"782 924 OFFCURVE",
"835 780 OFFCURVE",
"835 649 QCURVE SMOOTH",
"835 0 LINE",
"1363 0 LINE",
"1363 125 LINE",
"1355 125 LINE SMOOTH",
"1285 125 OFFCURVE",
"1234 174 OFFCURVE",
"1234 268 QCURVE SMOOTH",
"1234 737 LINE SMOOTH",
"1234 942 OFFCURVE",
"1072 1128 OFFCURVE",
"902 1128 QCURVE SMOOTH",
"769 1128 OFFCURVE",
"634 1036 OFFCURVE",
"597 979 QCURVE",
"581 979 LINE",
"585 1032 OFFCURVE",
"591 1190 OFFCURVE",
"591 1274 QCURVE SMOOTH",
"591 1556 LINE",
"32 1556 LINE",
"32 1432 LINE",
"63 1432 LINE SMOOTH",
"79 1432 OFFCURVE",
"141 1415 OFFCURVE",
"192 1368 OFFCURVE",
"192 1317 QCURVE SMOOTH",
"192 262 LINE SMOOTH",
"192 172 OFFCURVE",
"110 125 OFFCURVE",
"50 125 QCURVE SMOOTH",
"42 125 LINE",
"42 0 LINE",
"728 0 LINE"
);
}
);
width = 1415;
}
);
note = glyph75;
unicode = 0068;
},
{
glyphname = glyph76;
lastChange = "2021-04-16 11:22:00 +0000";
layers = (
{
layerId = "0DE963AB-769B-4021-B20D-45864FAF5663";
paths = (
{
closed = 1;
nodes = (
"348 1380 OFFCURVE",
"348 1430 QCURVE SMOOTH",
"348 1477 OFFCURVE",
"323 1511 OFFCURVE",
"301 1511 QCURVE SMOOTH",
"278 1511 OFFCURVE",
"253 1477 OFFCURVE",
"253 1430 QCURVE SMOOTH",
"253 1380 OFFCURVE",
"278 1348 OFFCURVE",
"301 1348 QCURVE SMOOTH",
"323 1348 OFFCURVE"
);
},
{
closed = 1;
nodes = (
"559 41 LINE",
"497 41 LINE SMOOTH",
"421 41 OFFCURVE",
"356 57 OFFCURVE",
"339 121 OFFCURVE",
"339 193 QCURVE SMOOTH",
"339 1098 LINE",
"108 1098 LINE",
"108 1057 LINE",
"145 1057 LINE SMOOTH",
"206 1057 OFFCURVE",
"266 1040 OFFCURVE",
"282 973 OFFCURVE",
"282 897 QCURVE SMOOTH",
"282 193 LINE SMOOTH",
"282 121 OFFCURVE",
"266 57 OFFCURVE",
"200 41 OFFCURVE",
"124 41 QCURVE SMOOTH",
"63 41 LINE",
"63 0 LINE",
"559 0 LINE"
);
}
);
width = 573;
},
{
layerId = "8C5547AF-2EE0-40C3-888E-C5581C9C595C";
paths = (
{
closed = 1;
nodes = (
"401 1368 OFFCURVE",
"401 1430 QCURVE SMOOTH",
"401 1491 OFFCURVE",
"352 1536 OFFCURVE",
"317 1536 QCURVE SMOOTH",
"280 1536 OFFCURVE",
"231 1491 OFFCURVE",
"231 1430 QCURVE SMOOTH",
"231 1368 OFFCURVE",
"280 1323 OFFCURVE",
"317 1323 QCURVE SMOOTH",
"352 1323 OFFCURVE"
);
},
{
closed = 1;
nodes = (
"598 66 LINE",
"555 66 LINE SMOOTH",
"467 66 OFFCURVE",
"391 115 OFFCURVE",
"391 215 QCURVE SMOOTH",
"391 1098 LINE",
"86 1098 LINE",
"86 1032 LINE",
"106 1032 LINE SMOOTH",
"184 1032 OFFCURVE",
"260 983 OFFCURVE",
"260 883 QCURVE SMOOTH",
"260 209 LINE SMOOTH",
"260 111 OFFCURVE",
"184 66 OFFCURVE",
"96 66 QCURVE SMOOTH",
"55 66 LINE",
"55 0 LINE",
"598 0 LINE"
);
}
);
width = 618;
},
{
layerId = "7FEA46FF-516C-4946-9F17-9EEA76F5F564";
paths = (
{
closed = 1;
nodes = (
"47 0 LINE",
"629 0 LINE",
"629 86 LINE",
"602 86 LINE SMOOTH",
"568 86 OFFCURVE",
"506 96 OFFCURVE",
"461 127 OFFCURVE",
"434 185 OFFCURVE",
"434 233 QCURVE SMOOTH",
"434 1098 LINE",
"68 1098 LINE",
"68 1012 LINE",
"74 1012 LINE SMOOTH",
"108 1012 OFFCURVE",
"169 1002 OFFCURVE",
"215 972 OFFCURVE",
"242 917 OFFCURVE",
"242 872 QCURVE SMOOTH",
"242 223 LINE SMOOTH",
"242 178 OFFCURVE",
"215 123 OFFCURVE",
"169 95 OFFCURVE",
"108 86 OFFCURVE",
"74 86 QCURVE SMOOTH",
"47 86 LINE"
);
},
{
closed = 1;
nodes = (
"231 1346 OFFCURVE",
"263 1316 OFFCURVE",
"305 1303 OFFCURVE",
"330 1303 QCURVE SMOOTH",
"354 1303 OFFCURVE",
"396 1316 OFFCURVE",
"427 1346 OFFCURVE",
"446 1394 OFFCURVE",
"446 1430 QCURVE SMOOTH",
"446 1466 OFFCURVE",
"427 1514 OFFCURVE",
"396 1544 OFFCURVE",
"354 1556 OFFCURVE",
"330 1556 QCURVE SMOOTH",
"305 1556 OFFCURVE",
"263 1544 OFFCURVE",
"231 1514 OFFCURVE",
"213 1466 OFFCURVE",
"213 1430 QCURVE SMOOTH",
"213 1394 OFFCURVE"
);
}
);
width = 655;
},
{
layerId = "3CCD85FA-69E6-46C4-A32D-64775BF55ABF";
paths = (
{
closed = 1;
nodes = (
"203 1336 OFFCURVE",
"250 1300 OFFCURVE",
"313 1282 OFFCURVE",
"350 1282 QCURVE SMOOTH",
"385 1282 OFFCURVE",
"449 1300 OFFCURVE",
"497 1336 OFFCURVE",
"526 1392 OFFCURVE",
"526 1430 QCURVE SMOOTH",
"526 1469 OFFCURVE",
"497 1525 OFFCURVE",
"449 1560 OFFCURVE",
"385 1577 OFFCURVE",
"350 1577 QCURVE SMOOTH",
"313 1577 OFFCURVE",
"250 1560 OFFCURVE",
"203 1525 OFFCURVE",
"176 1469 OFFCURVE",
"176 1430 QCURVE SMOOTH",
"176 1392 OFFCURVE"
);
},
{
closed = 1;
nodes = (
"35 0 LINE",
"686 0 LINE",
"686 109 LINE",
"662 109 LINE SMOOTH",
"640 109 OFFCURVE",
"588 118 OFFCURVE",
"545 146 OFFCURVE",
"516 198 OFFCURVE",
"516 242 QCURVE SMOOTH",
"516 1098 LINE",
"35 1098 LINE",
"35 989 LINE",
"59 989 LINE SMOOTH",
"81 989 OFFCURVE",
"132 981 OFFCURVE",
"176 954 OFFCURVE",
"205 905 OFFCURVE",
"205 864 QCURVE SMOOTH",
"205 242 LINE SMOOTH",
"205 198 OFFCURVE",
"176 146 OFFCURVE",
"133 118 OFFCURVE",
"82 109 OFFCURVE",
"59 109 QCURVE SMOOTH",
"35 109 LINE"
);
}
);
width = 721;
},
{
layerId = "6A9350D6-C757-41BD-9D0D-806F72644A83";
paths = (
{
closed = 1;
nodes = (
"585 1352 OFFCURVE",
"585 1430 QCURVE SMOOTH",
"585 1511 OFFCURVE",
"454 1591 OFFCURVE",
"366 1591 QCURVE SMOOTH",
"274 1591 OFFCURVE",
"149 1511 OFFCURVE",
"149 1430 QCURVE SMOOTH",
"149 1352 OFFCURVE",
"274 1268 OFFCURVE",
"366 1268 QCURVE SMOOTH",
"454 1268 OFFCURVE"
);
},
{
closed = 1;
nodes = (
"727 125 LINE",
"704 125 LINE SMOOTH",
"647 125 OFFCURVE",
"575 186 OFFCURVE",
"575 268 QCURVE SMOOTH",
"575 1098 LINE",
"10 1098 LINE",
"10 973 LINE",
"49 973 LINE SMOOTH",
"104 973 OFFCURVE",
"178 913 OFFCURVE",
"178 838 QCURVE SMOOTH",
"178 276 LINE SMOOTH",
"178 190 OFFCURVE",
"106 125 OFFCURVE",
"49 125 QCURVE SMOOTH",
"24 125 LINE",
"24 0 LINE",
"727 0 LINE"
);
}
);
width = 770;
}
);
note = glyph76;
unicode = 0069;
},
{
glyphname = glyph77;
lastChange = "2021-04-16 11:22:00 +0000";
layers = (
{
layerId = "0DE963AB-769B-4021-B20D-45864FAF5663";
paths = (
{
closed = 1;
nodes = (
"364 1380 OFFCURVE",
"364 1430 QCURVE SMOOTH",
"364 1477 OFFCURVE",
"340 1511 OFFCURVE",
"317 1511 QCURVE SMOOTH",
"295 1511 OFFCURVE",
"270 1477 OFFCURVE",
"270 1430 QCURVE SMOOTH",
"270 1380 OFFCURVE",
"295 1348 OFFCURVE",
"317 1348 QCURVE SMOOTH",
"340 1348 OFFCURVE"
);
},
{
closed = 1;
nodes = (
"166 -492 OFFCURVE",
"286 -408 OFFCURVE",
"356 -201 OFFCURVE",
"356 -16 QCURVE SMOOTH",
"356 1098 LINE",
"125 1098 LINE",
"125 1057 LINE",
"162 1057 LINE SMOOTH",
"223 1057 OFFCURVE",
"282 1040 OFFCURVE",
"299 973 OFFCURVE",
"299 897 QCURVE SMOOTH",
"299 -16 LINE SMOOTH",
"299 -176 OFFCURVE",
"246 -362 OFFCURVE",
"145 -440 OFFCURVE",
"76 -440 QCURVE SMOOTH",
"53 -440 LINE",
"53 -492 LINE",
"86 -492 LINE SMOOTH"
);
}
);
width = 581;
},
{
layerId = "8C5547AF-2EE0-40C3-888E-C5581C9C595C";
paths = (
{
closed = 1;
nodes = (
"397 1368 OFFCURVE",
"397 1430 QCURVE SMOOTH",
"397 1491 OFFCURVE",
"350 1536 OFFCURVE",
"313 1536 QCURVE SMOOTH",
"276 1536 OFFCURVE",
"227 1491 OFFCURVE",
"227 1430 QCURVE SMOOTH",
"227 1368 OFFCURVE",
"276 1323 OFFCURVE",
"313 1323 QCURVE SMOOTH",
"350 1323 OFFCURVE"
);
},
{
closed = 1;
nodes = (
"143 -492 OFFCURVE",
"299 -408 OFFCURVE",
"387 -201 OFFCURVE",
"387 -16 QCURVE SMOOTH",
"387 1098 LINE",
"82 1098 LINE",
"82 1032 LINE",
"102 1032 LINE SMOOTH",
"180 1032 OFFCURVE",
"256 983 OFFCURVE",
"256 883 QCURVE SMOOTH",
"256 -18 LINE SMOOTH",
"256 -170 OFFCURVE",
"203 -344 OFFCURVE",
"100 -416 OFFCURVE",
"28 -416 QCURVE SMOOTH",
"10 -416 LINE",
"10 -492 LINE",
"43 -492 LINE SMOOTH"
);
}
);
width = 600;
},
{
layerId = "7FEA46FF-516C-4946-9F17-9EEA76F5F564";
paths = (
{
closed = 1;
nodes = (
"47 1012 LINE",
"53 1012 LINE SMOOTH",
"87 1012 OFFCURVE",
"148 1002 OFFCURVE",
"194 972 OFFCURVE",
"221 917 OFFCURVE",
"221 872 QCURVE SMOOTH",
"221 -18 LINE SMOOTH",
"221 -126 OFFCURVE",
"190 -271 OFFCURVE",
"131 -358 OFFCURVE",
"45 -395 OFFCURVE",
"-10 -395 QCURVE SMOOTH",
"-25 -395 LINE",
"-25 -492 LINE",
"8 -492 LINE SMOOTH",
"97 -492 OFFCURVE",
"246 -446 OFFCURVE",
"354 -337 OFFCURVE",
"414 -154 OFFCURVE",
"414 -16 QCURVE SMOOTH",
"414 1098 LINE",
"47 1098 LINE"
);
},
{
closed = 1;
nodes = (
"211 1346 OFFCURVE",
"242 1316 OFFCURVE",
"285 1303 OFFCURVE",
"309 1303 QCURVE SMOOTH",
"333 1303 OFFCURVE",
"376 1316 OFFCURVE",
"407 1346 OFFCURVE",
"426 1394 OFFCURVE",
"426 1430 QCURVE SMOOTH",
"426 1466 OFFCURVE",
"407 1514 OFFCURVE",
"376 1544 OFFCURVE",
"333 1556 OFFCURVE",
"309 1556 QCURVE SMOOTH",
"285 1556 OFFCURVE",
"242 1544 OFFCURVE",
"211 1514 OFFCURVE",
"193 1466 OFFCURVE",
"193 1430 QCURVE SMOOTH",
"193 1394 OFFCURVE"
);
}
);
width = 614;
},
{
layerId = "3CCD85FA-69E6-46C4-A32D-64775BF55ABF";
paths = (
{
closed = 1;
nodes = (
"35 989 LINE",
"41 989 LINE SMOOTH",
"74 989 OFFCURVE",
"134 980 OFFCURVE",
"179 951 OFFCURVE",
"205 898 OFFCURVE",
"205 854 QCURVE SMOOTH",
"205 0 LINE SMOOTH",
"205 -105 OFFCURVE",
"175 -245 OFFCURVE",
"116 -329 OFFCURVE",
"29 -365 OFFCURVE",
"-27 -365 QCURVE SMOOTH",
"-41 -365 LINE",
"-41 -492 LINE",
"0 -492 LINE SMOOTH",
"113 -492 OFFCURVE",
"302 -446 OFFCURVE",
"439 -337 OFFCURVE",
"516 -154 OFFCURVE",
"516 -16 QCURVE SMOOTH",
"516 1098 LINE",
"35 1098 LINE"
);
},
{
closed = 1;
nodes = (
"205 1336 OFFCURVE",
"252 1300 OFFCURVE",
"315 1282 OFFCURVE",
"352 1282 QCURVE SMOOTH",
"387 1282 OFFCURVE",
"451 1300 OFFCURVE",
"499 1336 OFFCURVE",
"528 1392 OFFCURVE",
"528 1430 QCURVE SMOOTH",
"528 1469 OFFCURVE",
"499 1525 OFFCURVE",
"451 1560 OFFCURVE",
"387 1577 OFFCURVE",
"352 1577 QCURVE SMOOTH",
"315 1577 OFFCURVE",
"252 1560 OFFCURVE",
"205 1525 OFFCURVE",
"178 1469 OFFCURVE",
"178 1430 QCURVE SMOOTH",
"178 1392 OFFCURVE"
);
}
);
width = 707;
},
{
layerId = "6A9350D6-C757-41BD-9D0D-806F72644A83";
paths = (
{
closed = 1;
nodes = (
"604 1352 OFFCURVE",
"604 1430 QCURVE SMOOTH",
"604 1511 OFFCURVE",
"473 1591 OFFCURVE",
"385 1591 QCURVE SMOOTH",
"293 1591 OFFCURVE",
"168 1511 OFFCURVE",
"168 1430 QCURVE SMOOTH",
"168 1352 OFFCURVE",
"293 1268 OFFCURVE",
"385 1268 QCURVE SMOOTH",
"473 1268 OFFCURVE"
);
},
{
closed = 1;
nodes = (
"168 -492 OFFCURVE",
"439 -408 OFFCURVE",
"592 -201 OFFCURVE",
"592 -16 QCURVE SMOOTH",
"592 1098 LINE",
"27 1098 LINE",
"27 973 LINE",
"35 973 LINE SMOOTH",
"99 973 OFFCURVE",
"193 926 OFFCURVE",
"193 840 QCURVE SMOOTH",
"193 14 LINE SMOOTH",
"193 -190 OFFCURVE",
"74 -342 OFFCURVE",
"-39 -342 QCURVE SMOOTH",
"-53 -342 LINE",
"-53 -492 LINE",
"-6 -492 LINE SMOOTH"
);
}
);
width = 774;
}
);
note = glyph77;
unicode = 006A;
},
